<?xml version="1.0" encoding="UTF-8" standalone="no"?>
<!DOCTYPE svg PUBLIC "-//W3C//DTD SVG 1.1//EN" "http://www.w3.org/Graphics/SVG/1.1/DTD/svg11.dtd">
<svg xmlns="http://www.w3.org/2000/svg" version="1.1" viewBox="0.00 0.00 1601.00 832.00" width="1601.00" height="832.00">
<g fill="#004392">
<path d="
  M 823.99 19.36
  C 832.82 23.47 840.00 28.00 845.55 32.96
  C 856.68 42.92 865.94 54.51 873.34 67.72
  C 873.61 68.20 873.29 68.80 872.74 68.84
  C 850.43 70.63 828.64 73.74 807.37 78.18
  C 806.35 78.39 805.96 79.01 806.20 80.02
  L 807.25 84.56
  C 807.52 85.70 808.22 86.15 809.36 85.92
  C 832.59 81.19 855.06 78.07 876.78 76.55
  C 877.74 76.48 878.46 76.95 878.95 77.95
  C 884.22 88.71 888.54 99.27 891.91 109.63
  C 895.48 120.60 898.43 132.05 900.78 144.00
  C 900.87 144.47 900.69 144.94 900.31 145.24
  C 900.08 145.43 899.65 145.51 899.02 145.48
  C 894.97 145.32 889.56 145.56 882.79 146.19
  C 862.61 148.08 842.94 150.97 823.78 154.86
  C 823.55 154.91 823.46 155.04 823.51 155.27
  L 825.14 162.25
  C 825.20 162.49 825.44 162.65 825.69 162.60
  C 850.94 157.54 876.02 154.35 900.93 153.02
  C 901.88 152.97 902.70 153.65 902.82 154.59
  C 903.61 160.94 904.46 169.18 905.37 179.30
  C 906.02 186.47 906.34 193.13 906.34 199.26
  C 906.34 207.36 905.96 215.39 905.20 223.36
  C 905.16 223.72 904.89 224.01 904.53 224.06
  C 902.40 224.34 897.15 224.92 888.76 225.81
  C 873.40 227.44 857.86 229.89 842.14 233.16
  C 841.78 233.23 841.64 233.45 841.72 233.81
  L 843.00 239.31
  C 843.18 240.10 843.96 240.60 844.75 240.45
  C 863.42 236.81 882.05 234.19 900.64 232.59
  C 901.78 232.50 902.85 232.54 903.84 232.72
  C 904.18 232.78 904.32 232.98 904.27 233.32
  C 903.34 239.82 902.47 245.29 901.64 249.72
  C 899.47 261.34 896.25 272.67 891.99 283.72
  C 887.31 295.83 881.12 306.81 873.42 316.66
  C 869.87 321.19 864.28 326.46 856.63 332.47
  C 847.75 335.44 839.04 337.45 830.49 338.50
  C 828.55 338.74 824.61 339.10 818.67 339.58
  C 814.16 339.95 810.20 340.09 806.81 340.01
  C 777.26 339.34 749.71 331.29 724.17 315.86
  C 724.14 312.77 725.10 310.08 727.04 307.79
  C 728.69 305.85 730.43 304.17 732.27 302.76
  C 737.59 298.69 743.27 295.13 749.32 292.08
  C 757.93 287.75 766.91 283.89 776.26 280.50
  C 792.91 274.47 810.06 269.41 827.71 265.32
  C 828.64 265.10 829.22 264.17 829.00 263.24
  L 818.74 219.06
  C 818.65 218.69 818.29 218.46 817.92 218.54
  C 791.72 224.24 766.44 232.16 742.07 242.30
  C 729.23 247.64 717.21 253.96 706.02 261.25
  C 701.33 264.30 696.89 268.12 692.70 272.69
  C 689.67 275.98 687.91 279.75 687.42 283.98
  C 679.96 275.35 673.55 266.15 668.19 256.39
  C 670.19 250.67 673.35 245.76 677.68 241.67
  C 684.44 235.29 692.00 229.77 700.37 225.10
  C 709.95 219.77 719.38 215.11 728.66 211.13
  C 741.09 205.80 755.80 200.51 772.79 195.25
  C 780.11 192.98 786.15 191.28 790.91 190.15
  C 796.60 188.79 802.73 187.25 809.30 185.52
  C 810.41 185.23 810.83 184.52 810.57 183.41
  L 800.65 140.69
  C 800.50 140.05 800.10 139.82 799.47 139.99
  C 796.24 140.86 788.46 142.94 776.12 146.24
  C 746.95 154.03 718.25 165.47 690.03 180.56
  C 684.58 183.47 677.98 187.53 670.23 192.73
  C 662.84 197.70 656.60 203.37 651.52 209.74
  C 649.83 200.81 648.97 193.89 648.94 189.00
  C 648.90 183.87 648.86 178.80 648.82 173.79
  C 649.51 173.16 650.61 171.94 652.12 170.11
  C 655.27 166.30 660.11 162.32 666.64 158.15
  C 675.04 152.79 681.37 149.04 685.64 146.90
  C 701.02 139.19 717.14 132.48 734.01 126.77
  C 752.98 120.35 772.52 114.79 792.62 110.09
  C 793.01 110.00 793.26 109.62 793.19 109.23
  C 792.39 104.71 791.48 100.39 790.47 96.28
  C 789.64 92.94 787.07 81.88 782.76 63.10
  C 782.61 62.42 782.19 62.15 781.50 62.30
  C 757.49 67.63 734.27 74.98 711.82 84.35
  C 694.01 91.78 678.05 100.77 663.94 111.32
  C 668.60 100.89 674.21 91.38 680.78 82.78
  C 703.71 52.77 733.54 33.04 770.26 23.59
  C 780.27 21.02 789.85 19.50 799.00 19.05
  C 806.56 18.68 814.89 18.79 823.99 19.36
  Z"
/>
<path d="
  M 928.94 72.50
  C 921.23 70.23 915.00 68.98 910.25 68.74
  C 901.36 68.28 892.68 68.18 884.19 68.44
  C 883.54 68.46 882.94 68.12 882.62 67.56
  C 877.16 57.99 870.64 49.12 863.05 40.94
  C 856.12 33.47 847.98 27.04 838.64 21.67
  C 846.29 22.90 853.90 24.85 861.48 27.52
  C 887.99 36.86 910.48 51.85 928.94 72.50
  Z"
/>
<path d="
  M 935.44 80.47
  C 952.54 102.38 963.31 127.24 967.74 155.04
  C 957.89 150.00 947.57 146.99 936.76 146.01
  C 928.21 145.23 919.84 144.80 911.65 144.73
  C 911.33 144.73 911.05 144.63 910.81 144.42
  C 910.01 143.73 909.51 142.84 909.30 141.75
  C 905.05 118.89 897.75 97.09 887.40 76.35
  C 887.29 76.14 887.44 75.88 887.68 75.87
  C 899.18 75.20 910.60 75.70 921.95 77.38
  C 925.68 77.93 930.18 78.96 935.44 80.47
  Z"
/>
<path d="
  M 968.78 164.47
  C 969.75 176.58 969.65 187.76 968.47 198.00
  C 967.27 208.47 964.68 219.66 960.71 231.56
  C 956.61 228.41 952.81 226.53 949.31 225.93
  C 945.13 225.22 941.32 224.35 937.19 224.12
  C 929.16 223.67 921.65 223.54 914.64 223.72
  C 914.27 223.73 914.09 223.56 914.12 223.19
  C 915.16 205.18 915.07 188.15 913.86 172.10
  C 913.40 166.09 912.10 159.40 911.54 153.43
  C 911.49 152.92 911.72 152.67 912.23 152.66
  C 924.36 152.47 936.25 153.44 947.89 155.57
  C 955.67 156.99 962.63 159.96 968.78 164.47
  Z"
/>
<path d="
  M 957.39 240.66
  C 941.98 276.63 917.07 303.70 882.66 321.88
  C 878.57 324.03 874.17 325.90 869.44 327.47
  C 877.39 320.65 884.04 312.97 889.39 304.42
  C 893.94 297.17 897.66 289.80 900.57 282.32
  C 906.31 267.55 910.21 252.30 912.28 236.55
  C 912.47 235.06 912.86 233.74 913.45 232.61
  C 913.61 232.30 913.86 232.14 914.21 232.14
  C 920.78 232.15 924.20 232.22 929.29 232.31
  C 934.02 232.39 939.04 233.01 944.35 234.18
  C 949.62 235.34 953.96 237.50 957.39 240.66
  Z"
/>
<path d="
  M 926.06 583.53
  C 926.41 582.47 926.41 581.63 926.06 581.01
  C 925.88 580.68 925.71 580.69 925.56 581.03
  L 924.27 583.91
  C 921.82 586.20 919.45 588.84 916.93 590.69
  C 911.84 594.40 906.20 596.98 900.02 598.42
  C 884.56 602.02 869.43 601.62 854.64 597.21
  C 846.09 594.66 838.59 590.35 832.13 584.26
  C 821.77 574.49 817.10 562.16 818.13 547.26
  C 819.14 532.83 825.73 522.22 837.91 515.44
  C 844.90 511.55 853.10 509.31 862.51 508.72
  C 870.92 508.19 886.34 507.75 908.77 507.38
  C 910.55 507.35 912.54 507.11 914.73 506.66
  C 916.81 506.23 918.56 505.39 919.99 504.16
  C 927.06 498.02 927.18 486.84 918.39 482.12
  C 916.55 481.13 914.24 480.41 911.45 479.94
  C 905.53 478.94 899.32 478.46 892.81 478.49
  C 878.02 478.56 841.92 478.65 784.50 478.77
  C 783.73 478.77 783.15 478.82 782.76 478.92
  C 781.97 479.11 781.41 479.77 781.41 480.50
  L 781.41 597.78
  C 781.41 598.39 780.91 598.89 780.29 598.89
  L 743.72 598.89
  C 742.79 598.89 742.03 598.14 742.03 597.21
  C 741.98 570.82 741.98 533.25 742.02 484.51
  C 742.03 482.70 741.80 481.04 741.35 479.54
  C 741.20 479.03 740.72 478.68 740.19 478.68
  C 732.19 478.68 726.88 478.64 724.25 478.57
  C 723.40 478.54 722.48 478.43 721.49 478.22
  C 720.89 478.10 720.45 477.57 720.45 476.95
  L 720.45 444.73
  C 720.45 443.81 721.20 443.07 722.12 443.07
  L 740.11 443.07
  C 741.13 443.07 741.95 442.24 741.95 441.22
  C 741.92 434.12 742.36 427.14 743.29 420.28
  C 744.45 411.75 746.98 403.77 752.19 396.92
  C 757.48 389.96 764.92 385.24 774.51 382.75
  C 781.44 380.96 788.28 379.89 795.03 379.56
  C 805.54 379.04 816.83 378.95 828.91 379.30
  C 830.03 379.33 830.59 379.91 830.59 381.03
  L 830.59 412.88
  C 830.59 413.93 829.75 414.77 828.70 414.78
  C 817.27 414.79 809.19 414.36 799.49 415.69
  C 793.06 416.58 786.86 419.50 784.24 425.93
  C 782.31 430.64 781.46 435.71 781.67 441.13
  C 781.71 442.22 782.60 443.08 783.69 443.08
  C 856.47 443.06 898.31 443.06 909.22 443.09
  C 917.07 443.11 925.43 444.33 934.28 446.76
  C 948.35 450.61 957.61 459.27 962.05 472.72
  C 964.60 480.46 965.89 488.98 965.90 498.28
  C 965.97 540.66 965.97 573.91 965.91 598.02
  C 965.90 598.66 965.39 599.17 964.76 599.17
  L 927.81 599.17
  C 926.70 599.17 926.14 598.61 926.13 597.50
  L 926.06 583.53
  Z
  M 923.80 533.60
  C 919.70 534.30 915.10 534.70 910.00 534.79
  C 907.52 534.84 897.85 534.99 881.00 535.24
  C 874.67 535.34 865.51 536.38 861.42 541.13
  C 856.48 546.87 857.36 555.85 861.48 561.53
  C 865.78 567.45 874.34 570.60 881.77 571.02
  C 890.56 571.51 898.24 571.06 906.51 567.85
  C 920.39 562.46 925.93 549.33 926.01 535.47
  C 926.02 533.97 925.29 533.35 923.80 533.60
  Z"
/>
<path d="
  M 128.60 537.08
  C 128.69 540.15 129.86 543.06 131.21 546.31
  C 135.17 555.86 142.46 561.63 153.07 563.63
  C 161.15 565.16 169.11 565.16 176.94 563.63
  C 183.25 562.40 188.79 559.53 193.54 555.02
  C 194.47 554.13 196.23 553.71 198.81 553.76
  C 201.87 553.81 214.17 553.87 235.70 553.93
  C 237.49 553.94 238.11 554.79 237.58 556.50
  C 232.33 573.26 221.95 585.33 206.45 592.72
  C 201.72 594.97 194.56 597.17 188.71 598.22
  C 173.14 601.03 157.57 601.04 142.02 598.24
  C 132.95 596.61 124.82 593.65 117.63 589.36
  C 103.57 580.97 95.00 567.34 91.01 551.58
  C 89.33 544.93 88.34 538.58 88.03 532.55
  C 87.82 528.28 87.76 521.89 87.86 513.40
  C 87.95 505.70 88.53 499.33 89.60 494.29
  C 91.83 483.74 95.55 474.67 100.76 467.07
  C 110.65 452.67 127.05 444.97 144.32 442.32
  C 160.47 439.84 176.26 440.22 191.68 443.45
  C 195.35 444.22 199.41 445.50 203.87 447.29
  C 218.39 453.12 228.73 463.06 234.88 477.12
  C 236.53 480.88 237.95 484.94 239.16 489.29
  C 240.36 493.60 241.19 497.81 241.65 501.91
  C 242.82 512.40 242.94 522.78 242.02 533.03
  C 241.92 534.15 240.98 535.01 239.85 535.01
  C 185.58 534.99 150.30 534.98 134.00 534.99
  C 132.43 534.99 131.06 535.12 129.90 535.39
  C 129.12 535.57 128.58 536.28 128.60 537.08
  Z
  M 128.68 507.48
  L 201.36 507.60
  C 201.50 507.60 201.61 507.49 201.61 507.35
  L 201.61 506.97
  C 201.64 490.23 187.80 476.64 170.69 476.61
  L 159.47 476.59
  C 142.36 476.56 128.46 490.11 128.43 506.85
  L 128.43 507.23
  C 128.43 507.36 128.54 507.48 128.68 507.48
  Z"
/>
<path d="
  M 627.02 440.71
  C 633.15 440.71 639.83 441.23 647.07 442.26
  C 664.38 444.72 680.43 452.43 690.38 465.97
  C 701.85 481.58 704.62 501.85 704.59 520.69
  C 704.56 539.52 701.73 559.79 690.21 575.36
  C 680.22 588.87 664.15 596.53 646.83 598.94
  C 639.59 599.95 632.91 600.44 626.78 600.43
  C 620.65 600.42 613.96 599.91 606.73 598.88
  C 589.42 596.42 573.37 588.71 563.42 575.17
  C 551.95 559.56 549.18 539.29 549.21 520.45
  C 549.24 501.61 552.07 481.35 563.58 465.78
  C 573.58 452.27 589.65 444.61 606.97 442.20
  C 614.20 441.19 620.89 440.70 627.02 440.71
  Z
  M 588.66 520.56
  C 588.66 534.44 590.75 551.26 603.77 559.37
  C 610.58 563.62 618.52 564.67 626.90 564.66
  C 635.29 564.67 643.23 563.62 650.04 559.36
  C 663.05 551.25 665.14 534.43 665.13 520.55
  C 665.13 506.67 663.04 489.85 650.02 481.74
  C 643.21 477.49 635.27 476.44 626.89 476.44
  C 618.51 476.44 610.57 477.49 603.76 481.74
  C 590.74 489.86 588.66 506.68 588.66 520.56
  Z"
/>
<path d="
  M 306.24 444.87
  C 306.38 445.44 306.45 446.24 306.46 447.27
  C 306.55 473.76 306.58 499.02 306.55 523.03
  C 306.54 526.44 307.05 531.28 308.06 537.57
  C 309.08 543.94 311.43 549.26 315.11 553.54
  C 321.21 560.65 331.06 563.12 340.26 562.66
  C 354.16 561.96 364.31 554.64 367.82 540.58
  C 369.19 535.08 369.88 529.30 369.89 523.25
  C 369.91 480.02 369.92 453.52 369.92 443.73
  C 369.92 443.35 370.22 443.04 370.60 443.04
  L 408.45 443.04
  C 408.86 443.04 409.20 443.38 409.20 443.79
  C 409.24 491.74 409.23 522.47 409.18 535.99
  C 409.15 543.64 407.87 551.32 405.33 559.02
  C 403.13 565.71 399.95 571.51 395.78 576.42
  C 387.77 585.86 377.79 592.16 365.86 595.33
  C 350.95 599.29 335.61 599.98 319.84 597.39
  C 312.71 596.22 306.35 594.34 300.78 591.75
  C 283.59 583.78 272.90 569.99 268.70 550.37
  C 267.66 545.52 267.13 538.90 267.10 530.51
  C 266.99 498.35 266.98 470.08 267.08 445.69
  C 267.09 443.93 267.97 443.05 269.73 443.05
  L 303.92 443.05
  C 305.02 443.05 305.98 443.80 306.24 444.87
  Z"
/>
<path d="
  M 439.81 501.75
  C 439.83 494.81 440.57 486.40 441.90 479.39
  C 443.53 470.75 447.28 463.33 453.14 457.14
  C 459.89 450.02 470.24 446.45 480.52 444.80
  C 487.99 443.61 495.07 443.02 501.76 443.03
  C 521.31 443.08 532.20 443.12 534.42 443.15
  C 535.19 443.16 535.81 443.78 535.81 444.54
  L 535.81 476.54
  C 535.81 477.77 534.81 478.76 533.58 478.75
  C 521.90 478.67 512.54 478.69 505.51 478.82
  C 501.47 478.89 497.45 479.43 493.46 480.42
  C 479.48 483.90 479.22 497.98 479.26 509.58
  C 479.33 531.83 479.33 559.47 479.28 592.51
  C 479.27 595.06 479.24 596.95 479.17 598.18
  C 479.15 598.59 478.81 598.91 478.40 598.90
  C 465.13 598.87 453.66 598.87 444.00 598.92
  C 442.37 598.93 441.16 598.81 440.37 598.56
  C 440.03 598.45 439.79 598.14 439.79 597.78
  C 439.75 564.42 439.76 532.41 439.81 501.75
  Z"
/>
<path d="
  M 1039.49 598.89
  L 1003.00 598.89
  C 1002.03 598.89 1001.54 598.40 1001.53 597.43
  C 1001.44 576.14 1001.43 544.92 1001.51 503.76
  C 1001.52 497.18 1001.83 490.76 1002.43 484.49
  C 1002.78 480.84 1003.72 476.85 1005.24 472.50
  C 1009.49 460.31 1017.42 452.15 1029.03 448.02
  C 1037.29 445.08 1046.71 443.47 1057.29 443.19
  C 1067.76 442.90 1080.44 442.91 1095.33 443.21
  C 1096.53 443.24 1097.13 443.85 1097.13 445.05
  L 1097.13 475.72
  C 1097.13 477.32 1095.84 478.61 1094.24 478.61
  C 1085.01 478.61 1076.19 478.64 1067.76 478.69
  C 1056.64 478.75 1044.84 480.91 1042.03 493.79
  C 1041.26 497.29 1040.88 501.29 1040.89 505.78
  C 1040.97 560.19 1041.00 590.73 1040.98 597.40
  C 1040.98 598.22 1040.31 598.89 1039.49 598.89
  Z"
/>
<path d="
  M 1237.96 457.89
  C 1238.58 457.89 1239.04 457.78 1239.35 457.55
  C 1248.80 450.56 1259.40 446.17 1271.14 444.38
  C 1283.65 442.47 1296.18 442.54 1308.73 444.60
  C 1314.46 445.54 1319.80 447.08 1324.75 449.22
  C 1341.18 456.33 1351.93 468.11 1356.98 484.56
  C 1359.19 491.77 1360.31 499.75 1360.34 508.52
  C 1360.39 527.93 1360.41 556.50 1360.41 594.25
  C 1360.41 595.52 1360.35 596.54 1360.23 597.30
  C 1360.09 598.18 1359.34 598.84 1358.44 598.85
  C 1348.62 598.93 1337.55 598.94 1325.22 598.88
  C 1324.13 598.87 1323.21 598.81 1322.46 598.68
  C 1321.39 598.51 1320.85 597.87 1320.85 596.78
  C 1320.85 549.08 1320.83 522.82 1320.78 518.01
  C 1320.61 498.54 1315.08 481.01 1292.29 479.28
  C 1286.06 478.81 1280.12 479.76 1274.47 482.13
  C 1261.80 487.47 1257.90 502.60 1257.85 515.25
  C 1257.77 534.96 1257.76 562.30 1257.83 597.27
  C 1257.83 598.13 1257.14 598.83 1256.29 598.84
  C 1251.93 598.88 1245.82 598.90 1237.96 598.90
  C 1230.09 598.90 1223.98 598.88 1219.62 598.84
  C 1218.77 598.83 1218.08 598.13 1218.08 597.27
  C 1218.15 562.30 1218.15 534.96 1218.07 515.25
  C 1218.02 502.60 1214.12 487.47 1201.45 482.13
  C 1195.80 479.75 1189.86 478.80 1183.63 479.28
  C 1160.84 481.00 1155.31 498.53 1155.14 518.00
  C 1155.09 522.82 1155.07 549.07 1155.06 596.77
  C 1155.06 597.87 1154.53 598.50 1153.45 598.67
  C 1152.70 598.80 1151.78 598.87 1150.69 598.87
  C 1138.37 598.93 1127.29 598.92 1117.47 598.84
  C 1116.58 598.83 1115.82 598.18 1115.68 597.29
  C 1115.56 596.53 1115.50 595.52 1115.50 594.24
  C 1115.51 556.50 1115.53 527.92 1115.58 508.51
  C 1115.61 499.75 1116.73 491.76 1118.94 484.55
  C 1124.00 468.11 1134.74 456.33 1151.17 449.21
  C 1156.13 447.07 1161.47 445.53 1167.19 444.60
  C 1179.75 442.54 1192.28 442.46 1204.78 444.38
  C 1216.52 446.17 1227.12 450.56 1236.57 457.55
  C 1236.88 457.78 1237.34 457.89 1237.96 457.89
  Z"
/>
<path d="
  M 1490.97 583.46
  C 1491.34 582.64 1491.46 581.85 1491.34 581.09
  C 1491.29 580.71 1491.11 580.65 1490.82 580.90
  C 1490.25 581.39 1489.94 582.17 1489.88 583.22
  C 1482.65 591.71 1473.45 597.01 1462.29 599.14
  C 1444.41 602.55 1424.00 601.09 1408.14 592.34
  C 1395.02 585.09 1385.20 572.50 1383.41 557.34
  C 1382.05 545.89 1384.37 533.46 1391.75 524.46
  C 1400.88 513.32 1416.43 509.16 1430.25 508.52
  C 1438.16 508.15 1452.57 507.70 1473.50 507.15
  C 1475.75 507.09 1477.10 507.05 1477.55 507.02
  C 1479.10 506.95 1480.40 506.68 1481.45 506.22
  C 1488.14 503.26 1490.92 497.85 1489.81 489.99
  C 1489.01 484.32 1482.19 480.83 1476.92 479.98
  C 1470.83 478.99 1464.87 478.53 1459.03 478.60
  C 1455.72 478.63 1454.03 478.65 1453.95 478.65
  C 1447.14 478.65 1428.60 478.64 1398.32 478.63
  C 1397.37 478.63 1396.89 478.15 1396.89 477.19
  L 1396.89 444.22
  C 1396.89 443.61 1397.38 443.11 1397.99 443.10
  C 1431.37 443.04 1456.80 443.04 1474.27 443.11
  C 1482.17 443.14 1490.52 444.35 1499.32 446.74
  C 1512.87 450.42 1522.04 458.80 1526.84 471.87
  C 1528.90 477.47 1530.14 483.80 1530.57 490.86
  C 1530.70 493.04 1530.78 499.47 1530.80 510.14
  C 1530.85 535.01 1530.85 564.34 1530.82 598.11
  C 1530.82 598.70 1530.35 599.17 1529.77 599.17
  L 1492.56 599.17
  C 1491.93 599.17 1491.42 598.67 1491.40 598.04
  L 1490.97 583.46
  Z
  M 1489.48 533.62
  C 1484.46 534.04 1480.70 534.90 1476.13 534.93
  C 1463.23 535.00 1452.52 535.12 1444.00 535.28
  C 1440.97 535.34 1437.42 535.95 1433.35 537.11
  C 1427.12 538.88 1423.35 543.46 1423.22 550.07
  C 1423.03 560.00 1429.22 566.62 1438.42 569.46
  C 1441.87 570.52 1446.04 571.10 1450.93 571.21
  C 1459.30 571.39 1466.60 570.09 1472.83 567.31
  C 1484.76 561.99 1490.12 550.89 1491.02 538.01
  C 1491.11 536.66 1490.97 535.44 1490.60 534.35
  C 1490.44 533.88 1489.98 533.58 1489.48 533.62
  Z"
/>
<path d="
  M 591.01 738.60
  C 591.48 737.93 591.70 737.16 591.66 736.29
  C 591.63 735.46 591.35 735.36 590.82 736.01
  C 590.22 736.74 589.64 737.77 589.07 739.11
  C 585.03 744.11 579.85 746.67 573.54 746.78
  C 566.82 746.90 560.35 745.34 555.58 740.39
  C 547.53 732.05 547.07 716.91 549.55 706.30
  C 551.48 698.01 556.25 691.52 564.61 689.31
  C 571.25 687.55 577.90 687.99 583.87 691.93
  C 584.72 692.49 586.44 693.62 589.03 695.32
  C 589.44 695.59 589.98 695.29 589.98 694.80
  C 589.91 685.56 589.92 676.63 589.99 668.00
  C 589.99 667.63 590.10 666.87 590.31 665.72
  C 590.37 665.38 590.55 665.14 590.86 664.99
  C 591.21 664.82 592.01 664.74 593.25 664.74
  C 596.74 664.74 599.31 664.39 599.31 668.50
  C 599.31 688.39 599.30 713.06 599.29 742.50
  C 599.28 743.34 599.18 744.05 598.97 744.63
  C 598.86 744.95 598.64 745.18 598.32 745.31
  C 596.89 745.89 595.26 746.09 593.43 745.90
  C 593.10 745.87 592.89 745.69 592.80 745.36
  L 591.01 738.60
  Z
  M 557.56 717.95
  C 557.75 728.59 561.10 739.88 574.12 739.65
  C 587.14 739.42 590.09 728.02 589.90 717.38
  C 589.72 706.74 586.37 695.45 573.34 695.68
  C 560.32 695.91 557.37 707.31 557.56 717.95
  Z"
/>
<rect x="-4.80" y="-5.01" transform="translate(529.24,671.99) rotate(0.1)" width="9.60" height="10.02" rx="2.09"/>
<path d="
  M 274.26 704.52
  C 274.22 708.32 277.89 710.57 281.47 711.56
  C 290.17 713.96 295.29 715.42 296.84 715.94
  C 303.41 718.17 307.07 722.58 307.82 729.19
  C 308.62 736.36 304.21 742.64 297.29 745.21
  C 295.23 745.97 292.33 746.46 288.59 746.69
  C 282.12 747.07 275.26 745.85 270.12 741.63
  C 266.39 738.58 264.45 734.73 264.30 730.10
  C 264.29 729.76 264.55 729.49 264.88 729.48
  C 267.09 729.42 270.22 728.92 271.62 730.05
  C 271.93 730.30 272.28 730.83 272.69 731.66
  C 274.87 736.05 278.46 738.68 283.46 739.53
  C 287.87 740.28 295.11 739.42 297.79 735.38
  C 299.96 732.11 300.07 727.50 296.62 725.01
  C 295.31 724.06 293.90 723.35 292.39 722.87
  C 290.28 722.21 285.89 721.03 279.20 719.34
  C 276.39 718.63 271.96 716.61 269.77 714.49
  C 266.08 710.90 264.90 706.31 266.21 700.72
  C 268.35 691.64 277.15 688.42 285.70 688.37
  C 292.27 688.33 298.94 689.69 303.24 694.48
  C 305.60 697.12 306.59 700.27 306.21 703.92
  C 306.18 704.27 305.99 704.47 305.65 704.52
  C 303.73 704.83 301.73 704.73 299.66 704.21
  C 299.32 704.12 299.06 703.93 298.89 703.63
  C 297.01 700.40 296.07 697.96 292.09 696.40
  C 285.91 693.98 274.36 695.61 274.26 704.52
  Z"
/>
<path d="
  M 418.95 738.78
  C 419.26 737.90 419.27 737.23 418.99 736.77
  C 418.78 736.43 418.56 736.42 418.31 736.73
  C 417.95 737.18 417.71 737.74 417.58 738.43
  C 415.03 741.21 413.22 742.89 412.15 743.46
  C 406.90 746.26 401.43 747.27 395.75 746.49
  C 390.82 745.81 387.12 744.00 384.67 741.06
  C 381.75 737.57 380.58 733.16 381.16 727.83
  C 381.87 721.34 385.33 716.90 391.55 714.51
  C 395.34 713.06 399.01 712.26 402.57 712.12
  C 409.01 711.88 413.30 711.65 415.44 711.44
  C 416.52 711.33 417.43 711.00 418.16 710.44
  C 418.42 710.24 418.56 709.98 418.57 709.65
  C 418.88 700.24 414.47 695.50 405.35 695.41
  C 400.96 695.37 395.79 697.17 393.60 701.16
  C 393.25 701.79 392.83 702.52 392.33 703.35
  C 390.87 705.76 388.03 705.59 385.53 704.81
  C 384.60 704.52 384.01 703.61 384.12 702.64
  C 384.92 695.60 390.29 691.00 397.09 689.44
  C 410.47 686.38 427.04 689.09 427.27 706.04
  C 427.39 714.46 427.41 727.11 427.34 744.00
  C 427.33 745.22 426.72 745.83 425.50 745.83
  L 421.57 745.83
  C 420.30 745.83 419.61 745.20 419.48 743.94
  L 418.95 738.78
  Z
  M 418.76 721.25
  C 418.71 720.17 418.67 719.55 418.62 719.39
  C 418.45 718.82 418.03 718.43 417.36 718.20
  C 416.73 717.98 415.53 717.87 413.75 717.86
  C 407.41 717.83 401.92 717.73 396.54 720.02
  C 392.09 721.92 389.66 725.51 390.07 730.43
  C 390.61 736.84 395.66 739.89 401.74 739.85
  C 406.04 739.82 409.96 738.37 413.49 735.50
  C 418.36 731.55 419.02 727.31 418.76 721.25
  Z"
/>
<path d="
  M 651.01 738.33
  C 650.91 738.49 650.72 738.56 650.43 738.54
  C 650.08 738.53 649.77 738.65 649.52 738.90
  C 641.75 746.87 632.49 748.81 621.74 744.70
  C 617.87 743.22 615.20 740.08 613.73 735.28
  C 612.42 730.97 612.71 726.72 614.61 722.55
  C 619.73 711.30 635.95 711.90 646.37 711.66
  C 648.10 711.61 649.40 711.21 650.28 710.44
  C 650.53 710.22 650.67 709.90 650.67 709.58
  C 650.67 708.41 650.52 706.80 650.21 704.77
  C 648.65 694.40 636.01 693.52 628.80 697.84
  C 626.41 699.28 625.59 701.25 624.11 704.09
  C 623.75 704.78 623.03 705.22 622.24 705.22
  L 617.54 705.22
  C 616.90 705.22 616.36 704.75 616.27 704.12
  C 616.06 702.71 616.27 701.20 616.90 699.59
  C 619.15 693.80 623.72 690.30 630.63 689.08
  C 643.41 686.82 659.25 689.39 659.31 706.00
  C 659.36 720.71 659.37 732.97 659.34 742.76
  C 659.33 744.55 658.56 745.55 657.02 745.76
  C 655.61 745.96 654.25 745.88 652.93 745.53
  C 652.59 745.44 652.37 745.23 652.27 744.90
  C 651.60 742.67 651.30 740.56 651.38 738.55
  C 651.40 738.00 651.28 737.92 651.01 738.33
  Z
  M 638.54 717.98
  C 633.89 718.10 626.39 719.66 623.70 723.97
  C 622.25 726.29 621.74 728.64 622.15 731.03
  C 623.12 736.54 626.76 739.46 633.09 739.78
  C 639.16 740.08 644.25 737.68 648.35 732.57
  C 651.16 729.07 650.81 724.27 650.64 719.63
  C 650.61 718.70 649.87 717.95 648.94 717.90
  C 647.31 717.81 643.85 717.84 638.54 717.98
  Z"
/>
<path d="
  M 1028.12 739.80
  C 1028.12 737.48 1027.34 737.18 1025.79 738.91
  C 1023.14 741.87 1020.41 743.90 1017.60 745.00
  C 1009.77 748.05 997.68 747.61 992.32 739.74
  C 988.50 734.12 988.70 725.24 992.92 719.58
  C 996.54 714.72 1004.69 712.44 1010.44 712.17
  C 1018.84 711.77 1024.03 711.52 1026.02 711.42
  C 1026.49 711.40 1026.86 711.04 1026.91 710.58
  C 1027.93 700.57 1023.59 695.54 1013.90 695.50
  C 1008.14 695.47 1004.04 697.74 1001.59 702.30
  C 1000.76 703.85 999.95 704.75 999.18 705.00
  C 998.05 705.38 996.59 705.43 994.81 705.16
  C 993.08 704.90 992.44 703.80 992.88 701.86
  C 994.26 695.83 998.02 691.84 1004.15 689.90
  C 1009.74 688.13 1015.66 687.86 1021.93 689.11
  C 1032.13 691.14 1036.02 698.12 1036.05 708.00
  C 1036.08 720.23 1036.07 732.14 1036.00 743.74
  C 1035.99 745.14 1035.29 745.84 1033.89 745.84
  L 1030.24 745.84
  C 1028.83 745.84 1028.12 745.13 1028.12 743.72
  L 1028.12 739.80
  Z
  M 1015.28 717.98
  C 1010.02 718.15 1002.44 719.52 999.77 724.65
  C 995.72 732.45 1001.62 739.89 1009.82 739.86
  C 1015.01 739.85 1019.53 738.04 1023.40 734.45
  C 1027.58 730.56 1027.32 725.46 1027.11 719.91
  C 1027.06 718.85 1026.23 718.00 1025.17 717.94
  C 1023.07 717.82 1019.77 717.83 1015.28 717.98
  Z"
/>
<path d="
  M 1210.28 699.53
  C 1206.70 704.76 1209.24 709.39 1214.87 711.24
  C 1215.61 711.48 1220.91 712.99 1230.77 715.76
  C 1236.75 717.45 1241.47 722.27 1242.04 728.49
  C 1242.50 733.46 1241.28 737.58 1238.37 740.87
  C 1232.13 747.91 1217.31 747.90 1209.60 744.72
  C 1203.80 742.33 1200.13 738.11 1198.58 732.05
  C 1198.20 730.57 1198.77 729.71 1200.28 729.48
  C 1201.93 729.22 1203.63 729.27 1205.39 729.64
  C 1205.74 729.72 1206.03 729.94 1206.19 730.26
  C 1209.81 737.65 1215.69 740.73 1223.83 739.50
  C 1226.46 739.11 1228.45 738.51 1229.82 737.71
  C 1231.89 736.50 1233.13 734.65 1233.53 732.15
  C 1234.62 725.37 1229.19 723.29 1223.58 721.94
  C 1219.36 720.93 1215.82 719.97 1212.95 719.08
  C 1209.24 717.92 1204.46 715.89 1202.37 712.30
  C 1199.86 707.99 1199.49 703.50 1201.26 698.81
  C 1202.82 694.69 1205.55 691.90 1209.44 690.44
  C 1215.79 688.06 1222.25 687.70 1228.81 689.37
  C 1234.80 690.89 1239.43 694.42 1240.61 700.63
  C 1240.82 701.72 1240.77 702.78 1240.48 703.81
  C 1240.39 704.11 1240.15 704.33 1239.85 704.40
  C 1238.08 704.79 1236.22 704.74 1234.27 704.27
  C 1233.94 704.19 1233.68 704.01 1233.48 703.73
  C 1230.74 699.85 1229.82 696.90 1223.85 695.70
  C 1219.61 694.84 1212.87 695.74 1210.28 699.53
  Z"
/>
<path d="
  M 1262.94 703.44
  C 1262.66 705.43 1263.19 707.13 1264.53 708.53
  C 1265.66 709.72 1267.22 710.61 1269.21 711.22
  C 1269.39 711.27 1274.69 712.87 1285.10 716.01
  C 1292.10 718.12 1295.88 722.70 1296.43 729.73
  C 1296.64 732.39 1295.99 735.20 1294.48 738.16
  C 1291.68 743.66 1284.84 746.20 1278.50 746.61
  C 1268.31 747.26 1258.54 744.95 1253.93 735.57
  C 1253.22 734.13 1252.88 732.67 1252.90 731.19
  C 1252.92 730.18 1253.74 729.37 1254.75 729.37
  L 1258.30 729.37
  C 1259.32 729.37 1260.26 729.93 1260.75 730.83
  C 1263.25 735.50 1266.32 738.49 1271.78 739.47
  C 1276.77 740.38 1284.54 739.53 1287.10 734.37
  C 1288.46 731.62 1288.15 728.71 1286.16 725.63
  C 1285.53 724.66 1283.89 723.80 1281.24 723.06
  C 1272.36 720.57 1267.78 719.29 1267.51 719.20
  C 1258.47 716.26 1252.67 711.38 1254.89 700.84
  C 1255.45 698.17 1256.66 695.83 1258.53 693.84
  C 1265.93 685.97 1285.26 686.80 1292.10 694.72
  C 1294.07 697.01 1295.05 700.07 1295.02 703.90
  C 1295.02 704.25 1294.85 704.46 1294.50 704.52
  C 1293.64 704.67 1292.32 704.72 1290.55 704.68
  C 1287.52 704.61 1287.24 703.02 1285.79 700.76
  C 1283.78 697.62 1280.81 695.85 1276.86 695.45
  C 1272.42 695.00 1268.56 696.03 1265.29 698.54
  C 1264.04 699.49 1263.26 701.13 1262.94 703.44
  Z"
/>
<path d="
  M 1345.97 738.58
  C 1346.20 737.90 1346.22 737.31 1346.04 736.80
  C 1345.90 736.40 1345.67 736.34 1345.36 736.63
  C 1345.03 736.94 1344.81 737.57 1344.72 738.50
  C 1339.87 744.25 1333.55 747.04 1325.74 746.85
  C 1321.32 746.74 1317.40 745.49 1313.98 743.08
  C 1310.93 740.93 1309.09 737.78 1308.47 733.64
  C 1307.02 723.97 1310.62 717.51 1319.25 714.26
  C 1322.50 713.04 1325.90 712.34 1329.44 712.17
  C 1338.13 711.74 1343.23 711.48 1344.76 711.38
  C 1345.26 711.35 1345.65 710.96 1345.70 710.47
  C 1345.88 708.46 1345.73 706.39 1345.24 704.26
  C 1343.18 695.20 1332.85 693.71 1325.62 696.87
  C 1321.92 698.49 1320.72 701.32 1318.87 704.11
  C 1318.67 704.40 1318.39 704.63 1318.06 704.75
  C 1316.73 705.25 1314.97 705.39 1312.79 705.17
  C 1311.84 705.07 1311.35 704.55 1311.32 703.60
  C 1311.23 701.45 1311.77 699.39 1312.93 697.43
  C 1315.46 693.16 1319.35 690.46 1324.61 689.31
  C 1330.75 687.97 1336.62 688.04 1342.23 689.52
  C 1347.45 690.91 1351.29 694.06 1353.10 699.26
  C 1354.17 702.34 1354.71 705.51 1354.72 708.76
  C 1354.75 719.35 1354.71 730.97 1354.59 743.61
  C 1354.58 744.82 1353.60 745.80 1352.39 745.80
  L 1348.86 745.80
  C 1347.55 745.80 1346.82 745.15 1346.65 743.85
  L 1345.97 738.58
  Z
  M 1341.26 734.99
  C 1345.97 730.68 1345.98 726.26 1345.84 720.00
  C 1345.82 718.91 1344.96 718.03 1343.87 717.98
  C 1339.20 717.77 1334.97 717.83 1331.17 718.15
  C 1328.82 718.35 1326.23 719.02 1323.42 720.16
  C 1319.13 721.90 1317.06 725.13 1317.21 729.86
  C 1317.32 733.34 1318.51 735.88 1320.79 737.49
  C 1326.90 741.77 1335.90 739.90 1341.26 734.99
  Z"
/>
<path d="
  M 711.71 694.33
  C 711.76 694.68 712.17 694.84 712.45 694.62
  C 715.08 692.49 716.78 690.80 719.62 689.82
  C 728.61 686.71 736.47 688.59 743.20 695.46
  C 743.63 695.89 744.33 695.89 744.76 695.46
  C 750.43 689.71 757.22 687.49 765.13 688.80
  C 776.64 690.70 779.54 700.43 779.77 710.56
  C 779.81 712.35 779.82 723.14 779.80 742.93
  C 779.80 744.87 778.83 745.84 776.89 745.84
  L 773.49 745.84
  C 771.55 745.84 770.58 744.87 770.58 742.92
  C 770.62 730.21 770.61 719.58 770.55 711.01
  C 770.51 705.58 768.97 698.66 763.08 696.89
  C 759.66 695.87 756.19 696.03 752.67 697.38
  C 745.94 699.96 745.01 706.25 745.24 712.82
  C 745.31 714.95 745.32 725.41 745.27 744.20
  C 745.27 745.33 744.71 745.89 743.58 745.89
  L 737.98 745.89
  C 736.78 745.89 736.18 745.29 736.19 744.09
  C 736.28 723.10 736.27 710.38 736.15 705.93
  C 736.06 702.76 734.50 700.20 731.48 698.25
  C 728.11 696.07 724.43 695.57 720.46 696.74
  C 714.32 698.55 711.37 702.73 711.60 709.28
  C 711.60 709.31 711.59 720.70 711.56 743.47
  C 711.56 744.82 710.89 745.57 709.54 745.72
  C 707.89 745.89 706.21 745.91 704.51 745.78
  C 703.20 745.68 702.55 744.97 702.55 743.66
  L 702.55 691.14
  C 702.55 690.31 702.95 689.78 703.75 689.55
  C 705.37 689.10 707.36 688.96 709.73 689.13
  C 710.08 689.16 710.33 689.33 710.48 689.65
  C 711.05 690.88 711.46 692.44 711.71 694.33
  Z"
/>
<path d="
  M 817.47 688.47
  C 835.14 688.52 842.78 701.39 842.73 717.66
  C 842.68 733.93 834.97 746.76 817.30 746.71
  C 799.63 746.66 791.99 733.79 792.04 717.52
  C 792.08 701.24 799.80 688.42 817.47 688.47
  Z
  M 801.16 717.67
  C 801.21 728.07 804.92 739.43 817.51 739.38
  C 830.09 739.33 833.71 727.93 833.67 717.53
  C 833.62 707.13 829.91 695.77 817.33 695.82
  C 804.74 695.88 801.12 707.27 801.16 717.67
  Z"
/>
<path d="
  M 914.92 719.86
  C 913.97 719.86 913.49 720.34 913.48 721.29
  C 913.43 733.27 922.41 742.01 934.61 738.85
  C 939.68 737.53 942.35 734.69 944.68 730.39
  C 945.04 729.72 945.74 729.31 946.50 729.31
  L 951.71 729.31
  C 952.13 729.31 952.47 729.63 952.50 730.04
  C 953.01 737.57 944.74 743.77 938.33 745.60
  C 932.82 747.17 927.34 747.13 921.89 745.50
  C 914.68 743.35 909.72 739.16 907.00 732.95
  C 904.43 727.07 903.47 720.69 904.14 713.82
  C 905.28 702.13 910.65 692.13 922.49 689.25
  C 930.00 687.42 939.63 688.40 945.49 693.83
  C 949.11 697.18 951.48 701.36 952.60 706.36
  C 953.57 710.70 954.04 714.70 953.99 718.35
  C 953.98 719.19 953.31 719.86 952.47 719.86
  L 914.92 719.86
  Z
  M 915.27 713.32
  L 943.19 713.18
  C 944.10 713.17 944.84 712.42 944.84 711.51
  L 944.83 711.02
  C 944.79 702.47 937.90 695.58 929.45 695.63
  L 928.81 695.63
  C 920.36 695.68 913.55 702.64 913.60 711.18
  L 913.60 711.67
  C 913.60 712.59 914.35 713.33 915.27 713.32
  Z"
/>
<path d="
  M 1163.20 688.43
  C 1180.95 688.49 1188.45 701.43 1188.40 717.66
  C 1188.34 733.89 1180.75 746.78 1162.99 746.71
  C 1145.24 746.65 1137.74 733.71 1137.80 717.48
  C 1137.86 701.25 1145.45 688.36 1163.20 688.43
  Z
  M 1146.82 717.59
  C 1146.80 727.99 1150.56 739.37 1163.10 739.39
  C 1175.64 739.41 1179.43 728.04 1179.45 717.64
  C 1179.47 707.24 1175.71 695.86 1163.17 695.84
  C 1150.63 695.82 1146.83 707.18 1146.82 717.59
  Z"
/>
<path d="
  M 1088.26 694.46
  C 1087.73 694.55 1087.53 694.88 1087.67 695.47
  C 1087.96 696.68 1088.40 696.74 1088.98 695.64
  C 1089.03 695.53 1089.16 695.18 1089.35 694.58
  C 1095.04 689.51 1101.83 687.65 1109.74 689.01
  C 1117.66 690.37 1122.58 695.00 1124.50 702.90
  C 1125.01 705.00 1125.30 707.64 1125.37 710.83
  C 1125.41 712.80 1125.43 723.75 1125.44 743.67
  C 1125.44 745.12 1124.71 745.85 1123.26 745.85
  L 1118.92 745.85
  C 1117.20 745.85 1116.34 744.99 1116.35 743.27
  C 1116.37 723.96 1116.35 713.29 1116.30 711.26
  C 1116.25 709.29 1115.93 707.19 1115.35 704.96
  C 1112.57 694.36 1099.48 694.53 1092.30 699.58
  C 1089.65 701.45 1088.25 704.26 1088.10 708.01
  C 1088.01 710.16 1087.97 722.34 1088.00 744.54
  C 1088.00 745.46 1087.54 745.92 1086.62 745.92
  L 1080.40 745.92
  C 1079.43 745.92 1078.95 745.44 1078.95 744.48
  L 1078.95 690.48
  C 1078.95 689.73 1079.56 689.12 1080.31 689.12
  L 1086.18 689.12
  C 1086.53 689.12 1086.84 689.35 1086.93 689.69
  L 1088.26 694.46
  Z"
/>
<path d="
  M 359.62 740.36
  C 360.35 739.68 360.47 738.79 359.96 737.68
  C 359.81 737.35 359.60 737.31 359.35 737.58
  C 358.84 738.11 358.63 738.82 358.70 739.69
  C 357.91 740.40 357.14 741.14 356.39 741.91
  C 353.30 745.08 348.88 746.65 344.52 746.71
  C 338.41 746.80 333.56 745.75 329.97 743.56
  C 323.10 739.37 321.51 733.22 321.22 725.26
  C 321.07 721.27 321.04 709.99 321.15 691.43
  C 321.16 689.90 321.93 689.13 323.47 689.13
  L 327.89 689.13
  C 329.58 689.13 330.42 689.97 330.42 691.66
  C 330.43 702.19 330.43 712.56 330.43 722.75
  C 330.43 724.40 330.64 726.75 331.06 729.80
  C 331.59 733.60 333.89 736.38 337.98 738.15
  C 344.97 741.17 355.26 739.07 357.86 731.11
  C 358.56 728.96 358.91 726.25 358.90 723.00
  C 358.87 711.37 358.88 700.81 358.95 691.34
  C 358.96 689.85 359.70 689.11 361.19 689.11
  L 365.94 689.11
  C 367.40 689.11 368.13 689.84 368.13 691.29
  L 368.13 743.96
  C 368.13 744.56 367.77 745.11 367.22 745.37
  C 365.81 746.02 363.06 746.06 361.65 745.41
  C 361.00 745.11 360.62 744.48 360.50 743.51
  C 360.39 742.62 360.09 741.57 359.62 740.36
  Z"
/>
<path d="
  M 487.90 733.07
  C 487.83 733.75 487.94 734.22 488.22 734.49
  C 488.52 734.78 488.74 734.72 488.88 734.33
  C 489.07 733.81 489.03 733.30 488.77 732.79
  L 503.43 691.58
  C 504.02 689.93 505.19 689.11 506.94 689.11
  L 510.16 689.11
  C 511.73 689.11 512.31 689.87 511.90 691.38
  C 511.29 693.61 510.61 695.78 509.86 697.88
  C 504.55 712.72 499.05 728.13 493.35 744.12
  C 493.02 745.03 492.41 745.58 491.52 745.75
  C 490.23 746.01 486.44 746.19 484.69 745.43
  C 484.11 745.18 483.63 744.64 483.24 743.83
  C 482.78 742.87 482.33 741.80 481.90 740.61
  C 476.41 725.47 470.66 709.28 464.64 692.05
  C 463.93 690.04 464.65 689.03 466.79 689.03
  L 469.17 689.03
  C 471.20 689.03 472.55 689.99 473.22 691.91
  C 477.49 704.14 481.70 716.53 485.86 729.08
  C 486.36 730.59 487.04 731.92 487.90 733.07
  Z"
/>
<rect x="524.95" y="689.14" width="8.88" height="56.68" rx="2.17"/>
<path d="
  M 872.20 732.34
  C 872.39 733.21 872.65 733.88 872.97 734.36
  C 873.18 734.69 873.41 734.69 873.64 734.38
  C 873.91 734.01 874.11 733.42 874.26 732.62
  C 878.99 719.08 883.70 705.52 888.37 691.95
  C 889.63 688.32 893.55 688.99 896.23 689.11
  C 896.70 689.13 897.07 689.54 897.04 690.02
  C 896.95 691.65 896.61 693.30 896.00 694.99
  C 887.83 717.68 882.16 733.51 879.00 742.50
  C 878.63 743.53 878.10 744.44 877.39 745.23
  C 877.16 745.48 876.88 745.63 876.55 745.68
  C 874.32 746.03 872.11 746.02 869.92 745.65
  C 869.60 745.60 869.31 745.44 869.10 745.20
  C 868.47 744.48 867.96 743.57 867.57 742.48
  C 858.89 718.15 852.92 701.29 849.66 691.91
  C 848.99 689.98 849.68 689.02 851.72 689.02
  L 854.20 689.02
  C 856.23 689.02 857.57 689.98 858.24 691.90
  L 872.20 732.34
  Z"
/>
</g>
<g fill="#ffec18">
<path d="
  M 838.64 21.67
  C 847.98 27.04 856.12 33.47 863.05 40.94
  C 870.64 49.12 877.16 57.99 882.62 67.56
  C 882.94 68.12 883.54 68.46 884.19 68.44
  C 892.68 68.18 901.36 68.28 910.25 68.74
  C 915.00 68.98 921.23 70.23 928.94 72.50
  C 931.63 74.80 933.80 77.46 935.44 80.47
  C 930.18 78.96 925.68 77.93 921.95 77.38
  C 910.60 75.70 899.18 75.20 887.68 75.87
  C 887.44 75.88 887.29 76.14 887.40 76.35
  C 897.75 97.09 905.05 118.89 909.30 141.75
  C 909.51 142.84 910.01 143.73 910.81 144.42
  C 911.05 144.63 911.33 144.73 911.65 144.73
  C 919.84 144.80 928.21 145.23 936.76 146.01
  C 947.57 146.99 957.89 150.00 967.74 155.04
  C 968.83 157.90 969.17 161.04 968.78 164.47
  C 962.63 159.96 955.67 156.99 947.89 155.57
  C 936.25 153.44 924.36 152.47 912.23 152.66
  C 911.72 152.67 911.49 152.92 911.54 153.43
  C 912.10 159.40 913.40 166.09 913.86 172.10
  C 915.07 188.15 915.16 205.18 914.12 223.19
  C 914.09 223.56 914.27 223.73 914.64 223.72
  C 921.65 223.54 929.16 223.67 937.19 224.12
  C 941.32 224.35 945.13 225.22 949.31 225.93
  C 952.81 226.53 956.61 228.41 960.71 231.56
  C 960.10 234.79 959.00 237.83 957.39 240.66
  C 953.96 237.50 949.62 235.34 944.35 234.18
  C 939.04 233.01 934.02 232.39 929.29 232.31
  C 924.20 232.22 920.78 232.15 914.21 232.14
  C 913.86 232.14 913.61 232.30 913.45 232.61
  C 912.86 233.74 912.47 235.06 912.28 236.55
  C 910.21 252.30 906.31 267.55 900.57 282.32
  C 897.66 289.80 893.94 297.17 889.39 304.42
  C 884.04 312.97 877.39 320.65 869.44 327.47
  C 866.16 329.99 861.89 331.66 856.63 332.47
  C 864.28 326.46 869.87 321.19 873.42 316.66
  C 881.12 306.81 887.31 295.83 891.99 283.72
  C 896.25 272.67 899.47 261.34 901.64 249.72
  C 902.47 245.29 903.34 239.82 904.27 233.32
  C 904.32 232.98 904.18 232.78 903.84 232.72
  C 902.85 232.54 901.78 232.50 900.64 232.59
  C 882.05 234.19 863.42 236.81 844.75 240.45
  C 843.96 240.60 843.18 240.10 843.00 239.31
  L 841.72 233.81
  C 841.64 233.45 841.78 233.23 842.14 233.16
  C 857.86 229.89 873.40 227.44 888.76 225.81
  C 897.15 224.92 902.40 224.34 904.53 224.06
  C 904.89 224.01 905.16 223.72 905.20 223.36
  C 905.96 215.39 906.34 207.36 906.34 199.26
  C 906.34 193.13 906.02 186.47 905.37 179.30
  C 904.46 169.18 903.61 160.94 902.82 154.59
  C 902.70 153.65 901.88 152.97 900.93 153.02
  C 876.02 154.35 850.94 157.54 825.69 162.60
  C 825.44 162.65 825.20 162.49 825.14 162.25
  L 823.51 155.27
  C 823.46 155.04 823.55 154.91 823.78 154.86
  C 842.94 150.97 862.61 148.08 882.79 146.19
  C 889.56 145.56 894.97 145.32 899.02 145.48
  C 899.65 145.51 900.08 145.43 900.31 145.24
  C 900.69 144.94 900.87 144.47 900.78 144.00
  C 898.43 132.05 895.48 120.60 891.91 109.63
  C 888.54 99.27 884.22 88.71 878.95 77.95
  C 878.46 76.95 877.74 76.48 876.78 76.55
  C 855.06 78.07 832.59 81.19 809.36 85.92
  C 808.22 86.15 807.52 85.70 807.25 84.56
  L 806.20 80.02
  C 805.96 79.01 806.35 78.39 807.37 78.18
  C 828.64 73.74 850.43 70.63 872.74 68.84
  C 873.29 68.80 873.61 68.20 873.34 67.72
  C 865.94 54.51 856.68 42.92 845.55 32.96
  C 840.00 28.00 832.82 23.47 823.99 19.36
  C 827.38 19.51 830.54 19.75 833.45 20.08
  C 835.57 20.33 837.30 20.86 838.64 21.67
  Z"
/>
<path d="
  M 648.82 173.79
  C 648.55 166.52 649.05 159.36 650.32 152.32
  C 652.50 140.17 655.97 128.40 660.72 117.01
  C 661.59 114.93 662.67 113.03 663.94 111.32
  C 678.05 100.77 694.01 91.78 711.82 84.35
  C 734.27 74.98 757.49 67.63 781.50 62.30
  C 782.19 62.15 782.61 62.42 782.76 63.10
  C 787.07 81.88 789.64 92.94 790.47 96.28
  C 791.48 100.39 792.39 104.71 793.19 109.23
  C 793.26 109.62 793.01 110.00 792.62 110.09
  C 772.52 114.79 752.98 120.35 734.01 126.77
  C 717.14 132.48 701.02 139.19 685.64 146.90
  C 681.37 149.04 675.04 152.79 666.64 158.15
  C 660.11 162.32 655.27 166.30 652.12 170.11
  C 650.61 171.94 649.51 173.16 648.82 173.79
  Z"
/>
<path d="
  M 668.19 256.39
  C 666.43 253.78 664.70 250.66 663.00 247.03
  C 658.31 237.00 654.69 226.59 652.12 215.82
  C 651.59 213.63 651.39 211.61 651.52 209.74
  C 656.60 203.37 662.84 197.70 670.23 192.73
  C 677.98 187.53 684.58 183.47 690.03 180.56
  C 718.25 165.47 746.95 154.03 776.12 146.24
  C 788.46 142.94 796.24 140.86 799.47 139.99
  C 800.10 139.82 800.50 140.05 800.65 140.69
  L 810.57 183.41
  C 810.83 184.52 810.41 185.23 809.30 185.52
  C 802.73 187.25 796.60 188.79 790.91 190.15
  C 786.15 191.28 780.11 192.98 772.79 195.25
  C 755.80 200.51 741.09 205.80 728.66 211.13
  C 719.38 215.11 709.95 219.77 700.37 225.10
  C 692.00 229.77 684.44 235.29 677.68 241.67
  C 673.35 245.76 670.19 250.67 668.19 256.39
  Z"
/>
<path d="
  M 724.17 315.86
  C 713.78 309.73 703.86 301.90 694.40 292.35
  C 691.32 289.25 688.99 286.46 687.42 283.98
  C 687.91 279.75 689.67 275.98 692.70 272.69
  C 696.89 268.12 701.33 264.30 706.02 261.25
  C 717.21 253.96 729.23 247.64 742.07 242.30
  C 766.44 232.16 791.72 224.24 817.92 218.54
  C 818.29 218.46 818.65 218.69 818.74 219.06
  L 829.00 263.24
  C 829.22 264.17 828.64 265.10 827.71 265.32
  C 810.06 269.41 792.91 274.47 776.26 280.50
  C 766.91 283.89 757.93 287.75 749.32 292.08
  C 743.27 295.13 737.59 298.69 732.27 302.76
  C 730.43 304.17 728.69 305.85 727.04 307.79
  C 725.10 310.08 724.14 312.77 724.17 315.86
  Z"
/>
<path d="
  M 926.06 583.53
  C 925.35 583.53 924.76 583.66 924.27 583.91
  L 925.56 581.03
  C 925.71 580.69 925.88 580.68 926.06 581.01
  C 926.41 581.63 926.41 582.47 926.06 583.53
  Z"
/>
<path d="
  M 1490.97 583.46
  C 1490.54 583.53 1490.18 583.45 1489.88 583.22
  C 1489.94 582.17 1490.25 581.39 1490.82 580.90
  C 1491.11 580.65 1491.29 580.71 1491.34 581.09
  C 1491.46 581.85 1491.34 582.64 1490.97 583.46
  Z"
/>
<path d="
  M 1088.26 694.46
  L 1089.35 694.58
  C 1089.16 695.18 1089.03 695.53 1088.98 695.64
  C 1088.40 696.74 1087.96 696.68 1087.67 695.47
  C 1087.53 694.88 1087.73 694.55 1088.26 694.46
  Z"
/>
<path d="
  M 874.26 732.62
  C 874.11 733.42 873.91 734.01 873.64 734.38
  C 873.41 734.69 873.18 734.69 872.97 734.36
  C 872.65 733.88 872.39 733.21 872.20 732.34
  L 874.26 732.62
  Z"
/>
<path d="
  M 488.77 732.79
  C 489.03 733.30 489.07 733.81 488.88 734.33
  C 488.74 734.72 488.52 734.78 488.22 734.49
  C 487.94 734.22 487.83 733.75 487.90 733.07
  C 488.19 732.86 488.48 732.77 488.77 732.79
  Z"
/>
<path d="
  M 591.01 738.60
  C 590.08 738.65 589.44 738.82 589.07 739.11
  C 589.64 737.77 590.22 736.74 590.82 736.01
  C 591.35 735.36 591.63 735.46 591.66 736.29
  C 591.70 737.16 591.48 737.93 591.01 738.60
  Z"
/>
<path d="
  M 418.95 738.78
  L 417.58 738.43
  C 417.71 737.74 417.95 737.18 418.31 736.73
  C 418.56 736.42 418.78 736.43 418.99 736.77
  C 419.27 737.23 419.26 737.90 418.95 738.78
  Z"
/>
<path d="
  M 1345.97 738.58
  L 1344.72 738.50
  C 1344.81 737.57 1345.03 736.94 1345.36 736.63
  C 1345.67 736.34 1345.90 736.40 1346.04 736.80
  C 1346.22 737.31 1346.20 737.90 1345.97 738.58
  Z"
/>
<path d="
  M 359.62 740.36
  L 358.70 739.69
  C 358.63 738.82 358.84 738.11 359.35 737.58
  C 359.60 737.31 359.81 737.35 359.96 737.68
  C 360.47 738.79 360.35 739.68 359.62 740.36
  Z"
/>
</g>
</svg>
