<?xml version="1.0" encoding="UTF-8" standalone="no"?>
<!DOCTYPE svg PUBLIC "-//W3C//DTD SVG 1.1//EN" "http://www.w3.org/Graphics/SVG/1.1/DTD/svg11.dtd">
<svg xmlns="http://www.w3.org/2000/svg" version="1.1" viewBox="0.00 0.00 594.00 691.00" width="594.00" height="691.00">
<g fill="#004392">
<path d="
  M 323.67 190.08
  C 335.84 196.08 346.23 204.19 354.84 214.41
  C 360.45 221.08 365.46 228.17 369.85 235.68
  C 370.38 236.59 370.13 237.11 369.08 237.22
  C 362.07 237.99 356.15 238.58 351.33 239.00
  C 341.89 239.83 327.08 242.20 306.89 246.09
  C 305.71 246.32 305.26 247.02 305.53 248.19
  L 306.45 252.12
  C 306.73 253.35 307.49 253.84 308.72 253.59
  C 326.81 250.00 345.01 247.26 363.33 245.36
  C 365.64 245.12 368.89 244.88 373.08 244.63
  C 374.18 244.56 375.02 245.12 375.59 246.29
  C 385.22 266.11 392.12 287.12 396.28 309.33
  C 396.41 310.05 396.12 310.43 395.39 310.47
  C 371.38 311.71 347.05 314.85 322.41 319.88
  C 322.26 319.91 322.16 320.06 322.20 320.21
  L 323.80 327.11
  C 323.84 327.29 324.01 327.40 324.19 327.36
  C 348.40 322.46 372.60 319.38 396.78 318.12
  C 397.45 318.09 398.04 318.57 398.14 319.23
  C 401.17 339.36 402.15 359.61 401.08 379.99
  C 401.01 381.32 400.83 383.26 400.54 385.80
  C 400.51 386.10 400.26 386.34 399.96 386.36
  C 379.33 388.22 359.65 391.05 340.90 394.86
  C 339.94 395.05 339.57 395.63 339.79 396.58
  L 340.79 400.87
  C 340.99 401.71 341.82 402.25 342.67 402.09
  C 362.71 398.20 381.43 395.66 398.82 394.45
  C 399.41 394.40 399.68 394.68 399.61 395.27
  C 397.32 415.85 392.00 435.23 383.63 453.41
  C 379.58 462.21 374.43 470.22 368.20 477.44
  C 364.83 481.35 360.33 485.48 354.71 489.83
  C 349.09 491.93 343.44 493.50 337.77 494.55
  C 328.52 496.26 319.03 497.18 309.30 497.30
  C 302.45 497.38 295.80 497.02 289.35 496.21
  C 266.81 493.40 245.83 485.86 226.42 473.60
  C 227.90 468.20 231.19 464.69 235.55 461.30
  C 239.92 457.89 244.56 454.94 249.46 452.45
  C 272.86 440.52 299.10 432.59 325.79 426.02
  C 327.37 425.63 327.92 424.69 327.43 423.22
  C 327.08 422.16 326.90 421.59 326.88 421.50
  C 323.97 408.70 320.92 395.61 317.74 382.22
  C 317.51 381.23 316.89 380.85 315.90 381.10
  C 305.21 383.75 297.57 385.70 292.96 386.95
  C 275.81 391.62 258.47 397.69 240.95 405.16
  C 230.95 409.43 221.38 414.44 212.23 420.21
  C 207.08 423.46 202.41 427.13 198.24 431.23
  C 194.79 434.62 192.48 438.62 191.33 443.23
  C 184.34 434.82 178.26 425.92 173.11 416.52
  C 176.17 409.99 180.20 404.63 185.21 400.43
  C 193.34 393.62 202.60 387.62 212.99 382.45
  C 234.86 371.57 258.11 362.76 282.76 356.01
  C 290.72 353.84 299.38 351.60 308.75 349.29
  C 309.46 349.12 309.79 348.67 309.76 347.95
  C 309.73 347.33 309.63 346.62 309.44 345.83
  C 305.92 330.58 302.87 317.37 300.30 306.22
  C 300.21 305.81 299.80 305.56 299.40 305.66
  C 288.67 308.19 278.07 311.02 267.60 314.14
  C 242.60 321.59 218.27 331.58 194.62 344.11
  C 189.18 346.99 182.30 351.28 173.98 356.98
  C 167.33 361.53 161.79 366.67 157.35 372.40
  C 155.20 360.91 154.33 349.32 154.74 337.64
  C 161.00 330.81 167.59 325.25 174.51 320.98
  C 187.73 312.82 202.86 305.46 219.91 298.89
  C 233.86 293.52 248.32 288.72 263.27 284.49
  C 271.96 282.03 281.69 279.48 292.45 276.85
  C 293.03 276.71 293.38 276.12 293.25 275.54
  L 282.91 231.09
  C 282.87 230.89 282.67 230.77 282.47 230.81
  C 264.88 234.72 247.19 239.91 229.42 246.39
  C 214.41 251.86 200.83 258.04 188.69 264.92
  C 183.12 268.07 176.77 272.28 169.62 277.55
  C 179.95 255.50 194.64 237.05 213.69 222.21
  C 234.55 205.96 257.83 195.66 283.53 191.33
  C 296.54 189.14 309.92 188.72 323.67 190.08
  Z"
/>
<path d="
  M 422.16 239.95
  C 420.27 239.78 418.42 239.48 416.63 239.04
  C 414.10 238.42 412.29 238.04 411.20 237.91
  C 401.03 236.64 390.97 236.28 381.01 236.83
  C 380.00 236.88 379.29 236.56 378.88 235.86
  C 372.80 225.53 366.19 216.64 359.06 209.19
  C 354.38 204.30 350.14 200.63 346.35 198.16
  C 341.81 195.21 338.82 193.20 337.39 192.13
  C 370.97 198.95 399.23 214.89 422.16 239.95
  Z"
/>
<path d="
  M 428.81 248.01
  C 445.48 269.08 455.98 293.05 460.33 319.91
  C 451.54 315.39 441.85 312.57 431.26 311.45
  C 423.15 310.59 415.05 310.17 406.96 310.20
  C 406.00 310.20 405.18 309.53 404.98 308.60
  C 403.40 301.27 402.02 295.31 400.85 290.73
  C 396.80 274.98 391.05 259.62 383.62 244.66
  C 383.48 244.38 383.67 244.06 383.97 244.04
  C 399.07 243.13 414.02 244.45 428.81 248.01
  Z"
/>
<path d="
  M 461.24 328.59
  C 463.39 350.67 460.86 372.22 453.66 393.24
  C 449.55 390.30 445.54 388.49 441.63 387.82
  C 431.26 386.03 420.68 385.50 409.90 386.23
  C 409.53 386.26 409.21 385.95 409.23 385.58
  C 409.85 372.73 409.93 359.89 409.46 347.04
  C 409.10 336.99 408.59 330.42 407.94 327.33
  C 407.27 324.16 406.88 321.17 406.77 318.35
  C 406.76 317.94 406.96 317.73 407.37 317.72
  C 419.33 317.65 431.15 318.69 442.84 320.86
  C 449.07 322.02 455.21 324.60 461.24 328.59
  Z"
/>
<path d="
  M 450.46 401.66
  C 446.74 410.96 442.03 419.86 436.33 428.35
  C 421.37 450.65 401.96 467.97 378.09 480.32
  C 374.54 482.15 370.76 483.78 366.76 485.20
  C 371.64 480.81 374.96 477.56 376.73 475.47
  C 383.66 467.25 389.30 458.15 393.67 448.17
  C 399.51 434.81 403.58 421.35 405.87 407.78
  C 406.96 401.39 407.70 397.28 408.09 395.47
  C 408.26 394.69 408.93 394.13 409.72 394.11
  C 418.43 393.81 427.24 394.30 436.13 395.59
  C 441.06 396.31 445.83 398.33 450.46 401.66
  Z"
/>
</g>
<g fill="#ffec18">
<path d="
  M 337.39 192.13
  C 338.82 193.20 341.81 195.21 346.35 198.16
  C 350.14 200.63 354.38 204.30 359.06 209.19
  C 366.19 216.64 372.80 225.53 378.88 235.86
  C 379.29 236.56 380.00 236.88 381.01 236.83
  C 390.97 236.28 401.03 236.64 411.20 237.91
  C 412.29 238.04 414.10 238.42 416.63 239.04
  C 418.42 239.48 420.27 239.78 422.16 239.95
  L 428.81 248.01
  C 414.02 244.45 399.07 243.13 383.97 244.04
  C 383.67 244.06 383.48 244.38 383.62 244.66
  C 391.05 259.62 396.80 274.98 400.85 290.73
  C 402.02 295.31 403.40 301.27 404.98 308.60
  C 405.18 309.53 406.00 310.20 406.96 310.20
  C 415.05 310.17 423.15 310.59 431.26 311.45
  C 441.85 312.57 451.54 315.39 460.33 319.91
  L 461.24 328.59
  C 455.21 324.60 449.07 322.02 442.84 320.86
  C 431.15 318.69 419.33 317.65 407.37 317.72
  C 406.96 317.73 406.76 317.94 406.77 318.35
  C 406.88 321.17 407.27 324.16 407.94 327.33
  C 408.59 330.42 409.10 336.99 409.46 347.04
  C 409.93 359.89 409.85 372.73 409.23 385.58
  C 409.21 385.95 409.53 386.26 409.90 386.23
  C 420.68 385.50 431.26 386.03 441.63 387.82
  C 445.54 388.49 449.55 390.30 453.66 393.24
  L 450.46 401.66
  C 445.83 398.33 441.06 396.31 436.13 395.59
  C 427.24 394.30 418.43 393.81 409.72 394.11
  C 408.93 394.13 408.26 394.69 408.09 395.47
  C 407.70 397.28 406.96 401.39 405.87 407.78
  C 403.58 421.35 399.51 434.81 393.67 448.17
  C 389.30 458.15 383.66 467.25 376.73 475.47
  C 374.96 477.56 371.64 480.81 366.76 485.20
  L 354.71 489.83
  C 360.33 485.48 364.83 481.35 368.20 477.44
  C 374.43 470.22 379.58 462.21 383.63 453.41
  C 392.00 435.23 397.32 415.85 399.61 395.27
  C 399.68 394.68 399.41 394.40 398.82 394.45
  C 381.43 395.66 362.71 398.20 342.67 402.09
  C 341.82 402.25 340.99 401.71 340.79 400.87
  L 339.79 396.58
  C 339.57 395.63 339.94 395.05 340.90 394.86
  C 359.65 391.05 379.33 388.22 399.96 386.36
  C 400.26 386.34 400.51 386.10 400.54 385.80
  C 400.83 383.26 401.01 381.32 401.08 379.99
  C 402.15 359.61 401.17 339.36 398.14 319.23
  C 398.04 318.57 397.45 318.09 396.78 318.12
  C 372.60 319.38 348.40 322.46 324.19 327.36
  C 324.01 327.40 323.84 327.29 323.80 327.11
  L 322.20 320.21
  C 322.16 320.06 322.26 319.91 322.41 319.88
  C 347.05 314.85 371.38 311.71 395.39 310.47
  C 396.12 310.43 396.41 310.05 396.28 309.33
  C 392.12 287.12 385.22 266.11 375.59 246.29
  C 375.02 245.12 374.18 244.56 373.08 244.63
  C 368.89 244.88 365.64 245.12 363.33 245.36
  C 345.01 247.26 326.81 250.00 308.72 253.59
  C 307.49 253.84 306.73 253.35 306.45 252.12
  L 305.53 248.19
  C 305.26 247.02 305.71 246.32 306.89 246.09
  C 327.08 242.20 341.89 239.83 351.33 239.00
  C 356.15 238.58 362.07 237.99 369.08 237.22
  C 370.13 237.11 370.38 236.59 369.85 235.68
  C 365.46 228.17 360.45 221.08 354.84 214.41
  C 346.23 204.19 335.84 196.08 323.67 190.08
  L 337.39 192.13
  Z"
/>
<path d="
  M 154.74 337.64
  C 154.70 335.51 154.76 333.45 154.93 331.48
  C 156.52 312.46 161.42 294.48 169.62 277.55
  C 176.77 272.28 183.12 268.07 188.69 264.92
  C 200.83 258.04 214.41 251.86 229.42 246.39
  C 247.19 239.91 264.88 234.72 282.47 230.81
  C 282.67 230.77 282.87 230.89 282.91 231.09
  L 293.25 275.54
  C 293.38 276.12 293.03 276.71 292.45 276.85
  C 281.69 279.48 271.96 282.03 263.27 284.49
  C 248.32 288.72 233.86 293.52 219.91 298.89
  C 202.86 305.46 187.73 312.82 174.51 320.98
  C 167.59 325.25 161.00 330.81 154.74 337.64
  Z"
/>
<path d="
  M 173.11 416.52
  C 167.40 405.91 162.94 394.99 159.74 383.75
  C 158.70 380.11 157.90 376.33 157.35 372.40
  C 161.79 366.67 167.33 361.53 173.98 356.98
  C 182.30 351.28 189.18 346.99 194.62 344.11
  C 218.27 331.58 242.60 321.59 267.60 314.14
  C 278.07 311.02 288.67 308.19 299.40 305.66
  C 299.80 305.56 300.21 305.81 300.30 306.22
  C 302.87 317.37 305.92 330.58 309.44 345.83
  C 309.63 346.62 309.73 347.33 309.76 347.95
  C 309.79 348.67 309.46 349.12 308.75 349.29
  C 299.38 351.60 290.72 353.84 282.76 356.01
  C 258.11 362.76 234.86 371.57 212.99 382.45
  C 202.60 387.62 193.34 393.62 185.21 400.43
  C 180.20 404.63 176.17 409.99 173.11 416.52
  Z"
/>
<path d="
  M 226.42 473.60
  C 213.31 465.18 201.62 455.06 191.33 443.23
  C 192.48 438.62 194.79 434.62 198.24 431.23
  C 202.41 427.13 207.08 423.46 212.23 420.21
  C 221.38 414.44 230.95 409.43 240.95 405.16
  C 258.47 397.69 275.81 391.62 292.96 386.95
  C 297.57 385.70 305.21 383.75 315.90 381.10
  C 316.89 380.85 317.51 381.23 317.74 382.22
  C 320.92 395.61 323.97 408.70 326.88 421.50
  C 326.90 421.59 327.08 422.16 327.43 423.22
  C 327.92 424.69 327.37 425.63 325.79 426.02
  C 299.10 432.59 272.86 440.52 249.46 452.45
  C 244.56 454.94 239.92 457.89 235.55 461.30
  C 231.19 464.69 227.90 468.20 226.42 473.60
  Z"
/>
</g>
</svg>
