<?xml version="1.0" encoding="UTF-8" standalone="no"?>
<!DOCTYPE svg PUBLIC "-//W3C//DTD SVG 1.1//EN" "http://www.w3.org/Graphics/SVG/1.1/DTD/svg11.dtd">
<svg xmlns="http://www.w3.org/2000/svg" version="1.1" viewBox="0.00 0.00 1657.00 854.00" width="1657.00" height="854.00">
<g fill="#ffffff">
<path d="
  M 838.17 305.71
  C 838.54 305.18 838.62 304.41 838.39 303.40
  C 837.02 297.33 834.05 284.28 829.47 264.24
  C 829.18 262.96 827.94 262.13 826.65 262.34
  C 823.53 262.85 820.68 263.46 818.10 264.19
  C 811.16 266.15 806.63 267.39 804.51 267.92
  C 787.66 272.11 768.92 278.66 748.31 287.58
  C 736.68 292.61 726.16 298.33 716.77 304.74
  C 714.85 306.05 712.76 307.66 710.51 309.57
  C 705.28 313.99 701.89 317.99 699.47 324.02
  C 699.10 324.94 698.03 325.35 697.14 324.92
  C 696.36 324.54 695.70 324.01 695.15 323.34
  C 690.44 317.46 686.48 311.87 683.27 306.57
  C 681.12 303.03 679.93 300.87 679.68 300.10
  C 678.10 295.12 681.58 290.41 684.66 286.51
  C 685.95 284.87 687.54 283.20 689.41 281.51
  C 695.96 275.61 703.74 270.18 712.75 265.22
  C 720.75 260.82 727.91 257.26 734.24 254.53
  C 755.10 245.56 773.87 238.83 790.56 234.35
  C 795.47 233.03 804.80 230.52 818.55 226.82
  C 819.72 226.50 820.44 225.32 820.17 224.13
  C 816.82 209.20 813.91 196.77 811.45 186.84
  C 810.81 184.26 809.13 183.33 806.40 184.06
  C 794.15 187.32 785.99 189.53 781.92 190.70
  C 761.20 196.65 739.98 204.68 718.27 214.79
  C 704.45 221.23 691.54 228.66 679.55 237.09
  C 676.95 238.92 674.62 240.73 672.57 242.53
  C 671.41 243.55 669.30 245.62 666.24 248.74
  C 665.29 249.72 664.28 250.34 663.22 250.60
  C 662.25 250.84 661.29 250.17 661.17 249.18
  C 660.16 240.43 659.41 230.48 658.90 219.33
  C 658.78 216.70 659.92 214.12 662.32 211.57
  C 665.39 208.32 668.30 205.65 671.04 203.55
  C 679.45 197.12 689.70 191.03 701.81 185.27
  C 718.30 177.42 735.89 170.53 754.56 164.60
  C 771.46 159.22 786.41 155.09 799.41 152.21
  C 802.11 151.61 803.15 149.98 802.53 147.32
  C 799.53 134.47 797.63 126.43 796.83 123.22
  C 796.20 120.65 795.64 118.10 795.15 115.56
  C 794.54 112.39 793.92 109.84 793.27 107.91
  C 792.95 106.95 792.08 106.28 791.07 106.22
  C 789.50 106.13 787.80 106.30 785.99 106.74
  C 763.64 112.11 741.94 119.25 720.88 128.14
  C 706.42 134.25 693.69 141.19 682.70 148.97
  C 680.21 150.74 678.14 152.06 676.50 152.93
  C 676.08 153.15 675.58 152.84 675.58 152.37
  C 675.59 151.46 675.80 150.48 676.21 149.44
  C 677.68 145.67 680.08 141.17 683.42 135.92
  C 703.28 104.74 730.42 82.72 764.83 69.87
  C 767.10 69.02 770.10 68.08 773.83 67.03
  C 777.91 65.88 781.86 64.54 785.95 63.76
  C 792.31 62.55 797.13 61.47 802.92 61.04
  C 806.63 60.77 810.74 60.46 815.25 60.11
  C 820.21 59.74 826.21 60.06 833.25 61.07
  C 835.76 61.43 837.61 61.89 838.80 62.45
  C 847.53 66.56 855.66 72.44 863.17 80.09
  C 870.62 87.68 877.08 96.02 882.57 105.12
  C 883.32 106.37 883.99 108.03 884.58 110.10
  C 884.68 110.43 884.52 110.79 884.20 110.94
  C 881.88 111.99 879.41 112.58 876.78 112.70
  C 866.57 113.14 856.80 114.30 847.45 116.19
  C 844.37 116.81 839.87 116.88 836.39 117.68
  C 831.76 118.74 826.78 119.62 821.47 120.31
  C 819.45 120.57 818.56 121.69 818.81 123.68
  C 818.83 123.81 818.84 123.89 818.84 123.92
  C 819.07 125.91 820.18 126.74 822.15 126.41
  C 831.00 124.94 839.30 123.50 847.03 122.07
  C 848.00 121.89 850.53 121.61 854.63 121.22
  C 857.28 120.97 859.80 120.64 862.20 120.23
  C 871.00 118.74 878.85 118.01 885.75 118.02
  C 888.60 118.03 890.63 119.34 891.86 121.97
  C 900.22 139.85 906.47 158.00 910.61 176.43
  C 911.44 180.15 911.97 183.55 912.19 186.62
  C 912.24 187.34 911.69 187.96 910.97 188.02
  C 901.37 188.74 891.77 189.54 882.16 190.41
  C 877.48 190.84 873.82 191.31 871.18 191.82
  C 864.87 193.04 859.37 193.23 852.92 194.53
  C 846.53 195.82 841.54 196.70 837.95 197.17
  C 835.02 197.55 835.64 201.94 837.78 202.91
  C 838.19 203.10 839.05 203.08 840.35 202.85
  C 847.92 201.55 855.50 200.31 863.07 199.12
  C 864.15 198.95 867.27 198.58 872.42 197.99
  C 876.44 197.53 880.94 196.52 884.87 196.11
  C 892.24 195.34 901.12 194.89 911.51 194.76
  C 913.58 194.73 914.68 195.74 914.80 197.80
  C 914.84 198.52 915.50 204.79 916.77 216.60
  C 917.63 224.53 918.05 230.82 918.04 235.48
  C 918.03 244.41 917.98 251.27 917.91 256.07
  C 917.86 259.76 917.59 262.88 917.10 265.43
  C 917.03 265.76 916.85 265.99 916.55 266.13
  C 914.68 267.02 912.59 267.58 910.28 267.81
  C 906.75 268.17 898.68 269.09 886.09 270.56
  C 882.84 270.94 879.63 271.45 876.45 272.09
  C 873.86 272.61 870.64 273.11 866.79 273.58
  C 863.87 273.95 860.31 274.80 856.11 276.14
  C 854.54 276.65 854.05 277.68 854.64 279.23
  C 854.65 279.25 854.66 279.28 854.69 279.33
  C 855.41 280.85 856.53 281.47 858.04 281.19
  C 862.35 280.38 866.33 279.66 869.97 279.01
  C 870.00 279.00 872.48 278.64 877.41 277.91
  C 879.70 277.57 882.68 277.06 886.37 276.37
  C 889.20 275.84 894.63 275.37 902.67 274.98
  C 903.91 274.91 905.80 274.67 908.35 274.25
  C 910.48 273.90 912.33 273.74 913.88 273.79
  C 915.00 273.82 915.87 274.77 915.82 275.88
  C 915.63 279.44 915.29 282.61 914.80 285.38
  C 913.52 292.51 911.98 299.49 910.19 306.30
  C 907.23 317.52 903.60 327.61 899.29 336.57
  C 894.95 345.62 890.02 353.36 884.51 359.79
  C 881.94 362.79 880.43 364.56 880.00 365.09
  C 878.72 366.66 877.06 368.26 875.01 369.88
  C 871.62 372.57 869.53 374.12 868.76 374.55
  C 865.70 376.25 860.21 377.76 856.14 378.57
  C 850.79 379.62 847.17 380.33 845.28 380.70
  C 840.87 381.56 837.01 382.01 833.70 382.05
  C 828.42 382.11 823.54 383.09 818.15 382.79
  C 812.48 382.47 808.78 382.26 807.06 382.15
  C 803.24 381.91 799.56 381.52 796.02 380.99
  C 775.93 377.98 756.53 371.08 737.82 360.29
  C 734.17 358.19 733.51 355.30 735.84 351.61
  C 737.53 348.92 739.56 346.62 741.93 344.69
  C 745.43 341.83 749.74 338.98 754.85 336.14
  C 766.85 329.46 780.15 323.73 794.74 318.94
  C 806.75 314.99 814.38 312.64 817.63 311.88
  C 824.10 310.35 830.44 308.65 836.65 306.76
  C 837.30 306.56 837.83 306.19 838.17 305.71
  Z"
/>
<path d="
  M 850.56 64.43
  C 853.23 63.85 856.03 63.96 858.95 64.75
  C 887.04 72.37 911.26 85.81 931.60 105.07
  C 933.91 107.26 937.63 110.65 938.08 112.89
  C 938.23 113.62 937.93 113.95 937.20 113.89
  C 932.16 113.48 927.88 112.96 924.36 112.34
  C 915.44 110.77 907.89 111.16 896.76 111.05
  C 894.41 111.03 893.02 110.22 891.65 108.03
  C 890.12 105.60 888.33 102.85 886.30 99.80
  C 879.55 89.71 871.48 80.86 862.08 73.25
  C 861.03 72.40 859.08 70.98 856.23 69.01
  C 854.56 67.84 852.65 66.41 850.50 64.70
  C 850.33 64.57 850.35 64.48 850.56 64.43
  Z"
/>
<path d="
  M 907.36 141.14
  C 905.22 135.53 902.59 129.33 899.48 122.54
  C 899.05 121.61 898.71 120.34 898.45 118.71
  C 898.29 117.72 899.05 116.83 900.05 116.82
  C 906.95 116.79 913.94 116.28 920.65 117.36
  C 923.43 117.81 926.09 118.08 928.64 118.16
  C 934.89 118.35 940.32 119.51 944.94 121.64
  C 948.02 123.06 950.05 126.77 951.85 129.32
  C 957.24 136.97 961.58 144.24 964.87 151.13
  C 965.90 153.29 967.59 157.19 969.94 162.83
  C 971.52 166.60 972.92 170.60 974.13 174.83
  C 975.94 181.11 977.39 187.00 978.48 192.51
  C 978.69 193.56 978.71 194.58 978.55 195.58
  C 978.47 196.14 977.95 196.53 977.38 196.45
  C 974.65 196.08 972.04 195.27 969.54 194.03
  C 968.37 193.45 965.82 192.65 961.89 191.63
  C 959.08 190.90 956.44 190.36 953.99 190.00
  C 943.89 188.52 934.08 187.87 924.57 188.04
  C 922.33 188.08 920.91 187.27 920.31 185.62
  C 919.46 183.29 918.69 180.51 917.98 177.26
  C 916.86 172.12 916.30 169.53 916.29 169.49
  C 913.41 158.66 910.43 149.21 907.36 141.14
  Z"
/>
<path d="
  M 926.79 266.93
  C 926.13 266.93 925.43 266.60 924.81 266.56
  C 924.64 266.55 924.55 266.46 924.52 266.30
  C 924.06 263.51 923.94 260.50 924.16 257.26
  C 924.85 246.98 925.06 239.22 924.78 233.99
  C 924.09 221.19 923.74 214.51 923.72 213.94
  C 923.55 210.21 922.95 204.76 921.94 197.58
  C 921.59 195.16 922.75 193.91 925.41 193.82
  C 929.50 193.69 933.24 193.87 936.65 194.36
  C 937.86 194.53 941.46 194.80 947.44 195.17
  C 957.47 195.78 966.93 198.35 975.84 202.88
  C 977.49 203.72 978.67 204.87 979.38 206.32
  C 979.79 207.17 980.03 208.69 980.09 210.88
  C 980.18 214.03 980.35 216.88 980.62 219.43
  C 980.94 222.44 981.01 224.66 980.82 226.09
  C 980.43 229.06 980.11 231.77 980.06 234.99
  C 980.00 238.51 979.70 242.00 979.15 245.47
  C 977.86 253.65 975.82 262.17 973.04 271.02
  C 972.59 272.47 971.91 273.21 970.98 273.25
  C 970.53 273.27 969.70 273.00 968.49 272.45
  C 960.62 268.84 953.13 267.02 946.03 267.00
  C 936.98 266.97 930.57 266.95 926.79 266.93
  Z"
/>
<path d="
  M 966.80 280.72
  C 968.28 282.00 967.89 285.09 967.16 286.64
  C 964.14 293.07 962.26 296.96 961.51 298.33
  C 945.55 327.34 922.86 349.52 893.43 364.86
  C 891.55 365.85 888.84 367.07 885.29 368.54
  C 883.80 369.15 882.28 369.44 880.72 369.39
  C 880.42 369.38 880.26 369.03 880.46 368.80
  C 882.29 366.73 884.78 364.11 887.93 360.94
  C 891.46 357.40 895.03 352.89 898.64 347.41
  C 904.69 338.25 909.64 327.87 913.51 316.28
  C 917.16 305.33 919.84 294.33 921.53 283.26
  C 921.99 280.23 922.94 277.14 923.78 274.32
  C 923.98 273.66 924.58 273.21 925.28 273.20
  C 927.40 273.19 930.68 273.20 935.11 273.21
  C 939.12 273.23 942.38 273.41 944.89 273.74
  C 950.72 274.52 955.00 275.31 957.72 276.10
  C 961.49 277.21 964.52 278.75 966.80 280.72
  Z"
/>
<path d="
  M 752.54 521.87
  C 747.35 521.62 742.08 521.57 736.75 521.73
  C 736.40 521.74 735.02 521.55 732.61 521.18
  C 732.28 521.13 732.02 520.95 731.85 520.66
  C 731.28 519.67 730.99 518.62 730.99 517.50
  C 731.00 508.93 731.03 499.00 731.08 487.70
  C 731.09 486.17 732.32 484.93 733.85 484.93
  L 751.07 484.93
  C 752.11 484.93 752.96 484.09 752.95 483.05
  C 752.93 478.82 752.95 473.98 753.02 468.51
  C 753.09 463.48 754.14 457.82 756.19 451.53
  C 759.72 440.70 766.27 432.87 775.85 428.06
  C 780.34 425.80 785.80 424.07 792.21 422.88
  C 797.83 421.84 803.76 422.14 809.93 421.51
  C 811.74 421.32 814.12 421.22 817.06 421.19
  C 827.63 421.10 833.94 421.12 836.00 421.25
  C 837.80 421.36 839.16 421.52 840.07 421.73
  C 841.19 421.98 841.98 422.96 841.98 424.10
  L 841.98 455.06
  C 841.98 456.13 841.25 457.06 840.21 457.32
  C 839.02 457.61 837.55 457.76 835.79 457.78
  C 824.69 457.86 817.34 457.32 808.98 458.83
  C 800.27 460.41 795.16 465.72 793.66 474.75
  C 793.14 477.86 792.91 480.87 792.96 483.80
  C 792.97 484.40 793.46 484.88 794.06 484.88
  C 824.02 484.91 863.08 484.90 911.25 484.84
  C 915.88 484.84 918.33 484.77 922.22 485.30
  C 925.07 485.69 927.43 485.93 929.30 486.02
  C 932.68 486.17 935.03 486.36 936.34 486.57
  C 943.64 487.77 950.00 489.82 955.43 492.71
  C 960.17 495.23 964.43 499.17 968.20 504.53
  C 971.86 509.73 974.26 515.58 975.39 522.09
  C 976.52 528.52 977.08 535.08 977.09 541.77
  C 977.13 598.69 977.15 631.49 977.15 640.16
  C 977.15 641.16 976.34 641.97 975.34 641.97
  C 965.27 641.97 953.74 641.97 940.75 641.96
  C 939.86 641.96 939.00 641.81 938.18 641.52
  C 937.87 641.41 937.66 641.19 937.56 640.87
  C 937.00 638.98 936.72 637.78 936.71 637.25
  C 936.64 633.37 936.63 630.41 936.68 628.37
  C 936.70 627.59 935.82 627.13 935.20 627.60
  C 932.89 629.34 930.28 632.21 927.76 633.93
  C 923.05 637.14 918.51 639.37 914.13 640.62
  C 912.32 641.14 908.96 641.88 904.06 642.83
  C 900.45 643.54 897.05 643.93 893.87 644.02
  C 884.86 644.26 876.30 643.29 868.17 641.10
  C 859.48 638.75 851.77 634.81 845.04 629.26
  C 840.41 625.45 836.75 621.08 834.06 616.15
  C 831.22 610.94 829.38 605.40 828.54 599.51
  C 827.56 592.72 828.28 585.73 830.71 578.55
  C 834.76 566.55 843.18 558.40 855.99 554.11
  C 864.01 551.42 872.02 550.06 880.01 550.04
  C 899.84 549.99 912.42 549.97 917.75 549.98
  C 919.10 549.98 921.38 549.59 924.57 548.81
  C 930.88 547.26 934.59 543.22 935.69 536.71
  C 936.00 534.85 935.77 533.13 934.99 531.54
  C 931.11 523.60 923.74 522.93 915.89 522.03
  C 913.86 521.80 910.92 521.68 907.09 521.68
  C 879.31 521.67 841.49 521.66 793.62 521.64
  C 793.27 521.64 792.98 521.93 792.98 522.28
  L 792.98 638.88
  C 792.98 640.96 791.94 642.00 789.87 642.00
  L 755.41 642.00
  C 754.12 642.00 753.43 641.36 753.32 640.08
  C 753.28 639.53 753.25 638.67 753.23 637.50
  C 753.11 628.89 753.02 590.49 752.96 522.31
  C 752.96 522.03 752.82 521.88 752.54 521.87
  Z
  M 870.64 599.44
  C 872.76 605.99 879.94 610.69 886.69 611.94
  C 890.77 612.70 894.62 613.63 897.75 613.51
  C 899.26 613.45 902.32 613.05 906.94 612.32
  C 910.87 611.69 913.87 611.00 915.95 610.24
  C 926.43 606.43 932.93 598.76 935.45 587.23
  C 936.11 584.20 936.25 581.56 935.87 579.32
  C 935.54 577.41 934.25 576.64 932.00 577.03
  C 931.77 577.06 929.72 577.28 925.84 577.67
  C 923.61 577.89 921.56 578.00 919.67 577.99
  C 911.15 577.96 901.59 577.97 890.99 578.02
  C 886.28 578.04 881.86 578.97 877.86 580.56
  C 869.89 583.74 868.19 591.88 870.64 599.44
  Z"
/>
<path d="
  M 140.47 579.53
  C 140.13 580.39 140.05 581.21 140.23 582.00
  C 142.56 592.05 147.78 599.05 155.90 602.98
  C 159.79 604.87 164.85 606.03 171.07 606.47
  C 175.94 606.81 181.18 606.51 186.80 605.58
  C 191.63 604.78 195.83 603.12 199.40 600.61
  C 200.81 599.62 202.41 598.42 204.18 597.00
  C 204.99 596.35 206.47 596.02 208.61 596.02
  C 225.12 595.99 238.07 595.99 247.46 596.02
  C 247.81 596.02 248.03 596.19 248.14 596.53
  C 248.62 598.10 248.61 599.64 248.10 601.15
  C 242.57 617.78 231.75 629.52 215.64 636.37
  C 210.65 638.48 205.43 640.08 199.97 641.16
  C 199.36 641.28 196.01 641.71 189.91 642.45
  C 182.57 643.35 175.27 644.08 168.62 643.12
  C 166.07 642.75 161.98 642.28 156.33 641.71
  C 148.25 640.89 140.25 638.52 132.34 634.61
  C 122.85 629.92 115.39 623.29 109.97 614.74
  C 107.41 610.71 104.98 605.49 102.67 599.08
  C 101.20 595.01 100.13 590.23 99.46 584.76
  C 98.22 574.63 97.40 568.35 97.62 559.77
  C 97.71 556.20 97.98 552.72 98.43 549.34
  C 99.12 544.13 99.08 539.27 100.33 534.39
  C 102.12 527.46 104.17 521.66 106.48 516.99
  C 113.29 503.26 124.01 493.73 138.64 488.38
  C 140.41 487.73 144.12 486.66 149.77 485.17
  C 157.74 483.06 164.63 482.93 173.54 482.93
  C 179.71 482.94 183.85 482.98 185.94 483.06
  C 199.31 483.58 211.30 486.78 221.90 492.67
  C 233.06 498.87 241.32 508.09 246.67 520.32
  C 247.31 521.79 248.28 524.42 249.57 528.23
  C 250.48 530.91 251.15 533.63 251.59 536.38
  C 252.76 543.68 253.88 548.99 253.96 555.93
  C 254.05 562.26 253.99 568.42 253.80 574.41
  C 253.72 576.78 252.49 577.97 250.12 577.97
  C 225.21 577.98 190.25 577.98 145.25 577.97
  C 143.60 577.97 141.11 577.91 140.47 579.53
  Z
  M 139.86 550.12
  L 211.56 549.86
  C 211.71 549.86 211.82 549.75 211.82 549.60
  L 211.82 549.14
  C 211.76 532.65 197.73 519.33 180.48 519.39
  L 170.74 519.43
  C 153.48 519.49 139.54 532.90 139.60 549.40
  L 139.60 549.86
  C 139.60 550.00 139.72 550.12 139.86 550.12
  Z"
/>
<path d="
  M 637.49 483.01
  C 644.69 482.98 649.35 483.03 651.46 483.16
  C 657.46 483.51 664.39 484.95 672.25 487.46
  C 693.95 494.40 707.47 510.77 712.62 532.62
  C 716.81 550.33 717.26 568.59 713.97 587.41
  C 712.34 596.74 709.35 605.20 705.01 612.78
  C 700.46 620.74 694.21 627.16 686.28 632.03
  C 680.47 635.60 673.83 638.34 666.35 640.27
  C 664.38 640.78 661.30 641.29 657.09 641.81
  C 653.78 642.22 650.68 642.67 647.79 643.15
  C 645.90 643.46 642.65 643.62 638.03 643.64
  C 633.42 643.65 630.16 643.51 628.27 643.22
  C 625.38 642.76 622.27 642.33 618.97 641.94
  C 614.76 641.45 611.66 640.96 609.69 640.46
  C 602.20 638.59 595.54 635.89 589.71 632.36
  C 581.74 627.54 575.46 621.17 570.85 613.24
  C 566.46 605.69 563.41 597.25 561.72 587.93
  C 558.30 569.13 558.63 550.87 562.69 533.13
  C 567.69 511.25 581.10 494.79 602.75 487.70
  C 610.59 485.13 617.51 483.65 623.51 483.26
  C 625.62 483.11 630.28 483.03 637.49 483.01
  Z
  M 600.07 562.90
  C 600.05 568.26 600.77 573.88 601.39 579.25
  C 601.59 581.02 602.36 583.70 603.71 587.29
  C 607.46 597.26 614.86 603.46 625.54 605.45
  C 633.26 606.88 640.96 606.96 648.65 605.69
  C 660.07 603.80 667.76 597.78 671.72 587.62
  C 672.65 585.24 673.41 582.26 674.01 578.68
  C 675.07 572.38 675.92 568.59 675.94 563.09
  C 675.95 557.60 675.12 553.80 674.09 547.50
  C 673.51 543.92 672.76 540.93 671.84 538.55
  C 667.94 528.37 660.28 522.30 648.87 520.36
  C 641.19 519.05 633.48 519.09 625.76 520.48
  C 615.07 522.42 607.63 528.58 603.83 538.53
  C 602.47 542.11 601.68 544.79 601.47 546.56
  C 600.83 551.93 600.08 557.54 600.07 562.90
  Z"
/>
<path d="
  M 278.60 485.35
  C 278.81 485.15 279.39 485.03 280.32 484.98
  C 284.15 484.77 295.81 484.72 315.31 484.81
  C 316.07 484.81 316.76 485.28 317.06 485.99
  C 317.61 487.33 317.89 488.84 317.90 490.53
  C 317.91 492.64 317.96 516.97 318.06 563.50
  C 318.07 569.62 318.47 575.15 319.25 580.09
  C 320.04 585.05 321.90 589.60 324.83 593.75
  C 329.46 600.28 336.32 603.14 344.05 604.55
  C 346.48 604.99 348.80 605.09 351.01 604.86
  C 357.95 604.12 366.19 601.80 370.95 596.47
  C 375.14 591.78 377.69 586.51 378.60 580.67
  C 379.44 575.31 379.87 569.68 379.89 563.79
  C 379.98 536.76 379.99 511.45 379.92 487.86
  C 379.91 485.79 380.94 484.76 383.01 484.76
  L 417.64 484.76
  C 419.40 484.76 420.83 486.19 420.84 487.95
  C 420.87 515.55 420.87 544.51 420.85 574.82
  C 420.84 578.70 420.57 582.47 420.04 586.12
  C 419.21 591.85 418.56 595.59 418.09 597.32
  C 413.30 614.95 402.39 627.63 385.34 635.38
  C 382.85 636.51 379.73 637.60 375.97 638.65
  C 371.10 640.02 367.86 640.74 366.25 640.81
  C 361.32 641.04 356.39 641.42 351.46 641.93
  C 349.90 642.09 346.24 641.91 340.49 641.39
  C 339.88 641.34 337.71 641.19 334.00 640.94
  C 331.89 640.80 329.74 640.48 327.55 639.98
  C 318.19 637.84 309.72 634.91 302.20 629.54
  C 291.08 621.59 283.75 611.05 280.21 597.93
  C 277.86 589.22 277.38 580.64 277.38 570.67
  C 277.39 543.71 277.43 516.24 277.48 488.27
  C 277.48 487.02 277.85 486.05 278.60 485.35
  Z"
/>
<path d="
  M 490.17 640.86
  C 490.13 640.99 490.04 641.09 489.91 641.13
  C 488.43 641.60 486.92 641.98 485.30 641.99
  C 473.12 642.05 462.79 642.02 454.30 641.91
  C 453.01 641.89 451.96 641.57 451.13 640.95
  C 450.87 640.75 450.69 640.46 450.65 640.13
  C 450.37 638.18 450.23 636.39 450.23 634.76
  C 450.21 583.37 450.21 552.29 450.23 541.50
  C 450.24 534.10 451.11 526.68 452.84 519.23
  C 454.91 510.31 459.20 502.96 465.73 497.17
  C 469.43 493.89 473.99 491.38 479.40 489.63
  C 485.64 487.62 491.14 485.90 497.35 486.03
  C 499.02 486.06 501.17 485.93 503.79 485.64
  C 506.40 485.35 508.55 485.17 510.22 485.12
  C 520.61 484.80 531.63 484.78 543.26 485.05
  C 545.57 485.10 546.76 486.34 546.82 488.75
  C 547.06 498.46 547.09 508.34 546.92 518.37
  C 546.88 520.58 545.76 521.68 543.55 521.67
  C 533.17 521.63 523.90 521.64 515.75 521.71
  C 514.21 521.72 511.61 522.02 507.94 522.61
  C 504.66 523.14 502.16 523.86 500.45 524.79
  C 496.28 527.05 493.55 530.63 492.27 535.53
  C 491.36 539.01 490.90 542.50 490.89 546.00
  C 490.82 575.59 490.80 606.25 490.84 638.00
  C 490.84 638.47 490.76 638.95 490.60 639.45
  C 490.53 639.65 490.39 640.12 490.17 640.86
  Z"
/>
<path d="
  M 1013.02 526.76
  C 1013.25 522.93 1014.26 518.61 1016.04 513.82
  C 1020.43 502.00 1028.29 494.02 1039.64 489.88
  C 1041.15 489.33 1044.64 488.32 1050.10 486.85
  C 1054.02 485.79 1059.59 486.10 1064.07 485.59
  C 1068.12 485.12 1070.18 484.88 1070.25 484.88
  C 1081.27 484.69 1093.52 484.66 1106.99 484.78
  C 1107.54 484.79 1107.99 485.23 1107.99 485.78
  L 1107.99 520.27
  C 1107.99 521.18 1107.53 521.64 1106.62 521.63
  C 1093.81 521.56 1083.61 521.59 1076.02 521.71
  C 1074.57 521.73 1072.11 522.04 1068.66 522.65
  C 1065.80 523.16 1063.46 523.96 1061.64 525.06
  C 1056.92 527.91 1054.16 531.85 1053.37 536.87
  C 1052.91 539.83 1052.64 544.40 1052.64 548.06
  C 1052.61 571.14 1052.61 601.44 1052.62 638.96
  C 1052.62 640.95 1051.62 641.95 1049.63 641.95
  L 1014.99 641.95
  C 1013.15 641.95 1011.66 640.46 1011.65 638.62
  C 1011.55 603.13 1011.55 570.34 1011.64 540.25
  C 1011.65 538.63 1011.88 536.39 1012.33 533.52
  C 1012.63 531.63 1012.86 529.38 1013.02 526.76
  Z"
/>
<path d="
  M 1267.44 641.34
  C 1266.35 641.65 1265.04 641.81 1263.50 641.84
  C 1255.30 641.98 1245.22 641.99 1233.27 641.87
  C 1230.18 641.84 1228.64 640.38 1228.63 637.50
  C 1228.52 594.81 1228.45 571.01 1228.42 566.10
  C 1228.39 562.00 1228.24 556.58 1227.95 549.85
  C 1227.82 546.82 1226.83 543.06 1224.96 538.55
  C 1221.96 531.31 1216.81 526.47 1209.51 524.04
  C 1204.94 522.51 1200.19 521.89 1195.24 522.18
  C 1181.51 522.98 1171.75 530.31 1168.47 544.00
  C 1167.72 547.13 1167.09 551.06 1166.60 555.80
  C 1166.27 558.95 1166.10 562.92 1166.09 567.69
  C 1166.06 579.04 1166.04 602.06 1166.05 636.75
  C 1166.05 637.33 1165.91 638.60 1165.64 640.55
  C 1165.59 640.89 1165.40 641.10 1165.07 641.19
  C 1163.44 641.62 1162.42 641.84 1162.00 641.85
  C 1149.07 642.03 1138.60 642.01 1130.59 641.79
  C 1129.36 641.76 1128.47 641.67 1127.90 641.54
  C 1126.81 641.29 1126.03 640.32 1126.03 639.20
  C 1126.02 629.32 1126.02 598.42 1126.01 546.50
  C 1126.01 543.60 1126.42 540.08 1127.25 535.93
  C 1128.12 531.55 1128.97 528.10 1129.80 525.59
  C 1133.08 515.61 1138.38 507.48 1145.69 501.19
  C 1156.04 492.30 1168.24 487.28 1182.30 486.14
  C 1182.45 486.13 1185.80 485.80 1192.36 485.17
  C 1197.29 484.69 1201.33 484.76 1204.48 485.38
  C 1207.01 485.87 1209.59 486.08 1212.22 486.01
  C 1214.95 485.93 1219.09 486.64 1224.62 488.15
  C 1232.51 490.31 1239.89 493.84 1246.75 498.75
  C 1248.08 499.70 1249.59 499.61 1251.28 498.46
  C 1260.52 492.15 1270.52 488.10 1281.27 486.29
  C 1282.32 486.12 1284.24 486.01 1287.02 485.98
  C 1288.78 485.97 1290.68 485.79 1292.72 485.46
  C 1297.59 484.67 1302.41 484.64 1307.19 485.36
  C 1310.52 485.86 1313.01 486.09 1314.66 486.04
  C 1317.21 485.97 1319.69 486.21 1322.08 486.78
  C 1327.41 488.05 1332.15 489.55 1336.30 491.30
  C 1340.93 493.25 1345.22 495.75 1349.16 498.82
  C 1360.10 507.34 1367.07 518.68 1370.06 532.85
  C 1370.77 536.22 1371.12 539.86 1371.11 543.79
  C 1371.11 545.64 1371.22 548.08 1371.45 551.11
  C 1371.52 551.98 1371.55 554.42 1371.55 558.42
  C 1371.55 583.99 1371.54 609.57 1371.53 635.14
  C 1371.53 636.58 1371.23 638.42 1371.07 639.53
  C 1370.86 641.03 1369.99 641.79 1368.48 641.82
  C 1357.72 641.99 1346.89 642.00 1335.99 641.87
  C 1334.98 641.86 1333.69 641.52 1332.85 641.32
  C 1331.65 641.05 1331.05 640.29 1331.05 639.06
  C 1331.05 608.79 1331.05 582.24 1331.04 559.39
  C 1331.03 553.68 1330.76 549.44 1330.23 546.67
  C 1329.38 542.34 1327.84 538.33 1325.61 534.66
  C 1322.34 529.30 1317.64 525.69 1311.49 523.82
  C 1299.99 520.33 1286.31 521.76 1277.88 530.73
  C 1270.62 538.44 1269.27 550.84 1269.23 562.00
  C 1269.18 575.21 1269.17 600.88 1269.22 638.99
  C 1269.22 640.08 1268.49 641.04 1267.44 641.34
  Z"
/>
<path d="
  M 1499.70 628.53
  C 1499.21 628.75 1498.74 629.08 1498.27 629.51
  C 1492.28 635.06 1485.59 638.86 1478.22 640.89
  C 1463.73 644.89 1449.19 645.06 1434.60 641.41
  C 1424.81 638.96 1416.54 634.79 1409.81 628.91
  C 1403.02 622.98 1398.36 616.21 1395.83 608.58
  C 1394.24 603.80 1393.54 598.36 1393.71 592.25
  C 1393.90 585.88 1394.90 580.51 1396.72 576.14
  C 1400.98 565.91 1408.70 558.71 1419.87 554.55
  C 1427.72 551.62 1436.19 550.12 1445.29 550.07
  C 1457.24 549.99 1469.48 549.97 1482.01 550.01
  C 1484.79 550.02 1486.80 549.52 1489.82 548.78
  C 1496.29 547.18 1499.86 543.08 1500.53 536.49
  C 1500.95 532.45 1499.67 529.21 1496.68 526.76
  C 1492.69 523.49 1487.92 522.80 1481.88 522.11
  C 1479.41 521.83 1476.51 521.69 1473.16 521.69
  C 1439.67 521.69 1419.23 521.66 1411.84 521.61
  C 1410.54 521.60 1409.56 521.54 1408.91 521.45
  C 1408.50 521.39 1408.19 521.18 1407.99 520.81
  C 1407.34 519.64 1407.01 518.78 1407.01 518.23
  C 1406.96 508.57 1406.96 498.91 1407.02 489.25
  C 1407.03 486.94 1407.90 485.54 1409.63 485.07
  C 1410.02 484.96 1411.44 484.91 1413.88 484.91
  C 1444.97 484.91 1465.51 484.86 1475.50 484.77
  C 1479.54 484.74 1483.31 484.89 1486.82 485.23
  C 1487.39 485.29 1491.03 485.60 1497.73 486.17
  C 1504.62 486.75 1511.34 488.50 1517.87 491.41
  C 1530.42 497.00 1538.38 509.14 1540.53 522.49
  C 1540.90 524.76 1541.29 528.65 1541.72 534.16
  C 1542.01 537.79 1542.15 541.70 1542.15 545.87
  C 1542.20 601.72 1542.23 632.59 1542.24 638.50
  C 1542.25 639.26 1542.09 640.02 1541.77 640.79
  C 1541.64 641.10 1541.41 641.31 1541.09 641.42
  C 1539.88 641.81 1538.77 642.01 1537.75 642.01
  C 1525.60 642.00 1514.73 641.97 1505.14 641.93
  C 1502.76 641.92 1501.57 640.73 1501.57 638.35
  L 1501.57 629.72
  C 1501.57 628.76 1500.57 628.13 1499.70 628.53
  Z
  M 1442.35 607.94
  C 1444.53 609.47 1446.70 610.54 1448.85 611.15
  C 1453.74 612.52 1460.12 613.84 1465.48 613.21
  C 1471.33 612.53 1475.50 611.86 1477.99 611.19
  C 1483.74 609.64 1488.39 607.14 1491.94 603.68
  C 1498.13 597.65 1501.18 589.95 1501.10 580.59
  C 1501.08 578.22 1500.24 576.88 1497.75 577.04
  C 1494.17 577.28 1490.20 578.01 1486.71 578.00
  C 1467.90 577.95 1456.69 577.98 1453.09 578.08
  C 1450.78 578.15 1447.46 579.01 1443.13 580.66
  C 1437.78 582.70 1435.03 586.57 1434.82 592.28
  C 1434.58 599.04 1437.09 604.26 1442.35 607.94
  Z"
/>
<path d="
  M 601.15 783.54
  C 600.46 782.81 599.78 782.83 599.13 783.60
  C 596.62 786.56 593.54 788.31 589.89 788.86
  C 583.15 789.88 577.57 789.63 573.16 788.10
  C 570.44 787.17 567.70 785.15 564.95 782.06
  C 563.10 779.99 561.59 777.06 560.41 773.27
  C 557.10 762.64 557.73 752.32 562.31 742.29
  C 564.59 737.31 568.31 733.86 573.47 731.94
  C 582.78 728.48 589.72 730.34 597.30 735.50
  C 598.49 736.31 600.09 735.46 600.09 734.03
  L 600.09 708.27
  C 600.09 707.59 600.64 707.04 601.32 707.04
  L 608.42 707.04
  C 609.63 707.04 610.61 708.02 610.61 709.23
  C 610.65 728.94 610.66 754.59 610.65 786.19
  C 610.65 787.89 609.78 788.81 608.05 788.96
  C 606.30 789.11 604.74 788.90 603.36 788.33
  C 603.05 788.20 602.86 787.98 602.77 787.66
  C 602.16 785.39 601.62 784.02 601.15 783.54
  Z
  M 569.04 760.36
  C 569.10 767.02 569.64 772.86 574.41 777.84
  C 576.90 780.45 581.39 781.58 584.81 781.55
  C 588.23 781.52 592.69 780.31 595.14 777.65
  C 599.82 772.59 600.25 766.74 600.19 760.08
  C 600.13 753.42 599.59 747.58 594.82 742.60
  C 592.33 739.99 587.84 738.86 584.42 738.89
  C 581.00 738.92 576.54 740.13 574.09 742.79
  C 569.41 747.85 568.98 753.70 569.04 760.36
  Z"
/>
<rect x="-5.29" y="-5.61" transform="translate(540.36,714.43) rotate(-0.2)" width="10.58" height="11.22" rx="3.00"/>
<path d="
  M 309.05 745.93
  C 307.99 744.63 307.05 742.50 305.91 741.61
  C 302.90 739.26 299.94 738.14 297.03 738.25
  C 294.92 738.32 292.43 739.06 289.56 740.47
  C 287.98 741.25 286.93 742.52 286.40 744.29
  C 285.12 748.56 286.79 751.59 291.40 753.38
  C 293.60 754.23 296.89 755.12 301.28 756.03
  C 304.21 756.64 307.62 757.92 311.53 759.89
  C 313.70 760.97 315.67 763.04 317.44 766.09
  C 318.67 768.21 319.19 770.81 318.99 773.90
  C 318.45 782.29 313.91 787.27 305.38 788.86
  C 301.49 789.59 296.86 789.67 291.50 789.11
  C 282.71 788.20 275.76 782.66 274.60 773.64
  C 274.41 772.11 275.08 771.29 276.61 771.17
  C 278.03 771.06 279.64 771.26 281.45 771.77
  C 282.26 772.00 283.06 772.72 283.85 773.95
  C 285.94 777.16 287.08 779.07 291.10 780.53
  C 295.17 782.00 299.37 782.05 303.69 780.66
  C 307.48 779.45 309.49 776.81 309.71 772.74
  C 309.78 771.49 309.04 770.06 307.50 768.47
  C 306.47 767.40 304.70 766.51 302.21 765.80
  C 297.37 764.43 293.14 763.26 289.52 762.30
  C 287.43 761.75 285.18 760.73 282.77 759.25
  C 278.65 756.72 276.43 753.12 276.10 748.45
  C 275.49 739.71 280.45 733.98 288.67 731.38
  C 294.32 729.59 300.02 729.70 305.78 731.70
  C 311.18 733.58 314.95 735.71 316.99 741.02
  C 317.59 742.59 317.75 744.16 317.47 745.73
  C 317.28 746.77 316.39 747.54 315.34 747.56
  C 313.34 747.61 310.44 747.65 309.05 745.93
  Z"
/>
<path d="
  M 430.01 783.53
  C 430.01 782.02 429.42 781.74 428.24 782.67
  C 427.80 783.02 426.58 783.99 424.57 785.60
  C 419.75 789.46 411.98 789.86 405.76 789.20
  C 400.90 788.69 397.13 786.66 394.46 783.10
  C 388.98 775.81 390.44 765.01 397.46 759.21
  C 400.03 757.09 404.17 755.57 409.88 754.65
  C 415.14 753.80 420.43 753.36 425.75 753.33
  C 426.42 753.33 427.15 753.07 427.93 752.54
  C 428.52 752.14 428.83 751.52 428.86 750.67
  C 429.07 744.61 426.34 740.91 420.60 739.02
  C 415.63 737.37 410.91 738.44 406.46 742.22
  C 406.03 742.59 405.36 743.55 404.45 745.12
  C 402.53 748.42 399.36 748.80 395.67 747.95
  C 395.30 747.87 395.05 747.66 394.91 747.31
  C 394.42 746.12 394.33 744.97 394.64 743.84
  C 396.11 738.43 399.42 734.68 404.55 732.57
  C 413.07 729.08 421.33 729.19 429.34 732.91
  C 434.03 735.10 436.81 738.64 437.68 743.55
  C 438.27 746.86 438.58 750.85 438.60 755.52
  C 438.60 756.85 438.58 767.42 438.55 787.23
  C 438.54 788.38 437.96 788.96 436.81 788.96
  L 431.74 788.96
  C 430.59 788.96 430.01 788.39 430.01 787.24
  L 430.01 783.53
  Z
  M 411.11 762.01
  C 406.78 762.84 403.83 764.99 402.24 768.45
  C 400.35 772.58 401.65 778.24 406.21 780.32
  C 412.98 783.41 420.50 781.26 425.61 776.07
  C 428.90 772.74 429.82 768.15 428.38 762.32
  C 428.29 761.97 428.09 761.72 427.77 761.57
  C 427.04 761.21 425.53 761.03 423.26 761.02
  C 418.65 761.01 414.60 761.34 411.11 762.01
  Z"
/>
<path d="
  M 659.69 783.64
  C 655.77 786.09 653.72 788.24 648.95 788.85
  C 644.02 789.48 640.04 789.58 637.00 789.13
  C 634.05 788.70 631.65 787.74 629.80 786.25
  C 623.67 781.31 621.85 774.88 624.34 766.95
  C 626.05 761.51 629.86 757.87 635.78 756.04
  C 640.43 754.60 647.67 753.69 657.49 753.32
  C 658.02 753.30 659.04 752.93 660.55 752.21
  C 660.86 752.06 661.01 751.82 661.00 751.48
  C 660.93 748.54 660.53 746.25 659.81 744.61
  C 658.90 742.53 657.30 740.95 655.01 739.86
  C 649.90 737.42 644.95 737.80 640.15 741.00
  C 637.87 742.52 636.92 744.53 635.32 747.18
  C 635.15 747.48 634.87 747.69 634.55 747.79
  C 632.45 748.45 630.31 748.61 628.14 748.27
  C 626.63 748.04 625.98 747.18 626.19 745.71
  C 626.87 741.00 630.03 736.27 633.90 734.07
  C 641.26 729.87 649.04 728.96 657.25 731.35
  C 661.54 732.60 664.63 734.40 666.52 736.76
  C 668.21 738.86 669.43 741.16 670.16 743.67
  C 670.64 745.32 670.89 747.83 670.92 751.22
  C 671.01 763.01 671.02 775.15 670.94 787.62
  C 670.93 788.30 670.42 788.86 669.75 788.92
  C 667.86 789.10 665.93 788.92 663.96 788.39
  C 663.19 788.18 662.60 787.57 662.42 786.79
  C 662.19 785.79 661.59 784.78 660.61 783.75
  C 660.34 783.46 660.03 783.43 659.69 783.64
  Z
  M 640.43 781.22
  C 647.26 783.14 657.20 779.52 660.06 772.83
  C 660.91 770.84 661.24 768.27 661.05 765.12
  C 660.94 763.16 661.10 761.58 658.96 761.32
  C 653.96 760.71 648.57 761.00 642.80 762.20
  C 637.11 763.39 632.52 767.65 633.41 773.86
  C 633.94 777.61 636.28 780.06 640.43 781.22
  Z"
/>
<path d="
  M 804.06 772.23
  C 800.84 761.97 801.65 752.04 806.50 742.45
  C 808.13 739.23 810.77 736.16 813.91 734.29
  C 821.96 729.49 830.21 728.83 838.66 732.32
  C 844.13 734.58 848.53 738.84 850.90 744.12
  C 851.60 745.69 852.34 747.80 853.11 750.45
  C 853.63 752.24 853.91 754.45 853.94 757.08
  C 854.00 761.99 853.98 765.02 853.88 766.18
  C 853.53 770.23 852.10 774.45 849.57 778.84
  C 846.03 785.01 840.51 788.55 833.21 789.14
  C 826.45 789.69 818.42 789.62 813.02 785.49
  C 808.81 782.28 805.83 777.86 804.06 772.23
  Z
  M 812.56 760.22
  C 812.55 767.22 813.72 774.10 819.50 778.69
  C 821.69 780.43 824.62 781.30 828.30 781.30
  C 831.98 781.30 834.92 780.44 837.11 778.70
  C 842.89 774.11 844.07 767.24 844.07 760.23
  C 844.07 753.23 842.90 746.35 837.12 741.76
  C 834.94 740.02 832.00 739.15 828.32 739.15
  C 824.64 739.15 821.71 740.02 819.52 741.76
  C 813.73 746.34 812.56 753.22 812.56 760.22
  Z"
/>
<path d="
  M 1039.85 788.18
  C 1039.10 786.39 1038.63 785.34 1038.45 785.05
  C 1037.44 783.43 1036.17 783.22 1034.64 784.41
  C 1031.83 786.60 1030.31 787.78 1026.84 788.58
  C 1021.00 789.93 1015.34 789.77 1009.86 788.11
  C 1006.79 787.18 1004.24 785.06 1002.20 781.75
  C 1000.71 779.32 999.98 776.26 1000.03 772.57
  C 1000.14 764.01 1004.69 758.36 1013.66 755.62
  C 1017.45 754.47 1024.45 753.69 1034.68 753.28
  C 1035.01 753.27 1035.88 752.90 1037.27 752.18
  C 1037.59 752.02 1037.75 751.76 1037.76 751.40
  C 1037.82 748.70 1037.26 746.24 1036.08 744.01
  C 1035.04 742.04 1033.23 740.52 1030.66 739.47
  C 1026.13 737.62 1021.65 738.01 1017.22 740.65
  C 1014.47 742.28 1013.47 744.61 1011.68 747.02
  C 1011.48 747.29 1011.22 747.48 1010.91 747.60
  C 1008.98 748.33 1006.75 748.38 1004.22 747.77
  C 1003.90 747.69 1003.65 747.44 1003.58 747.12
  C 1002.20 740.75 1007.50 734.95 1012.98 732.71
  C 1023.22 728.54 1032.56 729.24 1041.01 734.83
  C 1043.28 736.33 1045.00 738.53 1046.17 741.42
  C 1046.70 742.75 1046.97 745.33 1046.97 749.18
  C 1047.00 772.25 1047.00 785.34 1046.97 788.44
  C 1046.97 788.76 1046.81 788.92 1046.49 788.92
  L 1040.96 788.92
  C 1040.43 788.92 1040.06 788.67 1039.85 788.18
  Z
  M 1010.25 771.74
  C 1010.05 775.83 1011.75 779.32 1015.84 780.75
  C 1019.99 782.19 1023.97 782.11 1027.80 780.51
  C 1032.27 778.64 1037.15 774.52 1037.63 769.51
  C 1037.76 768.16 1037.84 766.06 1037.85 763.21
  C 1037.86 762.01 1037.26 761.37 1036.07 761.28
  C 1031.06 760.90 1026.33 761.02 1021.88 761.65
  C 1019.80 761.94 1017.71 762.59 1015.60 763.60
  C 1012.21 765.23 1010.42 767.94 1010.25 771.74
  Z"
/>
<path d="
  M 1174.11 789.38
  C 1169.83 789.38 1166.53 789.02 1164.20 788.30
  C 1158.08 786.39 1153.03 780.94 1150.65 774.59
  C 1147.29 765.63 1147.10 756.64 1150.07 747.64
  C 1151.21 744.19 1152.76 741.25 1154.73 738.81
  C 1159.27 733.17 1167.08 730.14 1174.03 730.12
  C 1180.99 730.12 1188.80 733.13 1193.36 738.76
  C 1195.33 741.19 1196.89 744.13 1198.04 747.58
  C 1201.03 756.57 1200.86 765.56 1197.53 774.53
  C 1195.17 780.89 1190.13 786.35 1184.01 788.27
  C 1181.68 789.00 1178.38 789.37 1174.11 789.38
  Z
  M 1158.29 760.15
  C 1158.24 770.39 1161.79 781.18 1174.04 781.24
  C 1186.29 781.30 1189.95 770.55 1190.01 760.31
  C 1190.06 750.06 1186.51 739.27 1174.25 739.21
  C 1162.00 739.15 1158.34 749.90 1158.29 760.15
  Z"
/>
<path d="
  M 1354.44 753.15
  C 1354.93 753.06 1355.25 752.78 1355.40 752.31
  C 1356.27 749.58 1356.16 746.99 1355.09 744.54
  C 1354.24 742.62 1352.49 741.04 1349.82 739.81
  C 1344.15 737.20 1338.78 737.99 1333.71 742.18
  C 1332.25 743.39 1331.08 747.45 1328.67 748.12
  C 1327.40 748.47 1325.82 748.46 1323.95 748.10
  C 1322.82 747.89 1322.13 747.22 1321.86 746.09
  C 1321.19 743.19 1323.80 738.96 1325.61 736.79
  C 1326.96 735.16 1328.96 733.79 1331.62 732.66
  C 1339.56 729.29 1347.43 729.16 1355.22 732.27
  C 1364.76 736.07 1366.15 744.95 1366.16 754.26
  C 1366.17 773.11 1366.14 784.17 1366.05 787.42
  C 1366.03 788.28 1365.33 788.97 1364.47 788.97
  L 1358.95 788.97
  C 1358.02 788.97 1357.49 788.51 1357.34 787.60
  L 1356.81 784.24
  C 1356.63 783.13 1355.29 782.67 1354.44 783.43
  C 1352.89 784.82 1351.43 785.96 1350.04 786.87
  C 1348.75 787.71 1347.04 788.33 1344.93 788.74
  C 1340.36 789.61 1335.77 789.66 1331.18 788.87
  C 1324.07 787.65 1319.93 782.37 1318.56 775.56
  C 1318.02 772.91 1318.26 770.11 1319.28 767.17
  C 1320.54 763.54 1322.63 760.69 1325.56 758.61
  C 1328.17 756.76 1332.47 755.36 1338.44 754.43
  C 1342.35 753.81 1347.33 753.42 1353.38 753.25
  C 1353.80 753.24 1354.15 753.20 1354.44 753.15
  Z
  M 1336.39 762.59
  C 1331.11 764.14 1328.65 767.70 1329.00 773.29
  C 1329.25 777.16 1331.05 779.65 1334.42 780.75
  C 1340.62 782.77 1346.39 781.59 1351.73 777.22
  C 1353.79 775.53 1354.98 774.06 1355.31 772.79
  C 1356.05 769.93 1356.26 766.69 1355.93 763.08
  C 1355.85 762.17 1355.14 761.44 1354.23 761.35
  C 1347.54 760.66 1341.60 761.07 1336.39 762.59
  Z"
/>
<path d="
  M 754.50 788.68
  C 752.77 788.93 750.97 789.08 749.09 789.14
  C 747.66 789.19 746.95 788.50 746.96 787.07
  C 747.02 776.52 747.03 765.70 746.98 754.61
  C 746.96 750.12 746.61 747.11 745.94 745.58
  C 744.52 742.37 741.76 740.47 737.65 739.86
  C 730.25 738.78 723.10 742.55 723.01 750.77
  C 722.98 753.84 722.97 766.17 723.00 787.75
  C 723.00 788.42 722.46 788.96 721.79 788.96
  L 714.60 788.96
  C 714.27 788.96 714.03 788.82 713.87 788.54
  C 713.07 787.15 712.67 785.81 712.66 784.50
  C 712.60 775.23 712.59 758.43 712.62 734.12
  C 712.62 733.23 713.03 732.62 713.85 732.29
  C 717.34 730.90 720.24 731.34 722.55 733.59
  C 723.80 734.81 725.17 734.96 726.68 733.94
  C 729.13 732.29 731.70 731.17 734.39 730.57
  C 740.96 729.12 748.02 732.07 753.01 736.27
  C 754.15 737.23 755.27 737.40 756.55 736.45
  C 758.76 734.82 760.83 733.07 763.01 732.13
  C 770.51 728.90 777.59 729.71 784.25 734.57
  C 788.98 738.01 790.77 745.46 790.88 751.12
  C 791.03 759.13 791.09 771.28 791.07 787.56
  C 791.07 788.33 790.45 788.95 789.68 788.95
  L 784.00 788.95
  C 782.21 788.95 780.76 787.51 780.74 785.72
  C 780.68 778.87 780.65 768.36 780.65 754.19
  C 780.65 752.68 780.55 751.23 780.36 749.82
  C 779.89 746.33 779.16 742.89 775.85 741.15
  C 772.80 739.55 769.26 739.23 765.23 740.19
  C 761.28 741.14 758.70 743.51 757.51 747.30
  C 756.80 749.59 756.52 754.17 756.69 761.04
  C 756.78 764.54 756.80 772.89 756.75 786.10
  C 756.74 787.61 755.99 788.47 754.50 788.68
  Z"
/>
<path d="
  M 926.79 762.94
  C 926.14 762.94 925.58 763.39 925.44 764.02
  C 924.15 769.82 927.50 775.77 932.03 778.99
  C 933.71 780.18 935.97 780.92 938.80 781.21
  C 946.11 781.94 951.45 779.34 954.82 773.41
  C 955.19 772.76 955.81 772.20 956.66 771.71
  C 958.21 770.83 960.99 771.14 962.33 771.21
  C 962.96 771.24 963.47 771.73 963.54 772.35
  C 963.97 776.20 962.69 779.65 959.70 782.70
  C 953.81 788.71 946.92 789.63 938.73 789.35
  C 935.27 789.23 932.51 788.77 930.44 787.96
  C 923.61 785.30 918.92 780.36 916.38 773.15
  C 912.65 762.58 913.46 752.28 918.81 742.26
  C 921.40 737.39 925.40 733.97 930.81 731.99
  C 938.93 729.02 946.60 729.68 953.82 733.97
  C 956.73 735.70 959.24 738.36 961.35 741.96
  C 963.54 745.70 964.20 750.57 965.07 755.46
  C 965.51 757.97 965.56 760.03 965.22 761.65
  C 965.06 762.40 964.40 762.94 963.63 762.94
  L 926.79 762.94
  Z
  M 927.40 755.12
  L 952.98 754.94
  C 953.99 754.93 954.81 754.10 954.80 753.09
  L 954.80 752.99
  C 954.75 744.96 948.19 738.49 940.15 738.55
  L 939.99 738.55
  C 931.96 738.61 925.49 745.16 925.54 753.19
  L 925.55 753.29
  C 925.55 754.31 926.38 755.13 927.40 755.12
  Z"
/>
<path d="
  M 1127.56 788.53
  C 1126.69 787.59 1126.28 786.49 1126.34 785.24
  C 1126.37 784.63 1126.39 784.31 1126.39 784.27
  C 1126.35 778.28 1126.33 768.42 1126.33 754.69
  C 1126.33 752.47 1126.06 750.47 1125.77 748.27
  C 1124.50 738.75 1112.06 738.38 1105.92 741.20
  C 1101.73 743.13 1099.59 746.75 1099.50 752.04
  C 1099.41 757.56 1099.41 769.02 1099.49 786.43
  C 1099.50 787.59 1098.64 788.57 1097.49 788.71
  C 1095.72 788.93 1093.81 789.06 1091.78 789.09
  C 1090.56 789.11 1089.95 788.51 1089.95 787.29
  L 1089.95 732.81
  C 1089.95 732.03 1090.34 731.61 1091.12 731.54
  C 1093.76 731.31 1095.86 731.50 1097.41 732.10
  C 1097.75 732.23 1098.03 732.47 1098.22 732.78
  C 1098.91 733.95 1099.78 734.73 1100.83 735.12
  C 1101.13 735.23 1101.42 735.20 1101.70 735.04
  C 1109.50 730.43 1116.72 728.47 1125.36 732.45
  C 1135.09 736.93 1136.84 745.78 1136.89 755.50
  C 1136.96 771.26 1136.97 781.11 1136.90 785.06
  C 1136.89 786.03 1136.64 787.17 1136.15 788.50
  C 1136.04 788.81 1135.82 788.96 1135.49 788.96
  L 1128.54 788.96
  C 1128.17 788.96 1127.82 788.80 1127.56 788.53
  Z"
/>
<path d="
  M 1242.36 768.82
  C 1240.79 767.29 1238.54 766.14 1235.62 765.39
  C 1229.70 763.87 1225.70 762.82 1223.61 762.24
  C 1222.05 761.81 1219.93 760.79 1217.24 759.19
  C 1212.22 756.20 1209.91 750.50 1210.78 745.05
  C 1211.82 738.52 1215.57 734.18 1221.77 731.87
  C 1228.60 729.32 1235.72 729.60 1243.15 732.71
  C 1248.94 735.14 1253.40 740.71 1251.27 747.00
  C 1251.17 747.32 1250.88 747.55 1250.54 747.57
  C 1248.29 747.70 1246.23 747.39 1244.34 746.62
  C 1244.03 746.49 1243.78 746.29 1243.60 746.00
  C 1242.36 744.11 1241.48 742.44 1240.00 741.31
  C 1235.59 737.94 1230.83 737.39 1225.73 739.65
  C 1222.06 741.28 1219.34 744.72 1220.59 748.70
  C 1221.66 752.13 1227.19 754.01 1230.39 754.71
  C 1235.42 755.81 1239.73 757.08 1243.33 758.53
  C 1248.95 760.79 1252.72 764.92 1253.56 771.09
  C 1254.78 779.97 1248.81 787.60 1239.94 788.88
  C 1235.73 789.49 1231.44 789.61 1227.08 789.25
  C 1223.22 788.94 1220.04 788.01 1217.55 786.47
  C 1213.15 783.75 1207.98 777.57 1209.61 772.09
  C 1209.71 771.76 1209.93 771.55 1210.28 771.47
  C 1213.00 770.84 1215.13 771.01 1216.67 771.96
  C 1217.48 772.47 1218.39 773.60 1219.42 775.37
  C 1220.89 777.92 1222.86 779.63 1225.32 780.48
  C 1230.12 782.16 1238.51 782.47 1242.19 778.30
  C 1244.16 776.07 1244.68 771.07 1242.36 768.82
  Z"
/>
<path d="
  M 1298.29 772.96
  C 1298.35 769.65 1295.89 767.37 1292.89 766.47
  C 1288.36 765.10 1284.49 764.02 1281.29 763.21
  C 1276.27 761.95 1269.04 759.36 1266.86 754.59
  C 1266.01 752.71 1265.45 751.37 1265.19 750.56
  C 1264.33 747.88 1264.48 744.99 1265.64 741.90
  C 1267.13 737.91 1269.65 735.01 1273.20 733.20
  C 1279.33 730.06 1285.65 729.33 1292.18 731.01
  C 1298.66 732.67 1303.71 735.31 1305.98 741.76
  C 1306.52 743.30 1306.61 744.94 1306.25 746.68
  C 1306.18 747.01 1305.98 747.22 1305.64 747.29
  C 1303.55 747.74 1301.47 747.60 1299.42 746.87
  C 1296.78 745.94 1296.45 743.02 1294.22 741.26
  C 1289.25 737.35 1283.85 737.17 1278.01 740.74
  C 1273.64 743.40 1273.18 749.31 1277.73 752.08
  C 1279.93 753.41 1282.52 754.40 1285.51 755.03
  C 1290.28 756.04 1294.53 757.30 1298.28 758.82
  C 1303.31 760.85 1306.43 764.57 1307.39 770.04
  C 1308.03 773.67 1307.59 777.21 1306.07 780.65
  C 1305.07 782.90 1303.21 784.91 1300.48 786.70
  C 1298.60 787.93 1296.07 788.70 1292.90 789.02
  C 1286.38 789.67 1281.21 789.54 1277.40 788.63
  C 1270.69 787.02 1266.18 783.05 1263.86 776.70
  C 1263.31 775.19 1263.18 773.67 1263.48 772.15
  C 1263.55 771.78 1263.77 771.56 1264.14 771.49
  C 1266.29 771.07 1268.23 771.03 1269.96 771.36
  C 1270.69 771.50 1271.48 772.26 1272.34 773.63
  C 1273.57 775.60 1274.79 777.18 1275.98 778.35
  C 1279.70 782.00 1286.35 782.14 1291.27 781.02
  C 1295.86 779.98 1298.20 777.29 1298.29 772.96
  Z"
/>
<path d="
  M 332.60 731.87
  C 335.33 731.18 337.98 731.31 340.54 732.25
  C 341.40 732.57 341.97 733.40 341.96 734.32
  C 341.87 744.61 341.86 754.63 341.93 764.38
  C 341.96 768.76 342.11 771.53 342.36 772.68
  C 342.97 775.49 344.73 777.79 347.64 779.56
  C 350.19 781.11 353.66 781.60 358.05 781.01
  C 365.28 780.05 368.92 775.80 368.97 768.27
  C 369.00 762.68 369.05 751.48 369.12 734.65
  C 369.12 733.38 369.70 732.47 370.87 731.94
  C 372.02 731.41 374.25 731.40 377.58 731.89
  C 377.90 731.94 378.18 732.14 378.34 732.42
  C 378.97 733.53 379.28 734.67 379.29 735.82
  C 379.32 751.51 379.32 768.47 379.27 786.70
  C 379.27 787.79 378.47 788.72 377.39 788.88
  C 376.08 789.08 374.47 789.01 372.56 788.66
  C 372.27 788.60 372.01 788.42 371.86 788.16
  L 370.32 785.50
  C 369.79 784.58 368.55 784.39 367.77 785.10
  C 364.75 787.85 361.19 789.26 357.09 789.34
  C 352.73 789.42 349.71 789.34 348.02 789.10
  C 340.26 787.98 335.15 783.73 332.68 776.35
  C 331.80 773.73 331.36 771.54 331.35 769.79
  C 331.26 754.55 331.25 742.45 331.34 733.48
  C 331.35 732.72 331.86 732.06 332.60 731.87
  Z"
/>
<path d="
  M 499.09 773.46
  C 499.60 773.16 500.03 772.64 500.40 771.90
  C 501.57 769.55 502.66 766.79 503.67 763.63
  C 505.30 758.54 508.65 748.79 513.70 734.37
  C 514.46 732.20 515.95 731.22 518.16 731.43
  L 520.76 731.68
  C 523.12 731.91 523.90 733.12 523.11 735.33
  C 516.28 754.24 510.70 769.92 506.37 782.37
  C 506.14 783.01 505.52 784.55 504.51 786.99
  C 504.12 787.92 503.50 788.47 502.64 788.64
  C 500.08 789.15 497.61 789.14 495.23 788.59
  C 494.90 788.52 494.62 788.32 494.45 788.04
  C 494.03 787.35 493.50 786.16 492.85 784.49
  C 490.64 778.70 484.69 762.29 475.02 735.27
  C 474.25 733.11 475.01 731.92 477.29 731.70
  C 478.37 731.59 479.25 731.52 479.94 731.49
  C 482.24 731.38 483.77 732.42 484.52 734.60
  L 497.81 772.99
  C 498.00 773.51 498.61 773.74 499.09 773.46
  Z"
/>
<rect x="-5.08" y="-28.70" transform="translate(540.16,760.31) rotate(-0.1)" width="10.16" height="57.40" rx="2.85"/>
<path d="
  M 884.24 773.56
  C 884.69 773.55 885.04 773.30 885.28 772.79
  C 885.85 771.59 886.36 770.37 886.81 769.12
  C 887.36 767.61 891.26 756.29 898.51 735.15
  C 899.51 732.24 901.53 731.04 904.57 731.54
  C 904.66 731.55 904.75 731.57 904.85 731.58
  C 907.86 731.87 908.86 733.44 907.84 736.29
  C 901.75 753.32 896.43 768.30 891.90 781.21
  C 891.12 783.44 890.25 785.64 889.30 787.82
  C 889.02 788.47 888.38 788.89 887.68 788.90
  C 886.57 788.91 885.43 788.92 884.26 788.92
  C 883.08 788.92 881.94 788.92 880.84 788.91
  C 880.13 788.90 879.50 788.48 879.22 787.83
  C 878.26 785.65 877.39 783.45 876.60 781.23
  C 872.04 768.32 866.69 753.36 860.56 736.34
  C 859.54 733.49 860.53 731.92 863.54 731.63
  C 863.64 731.61 863.73 731.60 863.82 731.58
  C 866.86 731.08 868.88 732.28 869.89 735.18
  C 877.19 756.31 881.11 767.62 881.66 769.13
  C 882.12 770.37 882.63 771.59 883.20 772.79
  C 883.44 773.30 883.79 773.55 884.24 773.56
  Z"
/>
</g>
</svg>
