<?xml version="1.0" encoding="UTF-8" standalone="no"?>
<!DOCTYPE svg PUBLIC "-//W3C//DTD SVG 1.1//EN" "http://www.w3.org/Graphics/SVG/1.1/DTD/svg11.dtd">
<svg xmlns="http://www.w3.org/2000/svg" version="1.1" viewBox="0.00 0.00 344.00 372.00" width="344.00" height="372.00">
<g fill="#ffffff">
<path d="
  M 241.80 91.30
  C 242.20 91.90 242.57 92.57 242.92 93.32
  C 250.80 110.53 256.80 128.36 260.91 146.79
  C 261.56 149.69 261.99 152.52 262.19 155.28
  C 262.26 156.35 261.76 156.93 260.69 157.02
  C 255.82 157.38 246.96 158.11 234.12 159.20
  C 229.17 159.62 224.69 160.18 220.68 160.88
  C 217.13 161.49 212.65 162.12 207.24 162.75
  C 205.84 162.91 202.85 163.47 198.26 164.44
  C 195.94 164.93 192.93 165.42 189.22 165.93
  C 186.75 166.27 185.10 166.90 186.17 169.82
  C 186.52 170.77 187.01 171.43 187.66 171.80
  C 188.09 172.05 188.83 172.09 189.88 171.92
  C 199.88 170.31 205.88 169.30 207.89 168.87
  C 210.06 168.41 212.94 168.01 216.52 167.68
  C 216.64 167.67 219.52 167.28 225.17 166.50
  C 237.34 164.83 244.70 164.01 247.25 164.03
  C 253.04 164.08 257.55 163.97 260.77 163.70
  C 264.78 163.37 264.56 165.69 264.93 169.00
  C 266.10 179.41 266.76 185.36 266.92 186.86
  C 267.59 193.10 267.95 199.06 268.00 204.74
  C 268.05 211.36 268.00 218.70 267.83 226.75
  C 267.78 229.50 267.48 232.06 266.95 234.44
  C 266.84 234.93 266.47 235.33 265.99 235.47
  C 263.22 236.30 260.40 236.86 257.53 237.16
  C 252.68 237.66 249.84 237.97 249.01 238.09
  C 244.34 238.76 239.10 238.95 235.18 239.60
  C 228.47 240.71 220.59 242.03 211.54 243.55
  C 210.71 243.69 209.09 244.14 206.68 244.89
  C 205.68 245.20 204.45 245.83 204.49 247.22
  C 204.62 251.06 208.58 250.28 211.43 249.61
  C 215.53 248.65 219.32 247.97 222.80 247.58
  C 226.96 247.11 230.75 246.54 234.17 245.87
  C 239.50 244.83 245.48 244.20 252.10 243.98
  C 255.91 243.85 259.81 242.74 263.84 242.83
  C 265.05 242.86 265.98 243.91 265.86 245.11
  C 265.51 248.54 265.13 251.75 264.71 254.74
  C 264.16 258.56 262.61 265.53 260.05 275.65
  C 256.10 291.26 250.16 305.53 242.22 318.46
  C 239.87 322.29 235.81 327.47 230.04 333.98
  C 228.33 335.93 226.52 337.65 224.61 339.15
  C 221.51 341.58 219.49 343.06 218.56 343.59
  C 216.17 344.94 210.99 346.52 207.43 347.25
  C 200.03 348.77 195.95 349.61 195.19 349.77
  C 191.60 350.51 187.80 350.93 183.80 351.02
  C 178.18 351.16 173.84 352.03 168.45 351.74
  C 160.36 351.29 153.14 351.15 145.91 350.01
  C 124.64 346.65 104.84 339.44 86.49 328.38
  C 85.26 327.64 84.59 326.53 84.48 325.05
  C 84.21 321.50 88.27 317.03 90.88 314.63
  C 93.53 312.20 97.66 309.35 103.27 306.06
  C 112.86 300.44 124.16 295.32 137.15 290.69
  C 151.04 285.74 161.87 282.33 169.64 280.44
  C 176.57 278.76 182.30 277.15 186.83 275.60
  C 187.98 275.22 188.66 274.05 188.44 272.86
  C 187.81 269.48 187.14 266.40 186.43 263.63
  C 185.51 260.08 184.79 257.02 184.28 254.45
  C 183.43 250.24 182.74 247.12 182.21 245.11
  C 180.94 240.33 180.11 236.72 179.73 234.28
  C 179.35 231.88 178.06 230.92 175.85 231.41
  C 150.32 237.03 125.21 245.08 100.54 255.55
  C 94.66 258.05 87.51 261.56 79.09 266.09
  C 72.06 269.87 65.57 274.26 59.61 279.27
  C 54.84 283.29 51.80 287.38 49.45 293.02
  C 48.96 294.18 47.46 294.48 46.57 293.59
  C 41.07 288.07 36.75 281.19 31.35 272.44
  C 29.30 269.11 28.79 266.02 29.82 263.19
  C 30.61 261.02 32.48 258.19 35.43 254.68
  C 37.70 251.99 41.44 248.63 46.65 244.61
  C 50.07 241.97 54.24 239.20 59.17 236.31
  C 72.82 228.32 88.44 221.13 106.03 214.73
  C 118.83 210.07 128.98 206.66 136.48 204.51
  C 144.11 202.32 154.71 199.47 168.28 195.95
  C 169.74 195.57 170.60 194.07 170.20 192.62
  C 169.23 189.13 168.38 185.67 167.65 182.23
  C 166.70 177.78 165.91 174.29 165.28 171.75
  C 163.35 163.94 162.11 158.76 161.55 156.21
  C 160.90 153.28 159.09 152.22 156.11 153.05
  C 147.20 155.53 138.28 157.97 129.35 160.37
  C 123.56 161.93 112.98 165.58 97.59 171.33
  C 75.20 179.70 53.37 190.15 33.39 203.37
  C 26.88 207.68 21.01 212.58 15.76 218.09
  C 14.94 218.95 13.98 219.40 12.97 219.53
  C 12.10 219.64 11.30 219.01 11.20 218.14
  C 10.14 208.84 9.37 198.97 8.89 188.53
  C 8.70 184.45 10.97 181.89 14.07 178.66
  C 15.38 177.29 16.81 175.99 18.36 174.74
  C 27.27 167.57 37.64 161.13 49.46 155.44
  C 64.74 148.07 80.00 141.83 95.24 136.72
  C 114.90 130.11 132.89 124.95 149.22 121.24
  C 153.87 120.18 152.66 117.53 151.82 113.72
  C 150.11 106.04 148.34 98.38 146.49 90.74
  C 146.40 90.36 145.92 88.10 145.05 83.95
  C 144.38 80.74 143.79 77.34 142.37 75.67
  C 142.03 75.26 141.45 75.07 140.62 75.08
  C 139.21 75.10 137.93 75.25 136.76 75.53
  C 120.35 79.47 104.24 84.34 88.42 90.15
  C 72.18 96.12 58.30 102.39 46.79 108.98
  C 43.24 111.01 40.11 112.94 37.39 114.77
  C 37.06 114.99 34.00 117.04 28.19 120.93
  C 27.57 121.34 26.93 121.66 26.27 121.89
  C 25.90 122.02 25.52 121.71 25.56 121.32
  C 25.77 119.55 26.37 117.71 27.36 115.82
  C 32.66 105.65 37.70 97.70 42.48 91.97
  C 45.79 88.00 50.73 81.71 54.98 77.44
  C 80.03 52.34 110.15 36.85 145.32 30.98
  C 148.59 30.43 152.07 30.04 155.76 29.80
  C 162.45 29.37 165.94 29.15 166.24 29.14
  C 172.34 28.94 178.59 29.33 184.98 30.32
  C 186.23 30.51 187.28 30.79 188.11 31.16
  C 194.86 34.09 201.46 38.43 207.93 44.17
  C 215.84 51.18 223.27 59.90 230.22 70.35
  C 232.27 73.42 233.76 76.28 234.68 78.92
  C 234.84 79.39 234.59 79.90 234.12 80.06
  C 232.03 80.77 230.15 81.20 228.46 81.35
  C 218.54 82.27 213.19 82.77 212.42 82.84
  C 209.96 83.09 207.04 83.51 203.66 84.10
  C 196.22 85.41 190.08 85.81 183.13 87.38
  C 180.18 88.04 176.26 88.69 171.36 89.34
  C 169.36 89.61 168.50 90.73 168.78 92.70
  C 168.80 92.81 168.81 92.90 168.82 92.95
  C 169.06 94.94 170.18 95.75 172.17 95.40
  C 181.06 93.85 190.23 92.30 199.67 90.77
  C 204.10 90.04 208.84 90.02 213.06 89.03
  C 217.39 88.02 221.74 87.97 226.75 87.49
  C 230.61 87.12 234.32 87.07 237.88 87.34
  C 239.32 87.45 240.06 88.03 240.72 89.29
  C 241.34 90.48 241.70 91.15 241.80 91.30
  Z"
/>
<path d="
  M 202.29 34.82
  L 200.48 33.77
  C 199.97 33.48 200.01 33.28 200.58 33.17
  C 202.85 32.74 205.53 32.94 208.61 33.75
  C 238.97 41.74 264.87 56.75 286.30 78.79
  C 286.93 79.43 287.55 80.50 288.16 81.99
  C 288.46 82.71 288.22 83.04 287.44 82.97
  C 284.13 82.69 280.10 82.18 275.37 81.43
  C 266.28 80.00 260.11 80.16 248.16 80.02
  C 246.69 80.00 245.53 79.93 244.68 79.82
  C 244.28 79.77 243.94 79.60 243.65 79.32
  C 243.04 78.73 242.24 78.01 241.90 77.46
  C 239.21 73.16 236.72 69.38 234.43 66.12
  C 225.96 54.05 215.66 44.04 203.55 36.07
  C 203.30 35.90 202.89 35.50 202.32 34.85
  C 202.31 34.84 202.30 34.83 202.29 34.82
  Z"
/>
<path d="
  M 250.29 93.24
  C 249.42 91.36 248.79 89.49 248.38 87.62
  C 248.21 86.83 248.78 86.07 249.59 86.01
  C 257.23 85.45 263.85 85.54 269.44 86.27
  C 273.49 86.80 276.75 87.11 279.22 87.18
  C 283.91 87.31 288.76 88.31 293.77 90.17
  C 295.13 90.68 297.00 91.77 297.88 92.92
  C 313.87 113.67 324.15 137.18 328.72 163.45
  C 328.95 164.82 328.38 165.47 327.00 165.40
  C 325.26 165.33 323.31 164.75 321.14 163.66
  C 320.05 163.11 317.04 162.14 312.12 160.73
  C 309.30 159.93 306.21 159.30 302.85 158.84
  C 293.88 157.62 284.88 157.00 275.83 156.99
  C 274.50 156.99 273.19 156.85 271.89 156.58
  C 271.32 156.46 270.86 156.05 270.66 155.51
  C 269.60 152.55 268.54 148.75 267.48 144.10
  C 266.04 137.78 265.12 133.93 264.72 132.56
  C 260.69 118.55 255.88 105.45 250.29 93.24
  Z"
/>
<path d="
  M 272.35 169.52
  C 272.07 167.97 271.90 166.60 271.83 165.43
  C 271.76 164.20 272.68 163.14 273.90 163.02
  C 277.72 162.65 281.96 162.76 286.62 163.35
  C 288.71 163.62 292.37 163.88 297.60 164.15
  C 303.36 164.45 309.78 165.75 316.85 168.04
  C 321.10 169.42 324.75 171.15 327.78 173.24
  C 329.06 174.13 329.76 175.46 329.87 177.24
  C 330.18 182.26 330.47 186.33 330.74 189.46
  C 331.15 194.35 330.17 199.04 330.08 203.87
  C 330.01 207.53 329.64 211.40 328.95 215.48
  C 327.38 224.79 325.30 233.27 322.69 240.92
  C 322.30 242.05 321.01 242.58 319.95 242.05
  C 315.50 239.82 310.79 238.21 305.80 237.22
  C 301.07 236.27 296.15 235.82 291.03 235.87
  C 286.52 235.92 281.55 235.92 276.10 235.88
  C 275.16 235.87 274.62 235.41 274.47 234.48
  C 274.25 233.15 274.17 231.52 274.23 229.59
  C 274.74 213.64 274.92 204.61 274.78 202.50
  C 274.34 195.86 274.08 190.55 274.01 186.58
  C 273.96 184.31 273.81 182.15 273.56 180.09
  C 273.24 177.48 273.00 173.15 272.35 169.52
  Z"
/>
<path d="
  M 315.42 248.62
  C 318.01 250.19 318.49 252.76 316.86 256.33
  C 301.79 289.44 278.23 314.81 246.16 332.42
  C 241.36 335.05 236.92 337.00 232.84 338.27
  C 231.97 338.54 231.36 338.64 230.99 338.55
  C 230.12 338.36 229.99 337.98 230.61 337.42
  C 237.86 330.84 244.07 323.53 249.23 315.48
  C 254.94 306.57 259.51 297.05 262.92 286.94
  C 266.43 276.55 268.70 268.33 269.73 262.29
  C 271.13 254.07 272.45 247.75 273.70 243.34
  C 273.86 242.77 274.38 242.36 274.98 242.32
  C 286.04 241.63 296.81 242.50 307.30 244.92
  C 308.67 245.24 310.09 245.78 311.54 246.55
  C 314.11 247.92 315.40 248.61 315.42 248.62
  Z"
/>
</g>
</svg>
