<?xml version="1.0" encoding="UTF-8" standalone="no"?>
<!DOCTYPE svg PUBLIC "-//W3C//DTD SVG 1.1//EN" "http://www.w3.org/Graphics/SVG/1.1/DTD/svg11.dtd">
<svg xmlns="http://www.w3.org/2000/svg" version="1.1" viewBox="0.00 0.00 1543.00 835.00" width="1543.00" height="835.00">
<g fill="#1b1718">
<path d="
  M 755.24 238.33
  C 752.95 238.47 750.61 239.28 749.05 239.64
  C 721.72 245.97 695.42 254.89 670.15 266.40
  C 658.33 271.77 647.50 278.43 637.65 286.37
  C 633.96 289.34 630.52 293.66 627.34 299.35
  C 626.69 300.52 625.70 300.82 624.37 300.24
  C 623.79 299.98 623.11 299.39 622.34 298.46
  C 618.43 293.81 614.24 287.75 609.75 280.27
  C 606.30 274.53 606.97 271.13 610.76 265.51
  C 615.79 258.03 624.47 251.49 632.32 246.57
  C 640.29 241.57 648.57 237.11 657.17 233.20
  C 676.53 224.39 696.40 217.10 716.79 211.31
  C 725.60 208.81 735.53 206.16 746.60 203.35
  C 747.52 203.12 748.12 202.24 748.01 201.30
  C 747.15 193.96 744.59 184.71 743.50 179.67
  C 742.31 174.15 741.00 168.66 739.57 163.19
  C 739.34 162.30 738.96 161.49 738.43 160.76
  C 738.23 160.49 737.96 160.33 737.63 160.29
  C 736.06 160.09 734.40 160.21 732.64 160.66
  C 721.57 163.49 712.86 165.87 706.52 167.78
  C 678.21 176.32 651.77 187.29 627.22 200.69
  C 620.23 204.50 613.09 209.13 605.82 214.56
  C 601.58 217.73 597.59 221.23 593.84 225.08
  C 592.18 226.79 590.79 226.84 589.68 225.23
  C 589.51 224.97 589.41 224.68 589.38 224.38
  C 588.95 218.86 587.62 213.40 587.42 208.19
  C 587.17 201.60 586.64 196.29 587.92 191.66
  C 588.23 190.51 588.87 189.41 589.83 188.34
  C 592.16 185.75 593.67 184.16 594.36 183.59
  C 601.97 177.28 610.22 171.78 619.11 167.09
  C 632.98 159.78 647.11 153.51 661.52 148.26
  C 683.31 140.33 705.38 133.74 727.71 128.50
  C 728.34 128.35 729.08 127.97 729.92 127.35
  C 730.19 127.15 730.34 126.88 730.36 126.54
  C 730.49 124.19 730.40 122.40 730.11 121.19
  C 727.85 111.83 725.24 100.52 722.27 87.26
  C 722.14 86.69 721.85 85.67 721.40 84.22
  C 720.84 82.40 719.57 81.68 717.59 82.06
  C 714.74 82.60 711.81 83.26 708.79 84.05
  C 685.65 90.05 662.82 97.75 641.05 107.74
  C 629.07 113.24 617.65 119.91 606.79 127.75
  C 606.24 128.14 605.46 128.49 604.43 128.79
  C 603.97 128.92 603.54 128.51 603.65 128.04
  C 604.10 126.15 604.74 124.40 605.56 122.80
  C 612.84 108.65 622.04 95.94 633.16 84.65
  C 635.13 82.66 637.85 80.02 641.34 76.75
  C 643.95 74.30 646.84 71.94 650.01 69.67
  C 653.65 67.07 657.86 63.81 662.28 61.09
  C 681.64 49.13 702.73 41.48 725.56 38.15
  C 730.44 37.44 736.38 37.03 743.38 36.93
  C 750.94 36.82 756.91 36.91 761.29 37.18
  C 763.31 37.30 765.73 38.11 768.55 39.60
  C 782.08 46.75 793.49 56.91 802.80 70.07
  C 807.43 76.60 811.50 81.46 812.15 85.92
  C 812.34 87.27 811.52 88.02 809.67 88.19
  C 799.00 89.13 791.16 89.57 782.55 91.04
  C 778.38 91.75 774.58 92.33 771.16 92.78
  C 763.83 93.74 754.82 95.57 748.73 96.78
  C 746.74 97.17 746.01 98.39 746.54 100.43
  C 746.55 100.46 746.56 100.50 746.57 100.55
  C 746.92 102.58 748.25 103.38 750.57 102.93
  C 762.14 100.69 775.03 98.61 789.24 96.69
  C 796.45 95.72 803.21 95.01 809.50 94.57
  C 812.85 94.33 814.70 94.24 815.05 94.31
  C 817.06 94.67 818.61 95.99 819.69 98.26
  C 829.04 117.93 835.71 138.28 839.68 159.31
  C 839.91 160.55 839.78 161.80 839.28 163.05
  C 839.16 163.34 838.90 163.56 838.59 163.62
  C 837.36 163.87 836.50 164.02 836.01 164.07
  C 823.35 165.32 813.81 166.24 807.40 166.81
  C 804.54 167.06 800.98 167.56 796.71 168.29
  C 791.59 169.16 786.85 169.52 782.46 170.35
  C 779.98 170.82 774.59 171.81 766.30 173.34
  C 764.54 173.67 763.85 174.73 764.22 176.54
  L 764.40 177.43
  C 764.76 179.17 765.83 179.87 767.61 179.54
  C 784.97 176.30 802.94 173.72 821.53 171.80
  C 828.09 171.12 834.28 170.90 840.10 171.13
  C 840.66 171.15 841.16 171.47 841.42 171.97
  C 841.91 172.93 842.27 174.11 842.50 175.51
  C 843.66 182.63 844.46 189.79 844.91 197.00
  C 845.10 200.15 845.32 206.16 845.55 215.04
  C 845.66 218.95 845.62 223.09 845.43 227.45
  C 845.16 233.95 845.00 238.09 844.95 239.86
  C 844.89 242.10 843.74 243.33 841.51 243.55
  C 824.40 245.26 812.73 246.69 806.52 247.83
  C 804.20 248.25 802.74 248.50 802.15 248.59
  C 793.78 249.81 787.93 250.83 784.60 251.65
  C 782.69 252.12 781.96 253.33 782.43 255.28
  C 782.44 255.30 782.44 255.34 782.45 255.41
  C 782.67 257.32 783.85 258.07 785.99 257.67
  C 794.26 256.12 804.51 254.45 816.74 252.67
  C 824.91 251.48 832.39 250.90 839.20 250.91
  C 840.45 250.91 841.57 251.05 842.55 251.34
  C 842.89 251.44 843.12 251.65 843.24 251.98
  C 843.57 252.87 843.63 253.97 843.44 255.26
  C 841.65 267.43 839.58 277.59 837.22 285.75
  C 833.97 297.00 830.21 306.90 825.92 315.45
  C 822.15 322.98 817.51 330.08 812.00 336.75
  C 807.47 342.24 802.29 346.90 796.46 350.72
  C 794.86 351.77 791.31 352.93 785.81 354.21
  C 783.25 354.81 778.83 355.70 772.55 356.88
  C 769.05 357.54 765.85 357.93 762.94 358.06
  C 758.56 358.26 753.96 358.96 750.02 358.96
  C 725.15 358.97 701.55 353.81 679.20 343.49
  C 674.67 341.40 670.00 338.83 665.17 335.76
  C 663.54 334.73 662.92 333.01 663.33 330.60
  C 663.92 327.13 665.99 324.02 669.55 321.25
  C 677.66 314.94 687.08 309.52 697.79 304.99
  C 715.76 297.40 733.21 291.47 750.15 287.21
  C 756.96 285.50 761.88 284.17 764.93 283.23
  C 765.74 282.98 766.28 282.22 766.25 281.38
  C 766.16 278.55 765.84 276.01 765.30 273.75
  C 763.23 265.08 761.23 256.42 759.29 247.75
  C 758.54 244.38 757.81 241.66 757.11 239.60
  C 756.84 238.80 756.08 238.28 755.24 238.33
  Z"
/>
<path d="
  M 865.41 89.52
  C 864.22 89.79 863.19 89.86 862.30 89.75
  C 861.65 89.67 856.31 88.88 846.26 87.38
  C 844.13 87.06 837.39 86.96 826.05 87.08
  C 824.78 87.09 823.21 86.78 821.36 86.17
  C 821.03 86.06 820.74 85.84 820.55 85.54
  C 817.41 80.73 815.52 77.85 814.88 76.88
  C 805.83 63.21 794.61 51.93 781.23 43.04
  C 780.52 42.57 780.23 41.93 780.36 41.12
  C 780.41 40.78 780.61 40.60 780.96 40.59
  C 782.61 40.53 783.59 40.53 783.89 40.60
  C 812.05 47.21 836.84 60.39 858.25 80.16
  C 860.68 82.41 862.99 84.86 865.18 87.52
  C 865.47 87.88 865.68 88.35 865.80 88.93
  C 865.85 89.20 865.68 89.46 865.41 89.52
  Z"
/>
<path d="
  M 827.37 94.76
  C 828.52 94.21 829.69 93.92 830.87 93.88
  C 837.94 93.65 845.59 93.74 853.83 94.16
  C 860.44 94.50 866.82 95.78 872.99 98.00
  C 873.92 98.33 875.34 99.45 876.06 100.41
  C 891.08 120.22 900.97 142.27 905.74 166.54
  C 906.05 168.11 906.12 169.63 905.96 171.12
  C 905.92 171.46 905.74 171.69 905.42 171.80
  C 904.05 172.27 902.58 172.18 901.00 171.54
  C 895.54 169.31 890.12 167.66 884.74 166.57
  C 875.04 164.61 864.81 163.77 854.04 164.04
  C 852.49 164.08 851.01 163.86 849.60 163.37
  C 849.27 163.26 849.02 163.05 848.85 162.75
  C 847.71 160.67 846.96 158.55 846.60 156.40
  C 845.73 151.16 844.81 146.89 843.86 143.58
  C 842.15 137.63 840.47 132.06 838.84 126.89
  C 836.38 119.11 832.71 109.99 827.82 99.54
  C 827.35 98.54 827.02 97.29 826.82 95.79
  C 826.77 95.36 826.99 94.95 827.37 94.76
  Z"
/>
<path d="
  M 851.41 171.21
  C 856.27 170.48 861.38 170.93 867.01 171.02
  C 877.04 171.17 886.11 172.75 895.44 175.57
  C 897.59 176.22 900.26 177.38 903.47 179.05
  C 906.20 180.48 907.68 182.73 907.93 185.79
  C 908.45 192.30 909.17 198.13 908.55 204.42
  C 908.01 209.89 908.09 215.28 907.15 220.18
  C 906.06 225.81 905.11 232.91 903.12 239.66
  C 902.05 243.33 901.26 245.94 900.75 247.49
  C 900.34 248.74 898.97 249.40 897.74 248.94
  C 895.08 247.95 892.47 246.94 889.91 245.91
  C 886.48 244.53 881.27 243.61 874.30 243.16
  C 868.86 242.80 860.77 243.20 853.06 242.47
  C 852.73 242.44 852.53 242.25 852.48 241.92
  C 852.33 240.89 852.19 238.29 852.32 236.70
  C 853.44 223.51 853.43 210.32 852.28 197.15
  C 852.17 195.85 852.11 194.37 852.10 192.72
  C 852.09 186.46 850.58 179.98 850.24 175.27
  C 850.18 174.46 850.34 173.31 850.72 171.82
  C 850.81 171.47 851.04 171.26 851.41 171.21
  Z"
/>
<path d="
  M 809.86 344.05
  C 810.11 343.19 810.36 342.65 810.63 342.42
  C 823.66 331.27 832.93 315.45 839.07 299.34
  C 844.74 284.45 848.61 269.20 850.67 253.57
  C 851.02 250.92 852.56 249.58 855.31 249.55
  C 862.22 249.46 868.65 249.80 874.60 250.57
  C 880.80 251.37 883.99 251.75 889.11 253.63
  C 891.27 254.42 893.01 255.43 894.32 256.68
  C 896.25 258.50 895.06 262.85 893.95 265.21
  C 878.36 298.55 854.23 323.74 821.56 340.79
  C 818.15 342.57 814.62 344.13 810.96 345.48
  C 810.50 345.65 809.88 345.36 809.44 344.79
  C 809.37 344.70 809.41 344.60 809.58 344.47
  C 809.71 344.37 809.81 344.22 809.86 344.05
  Z"
/>
<path d="
  M 864.32 603.82
  C 863.67 603.54 862.93 603.67 862.43 604.15
  C 859.61 606.83 856.86 609.62 853.53 611.56
  C 847.50 615.07 840.73 617.45 833.22 618.69
  C 820.28 620.82 807.68 620.24 795.43 616.93
  C 786.40 614.50 778.40 610.21 771.44 604.06
  C 766.05 599.30 761.98 593.23 759.21 585.84
  C 756.76 579.31 755.86 572.83 756.50 566.39
  C 757.23 559.12 759.01 552.95 761.82 547.86
  C 768.14 536.46 779.23 531.17 791.98 528.31
  C 795.63 527.49 800.85 526.92 807.64 526.61
  C 817.40 526.16 829.38 525.95 843.57 526.00
  C 848.86 526.02 852.58 525.57 854.71 524.64
  C 858.59 522.97 861.34 520.09 862.95 516.01
  C 864.09 513.13 863.97 510.17 862.58 507.14
  C 861.05 503.79 858.24 501.44 854.17 500.09
  C 848.86 498.32 841.58 497.42 832.32 497.37
  C 800.63 497.22 764.13 497.16 722.82 497.21
  C 721.56 497.21 720.54 498.23 720.54 499.49
  C 720.55 561.06 720.52 598.90 720.46 613.00
  C 720.45 614.37 720.38 615.37 720.25 616.00
  C 719.98 617.33 719.16 617.99 717.81 617.99
  L 684.27 617.99
  C 681.80 617.99 680.57 616.76 680.57 614.29
  L 680.57 500.07
  C 680.57 498.56 679.34 497.33 677.83 497.33
  C 673.48 497.33 668.89 497.31 664.06 497.28
  C 663.18 497.27 662.48 497.20 661.97 497.08
  C 661.21 496.90 660.51 496.75 659.88 496.62
  C 659.27 496.50 658.96 496.13 658.96 495.50
  L 658.96 463.00
  C 658.96 462.32 659.30 461.98 659.99 461.98
  L 678.28 461.98
  C 679.52 461.98 680.52 460.98 680.51 459.74
  C 680.48 451.01 681.24 442.18 682.78 433.25
  C 683.35 429.92 684.70 426.02 686.83 421.54
  C 690.44 413.94 696.29 408.13 704.36 404.11
  C 708.01 402.30 713.49 400.67 720.81 399.22
  C 724.72 398.45 730.39 398.03 737.82 397.96
  C 747.29 397.87 757.42 397.90 768.20 398.07
  C 769.09 398.08 769.81 398.81 769.81 399.70
  L 769.81 431.21
  C 769.81 432.88 768.98 433.71 767.31 433.72
  C 757.27 433.72 748.26 433.40 739.01 434.65
  C 735.25 435.16 732.44 435.94 730.59 436.99
  C 725.90 439.65 722.99 443.88 721.88 449.68
  C 721.19 453.30 720.93 456.66 721.10 459.75
  C 721.19 461.28 722.07 462.04 723.75 462.04
  C 760.26 462.05 786.42 462.06 802.25 462.05
  C 804.10 462.05 810.77 461.95 822.24 461.76
  C 832.25 461.59 842.50 461.65 853.01 461.95
  C 861.94 462.20 870.09 463.68 877.44 466.37
  C 887.95 470.21 895.37 477.17 899.72 487.24
  C 902.35 493.32 903.98 499.91 904.63 507.01
  C 904.86 509.54 904.98 516.20 904.97 527.00
  C 904.95 556.27 904.94 586.44 904.94 617.50
  C 904.94 617.74 904.75 617.93 904.51 617.94
  C 891.78 618.01 880.86 618.02 871.75 617.97
  C 869.67 617.96 867.62 617.73 865.61 617.26
  C 865.28 617.19 865.11 616.98 865.11 616.64
  C 865.09 610.83 865.04 607.07 864.96 605.34
  C 864.92 604.49 864.71 603.98 864.32 603.82
  Z
  M 857.52 576.75
  C 862.15 570.80 864.51 563.33 864.58 554.36
  C 864.59 553.50 863.86 552.83 863.01 552.89
  C 857.60 553.27 853.08 554.00 847.35 553.99
  C 830.48 553.95 821.12 553.98 819.25 554.07
  C 810.76 554.50 800.75 556.21 797.86 565.26
  C 795.20 573.59 800.49 582.28 808.05 585.98
  C 814.34 589.06 821.12 590.35 828.40 589.84
  C 839.38 589.07 850.44 585.84 857.52 576.75
  Z"
/>
<path d="
  M 69.97 553.93
  C 69.07 553.93 68.32 554.61 68.22 555.51
  C 68.03 557.28 68.19 559.00 68.70 560.67
  C 72.64 573.39 81.20 580.63 94.37 582.39
  C 101.48 583.34 108.28 583.21 114.77 581.98
  C 119.90 581.01 123.65 579.69 126.02 578.01
  C 128.24 576.43 130.46 574.81 132.68 573.14
  C 133.53 572.49 135.48 572.18 138.53 572.19
  C 157.54 572.26 169.70 572.29 175.00 572.27
  C 175.63 572.27 176.15 572.74 176.21 573.36
  C 176.43 575.61 176.00 578.03 174.91 580.63
  C 168.74 595.42 158.71 605.90 144.82 612.08
  C 141.04 613.76 136.01 615.16 132.08 616.27
  C 130.40 616.75 128.66 617.15 126.86 617.46
  C 110.21 620.34 93.58 620.04 76.97 616.56
  C 62.12 613.45 47.66 605.25 38.99 592.50
  C 34.89 586.47 31.62 578.79 29.17 569.46
  C 28.65 567.47 27.99 563.79 27.18 558.41
  C 26.55 554.27 26.19 550.54 26.09 547.22
  C 25.72 534.86 25.89 523.22 28.37 511.37
  C 30.47 501.34 34.73 490.62 41.18 482.72
  C 47.88 474.52 55.97 468.67 65.44 465.17
  C 72.55 462.54 80.43 460.73 89.06 459.73
  C 94.39 459.11 101.06 458.88 109.06 459.04
  C 117.75 459.22 126.75 460.63 136.04 463.26
  C 152.96 468.05 165.24 478.02 172.89 493.15
  C 175.84 498.98 178.19 506.42 179.96 515.46
  C 180.58 518.65 180.93 521.74 181.02 524.75
  C 181.20 530.81 182.10 536.59 181.61 542.96
  C 181.53 544.01 181.29 546.94 180.89 551.75
  C 180.77 553.20 179.98 553.93 178.52 553.93
  L 69.97 553.93
  Z
  M 68.20 526.08
  L 139.34 525.96
  C 139.58 525.96 139.78 525.76 139.78 525.52
  L 139.78 525.18
  C 139.75 508.83 126.01 495.60 109.10 495.63
  L 98.32 495.65
  C 81.41 495.68 67.73 508.96 67.76 525.30
  L 67.76 525.64
  C 67.76 525.89 67.95 526.08 68.20 526.08
  Z"
/>
<path d="
  M 565.49 459.03
  C 569.54 459.02 572.11 459.04 573.18 459.10
  C 582.29 459.57 591.04 461.07 599.42 463.61
  C 617.62 469.12 630.68 481.39 637.33 498.90
  C 641.70 510.40 642.94 521.19 643.57 533.69
  C 643.71 536.43 643.78 538.20 643.79 539.01
  C 643.79 539.81 643.72 541.59 643.60 544.33
  C 643.04 556.83 641.86 567.63 637.55 579.15
  C 631.00 596.70 618.01 609.04 599.84 614.65
  C 591.47 617.24 582.73 618.79 573.62 619.31
  C 572.55 619.37 569.99 619.41 565.94 619.42
  C 561.89 619.43 559.32 619.41 558.25 619.35
  C 549.14 618.88 540.39 617.38 532.01 614.84
  C 513.81 609.33 500.75 597.06 494.10 579.55
  C 489.73 568.05 488.49 557.26 487.86 544.76
  C 487.72 542.02 487.65 540.25 487.64 539.44
  C 487.64 538.64 487.71 536.86 487.83 534.12
  C 488.39 521.62 489.57 510.82 493.88 499.30
  C 500.43 481.75 513.42 469.41 531.59 463.80
  C 539.96 461.21 548.70 459.66 557.81 459.14
  C 558.88 459.08 561.44 459.04 565.49 459.03
  Z
  M 527.93 539.22
  C 527.92 548.99 528.87 559.19 533.63 567.97
  C 540.24 580.14 552.86 582.93 565.69 582.94
  C 578.52 582.95 591.15 580.18 597.78 568.03
  C 602.56 559.26 603.52 549.06 603.53 539.29
  C 603.54 529.52 602.59 519.32 597.83 510.54
  C 591.22 498.37 578.60 495.58 565.77 495.57
  C 552.94 495.55 540.31 498.32 533.68 510.48
  C 528.91 519.25 527.94 529.45 527.93 539.22
  Z"
/>
<path d="
  M 1034.43 462.02
  L 1035.95 462.83
  C 1036.20 462.97 1036.33 463.18 1036.33 463.47
  L 1036.33 495.28
  C 1036.33 496.37 1035.45 497.26 1034.36 497.27
  C 1027.63 497.33 1019.60 497.34 1010.25 497.29
  C 1007.51 497.28 1003.70 497.63 998.83 498.35
  C 993.96 499.07 990.40 500.28 988.14 501.98
  C 984.37 504.83 982.02 508.74 981.11 513.73
  C 980.45 517.34 980.12 521.55 980.13 526.34
  C 980.17 567.41 980.17 597.03 980.12 615.20
  C 980.12 617.03 979.20 617.95 977.37 617.95
  L 943.13 617.95
  C 941.35 617.95 939.91 616.51 939.91 614.73
  C 939.89 594.60 939.89 563.94 939.92 522.75
  C 939.93 516.06 940.37 509.23 941.26 502.27
  C 941.82 497.82 942.70 493.88 943.91 490.44
  C 946.07 484.29 949.55 478.84 954.34 474.07
  C 955.23 473.18 956.84 471.98 959.15 470.48
  C 961.27 469.11 963.01 468.15 964.37 467.60
  C 972.64 464.27 980.35 462.46 987.51 462.18
  C 1001.85 461.61 1017.07 461.45 1033.18 461.68
  C 1033.61 461.69 1034.02 461.80 1034.43 462.02
  Z"
/>
<path d="
  M 1428.74 603.70
  C 1427.83 604.12 1427.11 604.59 1426.60 605.10
  C 1422.18 609.57 1417.36 612.83 1412.15 614.89
  C 1397.01 620.88 1379.09 621.24 1363.55 617.68
  C 1351.31 614.88 1339.54 608.46 1331.74 598.93
  C 1324.06 589.56 1320.79 578.35 1321.93 565.28
  C 1323.02 552.79 1328.10 543.22 1337.17 536.55
  C 1340.88 533.82 1345.16 531.71 1350.01 530.23
  C 1355.78 528.46 1360.49 527.44 1364.14 527.17
  C 1379.35 526.05 1391.83 525.98 1408.98 526.03
  C 1414.27 526.04 1418.00 525.53 1420.19 524.48
  C 1431.19 519.20 1432.51 505.78 1420.39 500.38
  C 1418.95 499.74 1416.19 499.09 1412.11 498.44
  C 1407.65 497.72 1403.20 497.36 1398.75 497.35
  C 1381.46 497.33 1360.84 497.32 1336.88 497.31
  C 1336.13 497.31 1335.53 496.71 1335.53 495.96
  L 1335.53 463.10
  C 1335.53 462.46 1336.04 461.95 1336.68 461.95
  C 1350.35 461.91 1360.30 461.93 1366.51 462.01
  C 1371.99 462.08 1378.66 462.00 1386.53 461.76
  C 1397.01 461.44 1409.08 461.59 1422.73 462.22
  C 1429.10 462.51 1435.80 463.94 1442.83 466.51
  C 1453.71 470.48 1461.29 477.93 1465.58 488.85
  C 1469.42 498.62 1470.09 508.77 1470.07 519.76
  C 1469.98 570.05 1469.96 602.37 1470.01 616.74
  C 1470.01 617.07 1469.84 617.28 1469.51 617.36
  C 1467.91 617.72 1466.25 617.91 1464.54 617.93
  C 1457.15 618.02 1446.19 618.02 1431.65 617.92
  C 1430.74 617.91 1430.01 617.17 1430.01 616.26
  L 1430.01 604.51
  C 1430.01 603.86 1429.33 603.43 1428.74 603.70
  Z
  M 1410.27 586.17
  C 1423.37 580.97 1429.97 568.28 1429.43 554.27
  C 1429.40 553.42 1428.96 553.01 1428.11 553.03
  C 1423.43 553.16 1418.64 554.05 1413.97 554.02
  C 1401.46 553.94 1391.98 553.95 1385.51 554.05
  C 1374.30 554.23 1360.52 557.46 1362.83 572.33
  C 1363.74 578.18 1367.04 582.63 1372.72 585.68
  C 1377.70 588.36 1382.98 589.77 1388.57 589.90
  C 1396.34 590.07 1403.58 588.83 1410.27 586.17
  Z"
/>
<path d="
  M 206.59 461.87
  L 243.97 461.87
  C 244.73 461.87 245.37 462.43 245.46 463.18
  C 245.48 463.35 245.49 463.54 245.49 463.75
  C 245.44 473.80 245.49 499.22 245.65 540.00
  C 245.66 543.61 245.95 547.58 246.50 551.90
  C 247.13 556.81 248.00 560.66 249.11 563.47
  C 253.51 574.52 262.30 580.40 275.49 581.09
  C 285.42 581.61 296.09 577.80 301.65 569.42
  C 306.83 561.62 308.16 552.30 308.15 542.25
  C 308.11 507.31 308.11 480.97 308.16 463.24
  C 308.16 462.90 308.33 462.69 308.66 462.60
  C 310.49 462.13 312.26 461.89 313.99 461.88
  C 324.50 461.83 333.17 461.83 340.00 461.86
  C 342.22 461.87 344.09 462.03 345.62 462.34
  C 347.59 462.74 348.09 464.17 348.09 466.00
  C 348.11 522.27 348.13 551.52 348.14 553.76
  C 348.19 560.07 347.58 566.03 346.31 571.65
  C 344.95 577.65 342.79 583.19 339.84 588.27
  C 332.97 600.12 322.65 608.40 308.88 613.12
  C 304.63 614.58 300.50 615.65 296.48 616.32
  C 283.93 618.43 271.35 618.50 258.74 616.54
  C 252.53 615.58 245.77 613.80 239.82 611.06
  C 221.45 602.62 210.50 588.12 206.97 567.57
  C 205.96 561.65 205.44 556.13 205.42 551.02
  C 205.33 527.63 205.32 498.32 205.39 463.07
  C 205.39 462.41 205.93 461.87 206.59 461.87
  Z"
/>
<path d="
  M 473.45 462.31
  C 474.31 462.55 474.90 463.34 474.90 464.23
  L 474.90 494.44
  C 474.90 496.45 473.90 497.47 471.89 497.48
  C 466.76 497.51 459.39 497.54 449.76 497.59
  C 442.11 497.62 435.87 498.38 431.06 499.85
  C 426.76 501.16 423.61 503.83 421.60 507.85
  C 419.37 512.31 418.96 516.50 418.47 521.99
  C 418.28 524.07 418.19 526.25 418.19 528.53
  C 418.15 556.26 418.14 585.75 418.15 616.99
  C 418.15 617.53 417.72 617.96 417.19 617.96
  L 381.33 617.96
  C 379.18 617.96 378.11 616.89 378.11 614.74
  C 378.08 592.59 378.07 562.18 378.09 523.50
  C 378.10 513.21 379.04 503.92 380.92 495.64
  C 382.74 487.65 386.43 480.80 391.98 475.09
  C 395.63 471.35 400.52 468.39 406.65 466.21
  C 414.40 463.45 422.69 462.03 431.50 461.95
  C 447.84 461.81 460.97 461.81 470.88 461.94
  C 471.75 461.95 472.60 462.07 473.45 462.31
  Z"
/>
<path d="
  M 1176.58 475.63
  C 1177.31 475.77 1178.17 475.51 1179.14 474.84
  C 1189.98 467.43 1201.61 463.21 1214.02 462.19
  C 1216.53 461.99 1222.59 461.88 1232.21 461.87
  C 1239.96 461.86 1245.98 462.35 1250.25 463.34
  C 1257.56 465.05 1263.74 467.21 1268.79 469.82
  C 1281.39 476.35 1290.22 486.40 1295.29 499.96
  C 1296.18 502.33 1296.93 505.98 1297.82 509.18
  C 1298.88 512.96 1298.94 516.08 1299.39 521.47
  C 1299.64 524.46 1299.77 527.33 1299.77 530.10
  C 1299.79 554.50 1299.80 579.63 1299.79 605.50
  C 1299.79 610.43 1299.62 614.19 1299.29 616.76
  C 1299.20 617.45 1298.62 617.97 1297.93 617.97
  L 1263.03 617.97
  C 1260.60 617.97 1259.39 616.75 1259.38 614.32
  C 1259.37 576.39 1259.56 550.10 1258.97 527.00
  C 1258.91 524.45 1257.79 520.39 1255.62 514.81
  C 1252.70 507.32 1247.15 502.33 1238.96 499.82
  C 1233.34 498.10 1227.60 497.73 1221.75 498.72
  C 1211.90 500.37 1204.95 505.61 1200.90 514.44
  C 1197.62 521.60 1196.98 529.24 1196.97 538.01
  C 1196.95 549.65 1196.94 575.52 1196.95 615.63
  C 1196.95 617.18 1196.17 617.95 1194.60 617.95
  L 1158.92 617.96
  C 1158.12 617.96 1157.42 617.40 1157.21 616.60
  C 1157.14 616.32 1157.10 615.79 1157.10 615.00
  C 1157.05 565.63 1157.02 540.13 1157.01 538.50
  C 1157.01 534.55 1156.70 530.36 1156.09 525.95
  C 1154.59 515.04 1149.85 505.40 1139.56 500.93
  C 1133.63 498.36 1126.80 497.64 1119.08 498.79
  C 1107.18 500.56 1099.59 508.35 1096.40 519.67
  C 1095.79 521.86 1095.32 524.61 1095.00 527.90
  C 1094.65 531.55 1094.14 536.40 1094.13 540.72
  C 1094.09 563.47 1094.08 588.75 1094.11 616.55
  C 1094.12 617.33 1093.49 617.96 1092.71 617.96
  C 1087.22 617.97 1075.99 617.97 1059.00 617.96
  C 1057.76 617.96 1056.46 617.81 1055.10 617.52
  C 1054.76 617.45 1054.56 617.24 1054.51 616.90
  C 1054.36 615.99 1054.04 614.81 1054.04 613.68
  C 1054.03 561.95 1054.02 533.15 1054.01 527.26
  C 1054.01 516.41 1055.95 506.19 1059.84 496.60
  C 1062.19 490.81 1065.76 485.46 1070.56 480.54
  C 1076.53 474.41 1083.35 469.90 1091.02 467.01
  C 1098.26 464.27 1105.76 462.61 1113.53 462.02
  C 1116.68 461.78 1122.30 461.73 1130.37 461.87
  C 1137.91 462.00 1143.50 462.44 1147.13 463.19
  C 1153.96 464.60 1160.48 466.87 1166.68 470.00
  C 1168.75 471.05 1171.21 472.64 1174.05 474.78
  C 1174.47 475.10 1175.31 475.38 1176.58 475.63
  Z"
/>
<path d="
  M 526.11 712.08
  C 527.62 712.83 528.38 712.35 528.38 710.66
  L 528.38 685.88
  C 528.38 684.03 529.31 683.10 531.16 683.10
  L 535.26 683.10
  C 537.29 683.10 538.31 684.12 538.31 686.15
  L 538.31 763.75
  C 538.31 764.29 538.05 764.63 537.53 764.78
  C 536.40 765.10 535.18 765.15 533.86 764.93
  C 532.41 764.69 531.48 764.15 531.06 763.30
  C 530.49 762.16 529.90 760.70 529.30 758.91
  C 529.16 758.49 528.62 758.36 528.30 758.67
  C 526.39 760.49 524.70 761.89 523.21 762.86
  C 521.66 763.87 519.65 764.64 517.18 765.15
  C 508.83 766.90 498.78 765.40 493.27 758.48
  C 489.70 753.98 487.69 748.83 487.22 743.02
  C 486.84 738.23 486.80 734.07 487.11 730.52
  C 487.64 724.30 489.62 718.90 493.07 714.32
  C 496.50 709.76 502.32 707.73 507.97 706.99
  C 512.54 706.39 517.09 707.30 521.64 709.73
  C 524.12 711.05 525.61 711.83 526.11 712.08
  Z
  M 496.69 736.72
  C 496.84 747.13 500.19 758.23 512.88 758.04
  C 525.57 757.86 528.59 746.67 528.44 736.26
  C 528.29 725.85 524.94 714.75 512.25 714.94
  C 499.56 715.12 496.54 726.31 496.69 736.72
  Z"
/>
<path d="
  M 465.10 685.76
  L 471.14 686.30
  C 472.27 686.40 473.14 687.36 473.12 688.50
  L 473.05 694.17
  C 473.03 695.45 471.93 696.44 470.66 696.32
  L 465.24 695.80
  C 464.20 695.70 463.38 694.88 463.28 693.84
  L 462.74 688.13
  C 462.61 686.77 463.75 685.63 465.10 685.76
  Z"
/>
<path d="
  M 215.87 727.69
  C 218.16 729.28 220.21 730.30 222.02 730.77
  C 223.59 731.16 227.59 732.25 234.00 734.02
  C 240.87 735.91 246.24 740.49 246.78 747.98
  C 247.55 758.65 240.37 764.31 230.53 765.43
  C 220.21 766.61 209.57 764.83 204.43 755.42
  C 203.40 753.55 203.03 751.66 203.31 749.76
  C 203.40 749.15 203.81 748.64 204.38 748.42
  C 206.27 747.68 208.28 747.74 210.40 748.59
  C 210.71 748.72 210.96 748.92 211.14 749.21
  C 213.07 752.18 214.57 755.22 218.67 756.86
  C 223.69 758.87 228.61 758.73 233.44 756.43
  C 234.82 755.78 235.89 754.61 236.65 752.94
  C 239.48 746.74 235.25 743.16 229.68 741.72
  C 224.47 740.37 219.93 739.08 216.06 737.87
  C 213.75 737.14 211.45 735.96 209.17 734.34
  C 207.51 733.15 206.33 731.59 205.63 729.64
  C 203.29 723.13 204.06 717.62 207.95 713.12
  C 210.70 709.95 215.09 707.96 221.12 707.16
  C 226.41 706.45 231.66 707.19 236.87 709.38
  C 241.51 711.34 244.36 714.57 244.91 719.51
  C 245.06 720.83 244.91 722.01 244.47 723.04
  C 244.34 723.36 244.10 723.56 243.77 723.65
  C 242.00 724.12 240.36 724.02 238.86 723.37
  C 238.25 723.10 237.23 721.99 235.80 720.02
  C 231.75 714.47 226.16 713.05 219.02 715.76
  C 215.49 717.11 213.65 719.48 213.48 722.88
  C 213.38 724.91 214.18 726.52 215.87 727.69
  Z"
/>
<path d="
  M 357.18 758.91
  C 356.98 758.48 356.42 758.36 356.05 758.67
  C 353.35 760.95 350.83 763.18 347.43 764.23
  C 340.71 766.32 334.41 766.25 328.53 764.02
  C 326.45 763.23 324.51 761.71 322.72 759.46
  C 319.17 754.99 319.07 747.14 320.79 742.02
  C 323.03 735.34 330.33 732.22 337.30 731.29
  C 337.51 731.26 342.56 730.80 352.43 729.91
  C 353.67 729.80 354.76 729.48 355.71 728.96
  C 355.99 728.81 356.20 728.56 356.30 728.27
  C 357.74 724.16 355.79 718.93 351.85 716.61
  C 346.34 713.37 339.86 713.96 334.81 717.78
  C 333.45 718.80 332.52 720.70 331.35 722.32
  C 329.89 724.34 326.18 724.40 323.96 724.01
  C 323.37 723.91 322.93 723.40 322.92 722.80
  C 322.68 707.56 342.34 705.02 353.23 707.95
  C 356.53 708.84 359.05 710.05 360.78 711.59
  C 365.39 715.70 366.60 722.12 366.64 728.28
  C 366.71 740.44 366.70 751.95 366.62 762.80
  C 366.61 763.83 365.81 764.68 364.78 764.75
  C 364.61 764.76 363.12 764.86 360.31 765.06
  C 359.12 765.14 358.52 764.58 358.49 763.39
  C 358.47 762.20 358.03 760.70 357.18 758.91
  Z
  M 336.27 757.75
  C 342.53 759.79 349.30 756.92 353.79 752.31
  C 356.86 749.14 357.30 745.26 356.94 741.00
  C 356.81 739.43 356.65 738.51 356.46 738.24
  C 356.28 737.99 356.02 737.78 355.70 737.62
  C 355.31 737.43 353.50 737.28 350.25 737.15
  C 344.67 736.93 340.26 737.42 337.02 738.61
  C 334.84 739.42 333.16 740.39 331.99 741.52
  C 330.43 743.02 329.54 744.84 329.31 746.97
  C 328.74 752.46 331.06 756.06 336.27 757.75
  Z"
/>
<path d="
  M 555.17 723.14
  C 554.77 722.95 554.53 722.52 554.59 722.07
  C 555.54 714.69 559.93 710.38 567.24 708.22
  C 573.53 706.35 579.75 706.31 585.90 708.10
  C 594.88 710.71 598.13 716.43 598.17 725.51
  C 598.22 737.22 598.22 749.52 598.17 762.42
  C 598.16 764.14 597.30 765.00 595.58 765.00
  L 593.26 765.00
  C 591.41 765.00 590.41 764.08 590.25 762.24
  C 590.09 760.43 589.76 759.28 589.26 758.77
  C 588.77 758.28 588.00 758.54 586.96 759.56
  C 583.31 763.15 578.82 765.14 573.51 765.53
  C 565.00 766.16 556.48 764.69 552.98 756.02
  C 551.21 751.63 551.11 747.17 552.70 742.64
  C 555.27 735.32 562.74 731.97 570.01 731.32
  C 576.54 730.73 581.22 730.27 584.05 729.96
  C 586.65 729.67 588.57 729.63 588.88 726.46
  C 589.35 721.59 586.98 717.90 582.54 715.88
  C 577.94 713.77 573.22 714.09 568.37 716.82
  C 565.78 718.28 564.09 722.74 561.33 723.75
  C 559.50 724.42 557.44 724.22 555.17 723.14
  Z
  M 578.74 757.26
  C 581.62 756.07 587.36 752.11 588.46 748.66
  C 588.63 748.11 588.89 745.23 589.23 740.02
  C 589.32 738.49 588.69 737.64 587.32 737.46
  C 579.35 736.42 561.54 736.16 561.37 748.20
  C 561.25 757.57 571.64 760.18 578.74 757.26
  Z"
/>
<path d="
  M 967.81 763.83
  L 966.15 758.80
  C 965.92 758.11 965.04 757.93 964.56 758.47
  C 961.77 761.64 958.42 763.73 954.51 764.74
  C 949.34 766.08 944.28 766.07 939.34 764.71
  C 929.01 761.86 926.15 750.22 929.85 741.33
  C 933.13 733.46 942.13 731.43 949.87 730.94
  C 955.62 730.57 960.31 730.07 963.94 729.45
  C 964.76 729.31 965.38 728.64 965.46 727.82
  C 965.82 724.32 965.08 721.33 963.24 718.84
  C 961.70 716.77 959.23 715.42 955.83 714.80
  C 949.75 713.69 944.84 715.67 941.10 720.72
  C 939.71 722.60 938.68 723.62 938.01 723.79
  C 936.44 724.18 934.86 724.25 933.28 723.99
  C 932.19 723.81 931.68 723.17 931.73 722.07
  C 932.00 716.12 934.66 712.02 939.72 709.78
  C 947.46 706.37 955.21 705.86 962.97 708.25
  C 965.94 709.17 968.13 710.28 969.55 711.57
  C 973.87 715.52 975.13 720.63 975.14 726.62
  C 975.16 736.07 975.16 748.39 975.15 763.59
  C 975.15 764.35 974.77 764.77 974.01 764.84
  C 971.92 765.05 970.21 765.03 968.89 764.78
  C 968.34 764.67 967.98 764.36 967.81 763.83
  Z
  M 960.17 754.44
  C 965.77 750.37 965.92 745.42 965.75 738.82
  C 965.73 738.13 965.22 737.55 964.53 737.46
  C 958.12 736.61 943.56 736.09 939.43 743.18
  C 935.47 750.00 939.35 756.90 946.80 758.16
  C 951.25 758.92 955.71 757.68 960.17 754.44
  Z"
/>
<path d="
  M 1137.60 749.97
  C 1137.57 749.41 1137.91 748.89 1138.44 748.71
  C 1140.58 747.97 1142.74 748.06 1144.91 748.98
  C 1145.22 749.11 1145.47 749.31 1145.64 749.60
  C 1150.72 758.02 1158.11 760.35 1167.82 756.58
  C 1169.43 755.96 1170.71 754.51 1171.66 752.23
  C 1172.85 749.40 1172.48 746.91 1170.56 744.78
  C 1169.67 743.78 1168.14 742.95 1165.99 742.28
  C 1163.62 741.55 1159.27 740.32 1152.95 738.61
  C 1149.22 737.60 1144.33 735.62 1142.08 732.57
  C 1139.38 728.90 1138.34 725.07 1138.95 721.07
  C 1140.01 714.16 1144.18 710.11 1150.99 708.11
  C 1157.74 706.13 1164.53 706.53 1171.35 709.31
  C 1176.75 711.51 1180.92 716.97 1179.21 722.96
  C 1179.12 723.29 1178.90 723.50 1178.56 723.57
  C 1176.77 723.96 1174.97 723.98 1173.14 723.63
  C 1172.81 723.57 1172.51 723.38 1172.33 723.09
  C 1170.43 720.15 1169.01 717.45 1166.03 715.96
  C 1161.47 713.69 1156.86 713.85 1152.19 716.44
  C 1147.97 718.79 1146.46 724.86 1150.66 727.97
  C 1152.29 729.18 1154.35 730.13 1156.83 730.82
  C 1157.63 731.05 1161.47 732.09 1168.36 733.96
  C 1175.02 735.77 1180.13 739.54 1180.98 746.74
  C 1181.66 752.52 1180.47 756.98 1177.42 760.13
  C 1171.79 765.93 1161.04 766.49 1153.20 765.16
  C 1145.31 763.83 1138.03 758.50 1137.60 749.97
  Z"
/>
<path d="
  M 1200.66 750.51
  C 1200.79 750.71 1201.24 751.39 1201.99 752.54
  C 1203.62 755.02 1206.13 756.74 1209.54 757.69
  C 1215.05 759.23 1222.34 758.08 1225.74 752.94
  C 1227.51 750.25 1227.35 747.77 1225.24 745.48
  C 1223.62 743.73 1221.52 742.50 1218.95 741.81
  C 1212.05 739.96 1207.08 738.53 1204.05 737.54
  C 1196.60 735.11 1192.94 730.12 1193.09 722.58
  C 1193.14 720.13 1193.91 717.56 1195.42 714.88
  C 1197.97 710.34 1204.19 707.89 1209.03 707.26
  C 1215.56 706.42 1221.41 707.24 1226.58 709.72
  C 1230.08 711.39 1232.47 714.21 1233.76 718.16
  C 1234.29 719.76 1234.34 721.36 1233.92 722.97
  C 1233.83 723.28 1233.59 723.53 1233.28 723.60
  C 1232.07 723.89 1230.58 723.96 1228.80 723.80
  C 1225.63 723.51 1224.60 719.09 1222.32 717.39
  C 1218.18 714.32 1213.61 713.61 1208.60 715.28
  C 1204.86 716.53 1202.78 719.02 1202.36 722.76
  C 1201.87 727.18 1206.91 729.60 1210.78 730.70
  C 1216.32 732.27 1219.73 733.22 1221.00 733.53
  C 1228.16 735.29 1233.62 738.51 1235.27 746.29
  C 1236.14 750.40 1235.41 754.35 1233.10 758.13
  C 1229.80 763.51 1223.74 765.17 1217.18 765.63
  C 1212.07 765.99 1207.47 765.49 1203.39 764.14
  C 1197.47 762.17 1191.67 756.65 1191.84 749.97
  C 1191.85 749.48 1192.15 749.04 1192.61 748.85
  C 1194.78 747.96 1196.91 747.96 1198.98 748.87
  C 1199.52 749.11 1200.08 749.66 1200.66 750.51
  Z"
/>
<path d="
  M 1284.29 759.01
  C 1284.12 758.49 1283.46 758.34 1283.08 758.73
  C 1280.21 761.70 1277.07 763.65 1273.65 764.58
  C 1263.97 767.20 1251.25 766.04 1247.81 754.99
  C 1246.24 749.96 1246.56 745.06 1248.76 740.29
  C 1249.58 738.52 1250.98 736.90 1252.97 735.45
  C 1255.89 733.31 1259.67 732.00 1264.30 731.51
  C 1274.23 730.47 1279.49 729.92 1280.07 729.86
  C 1281.04 729.75 1282.11 729.52 1283.29 729.15
  C 1283.62 729.04 1283.84 728.82 1283.93 728.49
  C 1284.31 727.06 1284.46 726.05 1284.37 725.47
  C 1283.44 718.94 1279.74 715.34 1273.26 714.66
  C 1267.69 714.07 1263.32 715.90 1260.16 720.14
  C 1258.85 721.89 1257.76 722.98 1256.87 723.41
  C 1255.23 724.19 1253.27 724.37 1250.98 723.94
  C 1250.61 723.87 1250.40 723.65 1250.36 723.27
  C 1249.61 716.26 1253.89 711.34 1260.25 708.99
  C 1267.29 706.38 1274.27 706.11 1281.19 708.18
  C 1286.99 709.91 1291.04 713.09 1292.64 718.85
  C 1293.47 721.86 1293.91 725.09 1293.94 728.54
  C 1293.95 729.46 1293.97 740.91 1294.00 762.90
  C 1294.00 763.73 1293.43 764.46 1292.62 764.66
  C 1290.88 765.09 1288.90 765.10 1286.68 764.70
  C 1286.34 764.64 1286.06 764.40 1285.96 764.07
  L 1284.29 759.01
  Z
  M 1282.39 737.43
  C 1275.62 736.44 1269.41 736.90 1263.78 738.83
  C 1259.19 740.40 1255.27 745.28 1256.56 750.35
  C 1258.05 756.20 1263.52 758.87 1269.27 758.26
  C 1275.01 757.65 1281.64 753.81 1283.66 748.30
  C 1284.73 745.37 1284.86 742.26 1284.05 738.95
  C 1283.86 738.15 1283.20 737.55 1282.39 737.43
  Z"
/>
<path d="
  M 651.41 711.36
  C 651.58 711.69 652.00 711.80 652.32 711.60
  C 662.79 704.89 672.34 705.46 681.76 713.20
  C 682.50 713.81 683.58 713.79 684.31 713.16
  C 692.14 706.31 700.87 705.14 710.52 709.63
  C 716.23 712.30 718.72 721.72 718.81 727.43
  C 718.87 731.04 718.90 742.61 718.89 762.12
  C 718.89 764.00 717.95 764.94 716.08 764.94
  L 712.04 764.94
  C 710.02 764.94 709.01 763.93 709.00 761.90
  C 708.97 742.43 708.92 731.14 708.85 728.02
  C 708.64 719.10 702.91 713.76 693.72 715.93
  C 686.46 717.64 684.65 723.44 684.35 730.25
  C 684.30 731.56 684.26 742.45 684.25 762.90
  C 684.25 764.03 683.34 764.95 682.21 764.95
  L 676.71 764.95
  C 675.52 764.95 674.92 764.35 674.93 763.16
  C 674.95 759.15 674.96 746.77 674.95 726.00
  C 674.95 719.48 668.26 714.78 662.06 715.55
  C 654.57 716.48 650.78 720.79 650.69 728.50
  C 650.62 734.71 650.60 746.14 650.63 762.78
  C 650.63 764.21 649.91 764.93 648.48 764.93
  L 642.91 764.93
  C 641.68 764.93 641.06 764.31 641.06 763.07
  C 641.06 743.37 641.07 725.87 641.09 710.56
  C 641.09 709.15 641.67 708.32 642.83 708.06
  C 643.12 707.99 644.01 707.91 645.48 707.82
  C 648.15 707.66 650.13 708.84 651.41 711.36
  Z"
/>
<path d="
  M 756.04 707.02
  C 767.93 706.96 777.28 712.93 780.25 724.96
  C 781.29 729.16 781.82 732.93 781.83 736.27
  C 781.85 739.61 781.36 743.39 780.37 747.61
  C 777.53 759.67 768.25 765.74 756.36 765.81
  C 744.48 765.87 735.13 759.90 732.16 747.87
  C 731.12 743.66 730.59 739.89 730.57 736.55
  C 730.56 733.22 731.04 729.44 732.04 725.22
  C 734.87 713.16 744.16 707.09 756.04 707.02
  Z
  M 740.35 736.34
  C 740.31 743.56 741.64 750.51 747.53 755.15
  C 749.77 756.91 752.65 757.80 756.17 757.82
  C 759.69 757.84 762.58 756.98 764.84 755.24
  C 770.78 750.66 772.18 743.73 772.21 736.51
  C 772.26 729.29 770.93 722.34 765.04 717.70
  C 762.80 715.94 759.92 715.05 756.39 715.03
  C 752.87 715.01 749.99 715.87 747.73 717.61
  C 741.79 722.19 740.39 729.12 740.35 736.34
  Z"
/>
<path d="
  M 852.70 740.51
  C 852.83 746.62 854.99 751.38 859.20 754.79
  C 863.42 758.20 869.73 758.65 874.75 757.00
  C 877.65 756.05 879.97 754.22 881.71 751.51
  C 882.77 749.86 883.67 748.88 884.41 748.55
  C 886.22 747.74 888.31 747.67 890.66 748.34
  C 891.01 748.44 891.22 748.67 891.28 749.04
  C 892.04 754.05 888.65 758.13 884.62 761.16
  C 878.47 765.79 870.48 766.34 863.19 765.21
  C 852.38 763.53 845.23 755.13 843.34 744.55
  C 841.15 732.28 843.69 715.44 856.32 709.60
  C 862.37 706.80 868.73 706.23 875.41 707.88
  C 882.47 709.63 887.37 713.82 890.11 720.45
  C 892.44 726.09 893.34 731.98 892.80 738.13
  C 892.75 738.61 892.35 738.98 891.87 738.98
  L 854.20 738.98
  C 853.36 738.98 852.68 739.67 852.70 740.51
  Z
  M 854.20 731.68
  L 882.19 732.02
  C 882.93 732.03 883.53 731.44 883.54 730.71
  L 883.55 730.35
  C 883.65 721.88 876.88 714.93 868.43 714.83
  L 868.37 714.83
  C 859.92 714.73 852.99 721.51 852.89 729.97
  L 852.88 730.33
  C 852.87 731.07 853.46 731.67 854.20 731.68
  Z"
/>
<path d="
  M 1127.1188 742.5377
  C 1127.07 755.28 1116.71 765.58 1103.9584 765.5370
  L 1099.8384 765.5226
  C 1087.09 765.48 1076.79 755.11 1076.8391 742.3622
  L 1076.8812 730.3023
  C 1076.93 717.56 1087.29 707.26 1100.0416 707.3030
  L 1104.1616 707.3174
  C 1116.91 707.36 1127.21 717.73 1127.1609 730.4778
  L 1127.1188 742.5377
  Z
  M 1086.09 736.38
  C 1086.06 742.27 1086.93 747.33 1090.14 751.85
  C 1092.97 755.83 1097.06 757.79 1102.00 757.81
  C 1106.95 757.83 1111.05 755.91 1113.92 751.95
  C 1117.17 747.46 1118.08 742.41 1118.10 736.52
  C 1118.13 730.63 1117.26 725.57 1114.05 721.05
  C 1111.22 717.07 1107.13 715.11 1102.19 715.09
  C 1097.25 715.07 1093.14 716.99 1090.27 720.95
  C 1087.02 725.44 1086.11 730.49 1086.09 736.38
  Z"
/>
<path d="
  M 1027.84 711.40
  C 1028.06 711.78 1028.53 711.94 1028.93 711.77
  C 1030.92 710.93 1033.25 709.39 1035.49 708.65
  C 1041.80 706.57 1048.01 706.77 1054.10 709.25
  C 1058.81 711.17 1061.88 715.00 1063.32 720.74
  C 1064.20 724.23 1064.64 727.00 1064.65 729.06
  C 1064.68 735.13 1064.67 746.37 1064.61 762.79
  C 1064.60 764.21 1063.89 764.92 1062.47 764.92
  L 1056.97 764.92
  C 1055.61 764.92 1054.93 764.24 1054.93 762.89
  C 1054.92 752.22 1054.91 741.65 1054.88 731.19
  C 1054.87 728.51 1054.23 723.31 1052.63 720.86
  C 1048.07 713.84 1037.05 713.93 1031.04 719.05
  C 1028.49 721.22 1027.18 724.21 1027.11 728.00
  C 1027.01 733.29 1026.97 745.38 1026.99 764.27
  C 1026.99 764.67 1026.67 764.99 1026.27 764.99
  L 1018.54 764.99
  C 1018.15 764.99 1017.83 764.68 1017.83 764.29
  L 1017.83 708.58
  C 1017.83 708.17 1018.16 707.84 1018.57 707.84
  L 1025.09 707.84
  C 1025.52 707.84 1025.91 708.07 1026.13 708.45
  L 1027.84 711.40
  Z"
/>
<path d="
  M 297.84 760.98
  C 297.52 760.50 296.83 760.42 296.35 760.82
  C 292.51 763.98 288.06 765.63 283.01 765.77
  C 270.48 766.11 260.23 760.07 259.79 746.52
  C 259.53 738.35 259.48 726.27 259.65 710.26
  C 259.67 708.66 260.48 707.86 262.08 707.86
  L 267.62 707.86
  C 268.87 707.86 269.49 708.48 269.49 709.73
  C 269.44 724.69 269.46 735.86 269.53 743.25
  C 269.57 747.17 270.45 752.17 273.60 754.74
  C 275.47 756.26 277.56 757.19 279.87 757.54
  C 286.81 758.59 294.29 756.49 296.56 749.35
  C 297.01 747.92 297.26 744.17 297.31 738.10
  C 297.36 731.06 297.37 721.93 297.32 710.70
  C 297.31 708.81 298.25 707.86 300.14 707.86
  L 304.62 707.86
  C 306.31 707.86 307.16 708.71 307.16 710.41
  L 307.16 763.69
  C 307.16 764.19 306.82 764.62 306.33 764.73
  C 304.66 765.12 302.75 765.13 300.62 764.76
  C 300.42 764.72 300.25 764.62 300.15 764.47
  L 297.84 760.98
  Z"
/>
<path d="
  M 427.06 751.14
  L 427.16 751.14
  C 427.22 751.13 427.27 751.09 427.32 751.03
  C 428.04 750.19 428.77 748.68 429.52 746.51
  C 436.49 726.24 440.22 715.40 440.72 713.99
  C 441.46 711.89 442.37 708.23 444.72 707.92
  C 445.73 707.79 447.22 707.78 449.21 707.89
  C 449.93 707.93 450.51 708.51 450.55 709.23
  C 450.65 710.99 450.39 712.75 449.76 714.51
  C 443.67 731.66 438.02 747.50 432.81 762.01
  C 431.76 764.93 429.82 764.96 427.06 764.96
  C 424.29 764.96 422.35 764.93 421.30 762.01
  C 416.09 747.50 410.44 731.66 404.35 714.51
  C 403.72 712.75 403.46 710.99 403.56 709.23
  C 403.60 708.51 404.18 707.93 404.90 707.89
  C 406.88 707.78 408.38 707.79 409.39 707.92
  C 411.74 708.23 412.65 711.89 413.39 713.99
  C 413.89 715.40 417.62 726.24 424.59 746.51
  C 425.34 748.68 426.07 750.19 426.79 751.03
  C 426.84 751.09 426.89 751.13 426.95 751.14
  L 427.06 751.14
  Z"
/>
<rect x="463.78" y="707.82" width="9.18" height="57.08" rx="1.81"/>
<path d="
  M 812.20 751.11
  C 812.79 751.11 813.32 750.44 813.79 749.10
  C 818.64 735.19 822.87 722.82 826.48 712.00
  C 827.94 707.61 830.52 707.45 834.60 707.90
  C 835.20 707.97 835.66 708.44 835.72 709.04
  C 835.87 710.61 835.74 711.97 835.35 713.10
  C 829.87 728.78 824.05 745.14 817.89 762.17
  C 817.40 763.52 816.19 764.97 814.40 764.96
  C 813.30 764.95 812.57 764.95 812.20 764.95
  C 811.84 764.95 811.10 764.95 810.00 764.96
  C 808.21 764.97 807.00 763.52 806.51 762.18
  C 800.34 745.15 794.50 728.80 789.01 713.12
  C 788.61 711.99 788.49 710.63 788.63 709.06
  C 788.69 708.47 789.16 707.99 789.75 707.92
  C 793.83 707.47 796.41 707.62 797.88 712.01
  C 801.50 722.83 805.74 735.19 810.60 749.10
  C 811.07 750.44 811.60 751.11 812.20 751.11
  Z"
/>
</g>
</svg>
