<?xml version="1.0" encoding="UTF-8" standalone="no"?>
<!DOCTYPE svg PUBLIC "-//W3C//DTD SVG 1.1//EN" "http://www.w3.org/Graphics/SVG/1.1/DTD/svg11.dtd">
<svg xmlns="http://www.w3.org/2000/svg" version="1.1" viewBox="0.00 0.00 1887.00 820.00" width="1887.00" height="820.00">
<g fill="#004392">
<path d="
  M 914.96 192.47
  C 913.94 192.68 913.55 193.29 913.78 194.30
  L 914.90 199.19
  C 915.14 200.22 916.15 200.88 917.19 200.67
  C 942.08 195.70 967.09 192.54 992.22 191.20
  C 992.44 191.19 992.56 191.30 992.59 191.51
  C 993.57 199.54 994.25 205.21 994.63 208.52
  C 996.59 225.55 996.31 242.29 995.60 260.04
  C 995.55 261.41 994.85 262.14 993.51 262.23
  C 974.47 263.58 954.08 266.46 932.33 270.89
  C 932.16 270.92 931.95 271.25 931.72 271.87
  C 931.71 271.90 932.22 273.96 933.24 278.05
  C 933.41 278.72 933.84 278.99 934.52 278.85
  C 947.72 276.23 961.36 274.08 975.43 272.40
  C 981.71 271.65 987.80 271.12 993.70 270.81
  C 994.08 270.79 994.25 270.97 994.21 271.35
  C 991.98 291.18 987.11 309.93 979.59 327.59
  C 977.48 332.52 974.54 338.08 970.75 344.26
  C 964.62 354.26 957.03 362.49 947.96 368.95
  C 946.88 369.72 946.06 370.19 945.49 370.36
  C 938.82 372.43 932.71 373.92 927.14 374.83
  C 887.39 381.34 850.43 374.41 816.26 354.02
  C 815.15 353.37 814.73 352.46 815.00 351.30
  C 815.51 349.13 816.47 347.24 817.89 345.65
  C 820.03 343.26 822.01 341.40 823.82 340.07
  C 829.04 336.23 834.85 332.71 841.25 329.52
  C 849.56 325.38 859.64 321.21 871.49 317.02
  C 885.42 312.10 901.06 307.61 918.41 303.54
  C 919.04 303.39 919.37 303.00 919.41 302.35
  C 919.46 301.46 919.33 300.36 919.03 299.04
  C 914.98 281.40 911.72 267.38 909.26 256.98
  C 909.11 256.35 908.48 255.96 907.85 256.12
  C 905.31 256.78 899.92 258.14 891.69 260.21
  C 872.14 265.13 852.23 271.78 831.95 280.17
  C 825.61 282.79 818.34 286.26 810.13 290.58
  C 800.55 295.61 792.38 301.28 785.61 307.59
  C 782.36 310.62 778.21 315.86 777.68 320.60
  C 777.66 320.79 777.42 320.86 777.29 320.71
  C 770.48 312.56 764.46 303.76 759.22 294.32
  C 759.09 294.08 759.07 293.80 759.16 293.55
  C 761.80 285.96 766.26 280.98 773.27 275.24
  C 781.65 268.37 792.24 261.88 805.03 255.78
  C 824.02 246.71 844.00 239.11 864.97 232.97
  C 876.34 229.64 887.97 226.56 899.87 223.71
  C 900.80 223.48 901.38 222.55 901.16 221.62
  L 891.23 178.57
  C 891.11 178.06 890.61 177.74 890.11 177.86
  C 868.64 182.71 847.53 189.09 826.76 197.00
  C 810.17 203.32 794.51 210.49 779.78 218.51
  C 771.71 222.90 764.04 227.73 756.77 233.00
  C 751.11 237.11 746.38 241.55 742.57 246.32
  C 742.36 246.58 742.23 246.55 742.18 246.22
  C 740.53 236.11 739.62 225.36 739.45 213.96
  C 739.44 213.07 739.62 212.30 739.98 211.65
  C 740.48 210.75 740.94 210.07 741.36 209.60
  C 745.71 204.75 751.08 200.20 757.47 195.97
  C 763.65 191.87 769.70 188.33 775.63 185.35
  C 791.90 177.17 809.31 170.00 827.87 163.84
  C 846.35 157.71 864.76 152.55 883.10 148.37
  C 883.71 148.23 884.10 147.62 883.96 147.01
  L 873.40 101.24
  C 873.20 100.37 872.34 99.83 871.47 100.03
  C 847.34 105.52 824.09 112.92 801.73 122.21
  C 785.61 128.92 769.81 137.20 756.02 147.79
  C 755.47 148.22 755.34 148.12 755.65 147.49
  C 769.71 118.98 790.14 96.59 816.93 80.32
  C 822.41 76.99 828.33 73.93 834.68 71.14
  C 853.09 63.04 872.46 58.45 892.77 57.37
  C 900.66 56.95 907.55 57.23 913.42 58.21
  C 916.05 58.64 919.10 59.87 922.57 61.88
  C 929.45 65.86 935.76 70.76 941.51 76.59
  C 949.85 85.06 957.13 94.74 963.36 105.61
  C 963.67 106.15 963.52 106.45 962.89 106.52
  C 949.22 107.93 940.52 108.87 936.79 109.35
  C 926.34 110.69 913.20 112.88 897.38 115.92
  C 896.08 116.17 895.67 116.91 896.16 118.14
  C 896.67 119.45 897.02 120.94 897.20 122.62
  C 897.31 123.67 898.29 124.39 899.32 124.19
  C 921.03 119.85 941.59 116.86 961.00 115.23
  C 961.07 115.22 963.20 115.13 967.38 114.95
  C 968.00 114.93 968.57 115.26 968.85 115.81
  C 974.18 126.47 978.70 137.57 982.41 149.10
  C 985.90 159.95 988.72 171.07 990.88 182.47
  C 990.93 182.72 990.82 182.85 990.57 182.86
  C 965.72 184.06 940.52 187.26 914.96 192.47
  Z"
/>
<path d="
  M 934.41 61.29
  C 951.61 65.07 967.71 71.57 982.71 80.80
  C 995.32 88.56 1006.71 97.85 1016.88 108.67
  C 1017.07 108.87 1016.88 109.20 1016.61 109.14
  C 1003.69 106.29 989.89 105.30 975.22 106.17
  C 974.21 106.23 973.26 105.72 972.75 104.85
  C 968.04 96.80 962.85 89.44 957.18 82.79
  C 949.67 73.96 940.98 66.61 931.12 60.74
  C 930.99 60.66 930.91 60.48 930.95 60.33
  C 930.99 60.18 931.12 60.12 931.26 60.18
  C 932.33 60.67 933.06 60.99 934.41 61.29
  Z"
/>
<path d="
  M 978.01 114.30
  C 977.98 114.23 978.02 114.15 978.10 114.15
  C 988.58 113.66 999.03 114.03 1009.46 115.24
  C 1014.27 115.81 1019.80 117.02 1024.41 118.48
  C 1024.85 118.62 1025.34 119.03 1025.87 119.72
  C 1039.81 137.69 1049.57 158.25 1055.16 181.39
  C 1056.11 185.33 1056.73 188.73 1057.02 191.59
  C 1057.05 191.86 1056.77 192.06 1056.52 191.94
  C 1047.13 187.36 1036.65 184.55 1025.10 183.52
  C 1016.76 182.77 1009.06 182.47 1002.01 182.60
  C 1001.11 182.62 1000.33 181.99 1000.17 181.11
  C 995.88 157.86 988.49 135.59 978.01 114.30
  Z"
/>
<path d="
  M 1050.57 268.83
  C 1044.44 264.24 1036.37 262.54 1028.75 262.01
  C 1020.85 261.46 1013.07 261.35 1005.40 261.68
  C 1005.04 261.70 1004.75 261.41 1004.76 261.05
  C 1005.18 249.59 1005.41 241.67 1005.45 237.29
  C 1005.58 221.86 1004.44 206.54 1002.02 191.35
  C 1001.99 191.16 1002.13 190.99 1002.32 190.98
  C 1011.56 190.85 1020.71 191.35 1029.76 192.50
  C 1035.52 193.23 1041.01 194.40 1046.24 196.03
  C 1050.07 197.21 1055.18 199.33 1057.79 202.20
  C 1058.11 202.55 1058.32 203.36 1058.42 204.62
  C 1059.66 220.05 1058.73 235.31 1055.62 250.40
  C 1055.12 252.81 1054.34 255.88 1053.28 259.61
  C 1051.85 264.68 1051.00 267.74 1050.74 268.77
  C 1050.71 268.88 1050.66 268.90 1050.57 268.83
  Z"
/>
<path d="
  M 961.25 364.35
  C 968.86 357.66 975.08 350.43 979.89 342.66
  C 984.72 334.87 988.69 326.84 991.80 318.59
  C 997.48 303.53 1001.31 287.82 1003.30 271.47
  C 1003.37 270.87 1003.87 270.42 1004.47 270.40
  C 1011.58 270.21 1018.68 270.41 1025.75 270.99
  C 1031.72 271.48 1037.20 272.80 1042.20 274.93
  C 1043.79 275.61 1045.23 276.75 1046.52 278.35
  C 1046.71 278.59 1046.74 278.85 1046.62 279.13
  C 1037.56 300.67 1024.41 319.35 1007.18 335.18
  C 993.60 347.65 978.30 357.40 961.29 364.42
  C 961.14 364.48 961.13 364.46 961.25 364.35
  Z"
/>
<path d="
  M 1016.64 617.96
  C 1016.17 618.31 1015.83 618.62 1015.63 618.90
  C 1009.82 627.00 1002.28 632.37 992.99 635.00
  C 979.05 638.96 964.92 639.34 950.61 636.13
  C 943.17 634.46 936.25 631.55 929.84 627.41
  C 923.23 623.14 917.99 617.53 914.14 610.60
  C 910.31 603.71 908.56 596.00 908.91 587.49
  C 909.45 574.11 915.13 561.84 926.77 555.02
  C 934.29 550.61 942.63 548.05 951.79 547.35
  C 956.62 546.98 962.02 546.78 968.00 546.73
  C 981.99 546.62 992.91 546.40 1000.75 546.08
  C 1004.93 545.91 1009.77 544.37 1012.48 541.19
  C 1018.52 534.12 1017.32 523.19 1008.27 519.22
  C 1005.59 518.05 1002.61 517.24 999.34 516.79
  C 995.37 516.25 990.29 515.99 984.10 516.00
  C 949.55 516.06 912.78 516.06 873.81 516.01
  C 872.79 516.01 872.03 516.17 871.54 516.50
  C 871.24 516.69 871.06 517.02 871.06 517.38
  L 871.06 635.19
  C 871.06 635.61 870.72 635.95 870.31 635.95
  L 834.27 635.95
  C 833.63 635.95 833.31 635.63 833.31 634.99
  L 833.31 517.72
  C 833.31 516.60 832.75 516.04 831.63 516.04
  L 812.04 516.04
  C 811.83 516.04 811.66 515.87 811.66 515.66
  L 811.66 482.81
  C 811.66 482.24 812.12 481.77 812.69 481.77
  L 831.96 481.77
  C 832.92 481.77 833.37 481.29 833.32 480.34
  C 832.73 469.65 833.58 459.60 835.88 450.17
  C 837.48 443.62 840.87 437.51 846.04 431.86
  C 849.07 428.54 853.11 425.84 858.15 423.76
  C 868.72 419.39 878.81 418.33 890.53 418.10
  C 898.76 417.93 908.33 417.89 919.24 417.97
  C 919.77 417.97 920.04 418.24 920.04 418.77
  L 920.04 451.74
  C 920.04 451.93 919.89 452.08 919.70 452.08
  C 909.60 452.04 902.05 452.08 897.05 452.21
  C 893.78 452.30 890.44 452.72 887.02 453.47
  C 878.59 455.33 873.62 460.46 872.13 468.87
  C 871.45 472.72 871.08 476.65 871.01 480.67
  C 871.00 480.99 871.23 481.27 871.55 481.32
  C 874.22 481.79 876.46 482.02 878.25 482.01
  C 954.70 481.79 993.36 481.68 994.25 481.67
  C 1000.06 481.65 1006.72 482.13 1014.24 483.11
  C 1024.30 484.42 1034.99 487.91 1042.05 495.12
  C 1047.56 500.75 1051.24 507.54 1053.11 515.49
  C 1054.56 521.64 1055.28 527.76 1055.29 533.85
  C 1055.37 584.64 1055.39 618.59 1055.36 635.68
  C 1055.35 636.27 1054.87 636.75 1054.28 636.75
  L 1018.68 636.75
  C 1017.89 636.75 1017.25 636.11 1017.25 635.32
  L 1017.25 618.27
  C 1017.25 617.96 1016.89 617.77 1016.64 617.96
  Z
  M 1017.10 571.18
  C 1017.10 570.53 1016.78 570.27 1016.15 570.39
  C 1008.54 571.76 1001.60 572.51 995.31 572.64
  C 990.08 572.74 980.93 572.81 967.84 572.85
  C 962.47 572.86 957.98 573.94 954.39 576.09
  C 950.65 578.33 948.52 581.07 947.99 584.31
  C 946.34 594.47 950.13 601.87 959.38 606.50
  C 961.81 607.71 964.36 608.54 967.04 608.99
  C 976.45 610.56 985.65 610.03 994.64 607.38
  C 1001.08 605.49 1006.38 601.75 1010.55 596.18
  C 1015.45 589.64 1017.18 579.58 1017.10 571.18
  Z"
/>
<path d="
  M 217.85 573.30
  C 220.00 590.56 229.48 600.41 246.29 602.86
  C 254.76 604.09 263.05 603.58 271.15 601.33
  C 276.17 599.94 280.53 597.32 284.22 593.48
  C 284.55 593.15 285.10 592.87 285.88 592.66
  C 286.37 592.53 286.96 592.47 287.67 592.46
  C 301.60 592.41 314.62 592.42 326.73 592.49
  C 327.41 592.49 327.65 592.82 327.46 593.47
  C 324.13 604.88 318.19 614.27 309.66 621.63
  C 299.57 630.33 286.81 634.53 273.46 636.34
  C 264.87 637.51 258.55 637.99 254.50 637.76
  C 246.85 637.34 241.35 636.93 238.00 636.53
  C 233.37 635.98 228.17 634.83 222.41 633.08
  C 204.70 627.69 192.30 616.46 185.20 599.39
  C 184.59 597.92 183.74 595.44 182.65 591.97
  C 181.88 589.54 181.28 587.01 180.83 584.40
  C 179.85 578.63 179.21 574.50 178.92 572.02
  C 177.81 562.67 177.87 552.79 179.08 542.37
  C 180.22 532.60 182.31 524.11 185.36 516.90
  C 192.15 500.83 203.92 490.00 220.67 484.39
  C 226.09 482.58 231.62 481.31 237.26 480.59
  C 248.79 479.12 260.87 479.12 273.52 480.57
  C 278.48 481.14 283.91 482.38 289.81 484.30
  C 303.32 488.71 313.74 496.80 321.07 508.59
  C 324.26 513.71 326.81 519.83 328.72 526.96
  C 332.60 541.45 332.70 556.72 331.70 571.76
  C 331.67 572.24 331.27 572.61 330.79 572.61
  L 218.46 572.61
  C 218.00 572.61 217.80 572.84 217.85 573.30
  Z
  M 255.25 546.38
  C 278.15 546.39 290.23 546.38 291.49 546.35
  C 292.67 546.33 293.18 545.74 293.03 544.57
  C 292.36 539.34 290.91 534.53 288.68 530.13
  C 282.18 517.26 268.69 513.57 255.26 513.57
  C 241.83 513.57 228.34 517.25 221.83 530.12
  C 219.60 534.52 218.15 539.33 217.48 544.56
  C 217.32 545.72 217.84 546.32 219.02 546.34
  C 220.28 546.37 232.36 546.38 255.25 546.38
  Z"
/>
<path d="
  M 717.45 479.39
  C 734.46 479.45 753.48 482.29 767.40 492.09
  C 789.27 507.47 794.29 533.70 794.20 558.84
  C 794.11 583.98 788.90 610.18 766.93 625.40
  C 752.94 635.10 733.90 637.81 716.89 637.75
  C 699.89 637.69 680.87 634.85 666.95 625.05
  C 645.08 609.67 640.06 583.44 640.15 558.30
  C 640.24 533.16 645.44 506.97 667.42 491.74
  C 681.41 482.04 700.45 479.33 717.45 479.39
  Z
  M 678.25 558.62
  C 678.27 567.68 679.26 577.06 682.89 585.46
  C 688.90 599.37 702.78 603.52 717.26 603.49
  C 731.73 603.47 745.60 599.28 751.57 585.35
  C 755.17 576.94 756.13 567.55 756.12 558.49
  C 756.10 549.43 755.11 540.05 751.48 531.65
  C 745.47 517.74 731.59 513.59 717.11 513.61
  C 702.63 513.64 688.77 517.83 682.80 531.76
  C 679.20 540.17 678.24 549.55 678.25 558.62
  Z"
/>
<path d="
  M 428.50 601.44
  C 439.64 601.44 450.39 597.12 455.76 586.78
  C 457.77 582.92 459.06 578.99 459.62 574.98
  C 460.33 569.96 460.69 564.83 460.71 559.59
  C 460.76 543.51 460.78 517.94 460.75 482.89
  C 460.75 482.22 461.29 481.68 461.96 481.68
  L 498.05 481.68
  C 498.48 481.68 498.83 482.03 498.83 482.46
  C 498.86 534.37 498.86 563.50 498.83 569.85
  C 498.80 576.70 498.50 581.79 497.93 585.12
  C 497.00 590.53 495.64 595.46 493.87 599.93
  C 491.64 605.55 488.55 610.60 484.60 615.08
  C 480.37 619.87 475.71 623.70 470.62 626.57
  C 462.62 631.08 454.16 633.88 445.23 634.97
  C 439.95 635.62 434.37 635.94 428.50 635.94
  C 422.63 635.94 417.06 635.62 411.78 634.98
  C 402.85 633.89 394.39 631.10 386.39 626.59
  C 381.29 623.72 376.63 619.89 372.40 615.10
  C 368.45 610.62 365.35 605.57 363.13 599.96
  C 361.35 595.49 359.99 590.55 359.06 585.15
  C 358.48 581.82 358.18 576.73 358.15 569.88
  C 358.12 563.52 358.11 534.39 358.12 482.49
  C 358.12 482.06 358.47 481.71 358.90 481.71
  L 394.99 481.69
  C 395.66 481.69 396.20 482.23 396.20 482.90
  C 396.19 517.96 396.21 543.52 396.27 559.60
  C 396.29 564.84 396.66 569.97 397.37 574.99
  C 397.93 579.00 399.22 582.93 401.23 586.79
  C 406.60 597.13 417.36 601.44 428.50 601.44
  Z"
/>
<path d="
  M 571.96 526.67
  C 569.99 530.84 568.99 536.12 568.95 542.53
  C 568.80 563.82 568.77 594.67 568.88 635.10
  C 568.88 635.57 568.50 635.95 568.03 635.95
  L 531.93 635.95
  C 531.46 635.95 531.07 635.56 531.07 635.08
  C 531.04 601.61 531.05 568.16 531.08 534.75
  C 531.08 529.18 531.74 523.11 533.07 516.54
  C 534.74 508.26 538.56 501.10 544.53 495.06
  C 547.72 491.84 551.70 489.27 556.48 487.36
  C 566.23 483.45 575.98 482.27 586.26 481.97
  C 596.21 481.68 608.92 481.65 624.37 481.86
  C 624.81 481.87 625.16 482.22 625.16 482.66
  L 625.16 515.67
  C 625.16 515.88 624.99 516.05 624.77 516.05
  C 609.55 516.03 600.05 516.01 596.26 515.99
  C 591.03 515.97 586.01 516.79 581.21 518.46
  C 576.92 519.95 573.84 522.68 571.96 526.67
  Z"
/>
<path d="
  M 1092.49 635.94
  C 1092.40 635.94 1092.35 635.90 1092.34 635.82
  C 1092.13 634.90 1092.03 633.96 1092.03 633.00
  C 1092.13 569.09 1092.18 537.09 1092.18 537.00
  C 1092.60 528.38 1093.53 521.04 1094.96 514.97
  C 1098.09 501.78 1105.75 492.51 1117.95 487.16
  C 1121.12 485.77 1125.74 484.50 1131.82 483.33
  C 1136.48 482.43 1143.12 481.92 1151.75 481.79
  C 1161.64 481.64 1173.01 481.62 1185.86 481.75
  C 1186.27 481.75 1186.61 482.09 1186.61 482.50
  L 1186.61 515.52
  C 1186.61 515.80 1186.38 516.03 1186.10 516.03
  C 1169.73 516.00 1158.89 516.02 1153.57 516.09
  C 1151.44 516.12 1148.67 516.59 1145.28 517.50
  C 1132.66 520.88 1130.67 530.85 1130.66 542.30
  C 1130.61 585.79 1130.62 616.58 1130.68 634.68
  C 1130.68 635.38 1130.12 635.94 1129.42 635.94
  L 1092.49 635.94
  Z"
/>
<path d="
  M 1328.24 497.36
  C 1328.41 497.36 1328.61 497.28 1328.84 497.11
  C 1331.45 495.22 1333.74 493.59 1335.72 492.23
  C 1337.48 491.02 1339.96 489.71 1343.17 488.32
  C 1352.16 484.41 1361.87 482.28 1372.28 481.95
  C 1379.15 481.73 1384.16 481.73 1387.29 481.95
  C 1394.47 482.46 1400.30 483.29 1404.78 484.45
  C 1410.89 486.04 1416.34 488.20 1421.13 490.94
  C 1436.49 499.74 1445.73 513.45 1448.85 532.06
  C 1449.51 536.01 1449.84 541.33 1449.84 548.00
  C 1449.81 585.71 1449.79 614.70 1449.79 634.97
  C 1449.79 635.52 1449.35 635.96 1448.81 635.96
  L 1412.80 635.96
  C 1412.29 635.96 1411.88 635.54 1411.88 635.03
  C 1411.89 588.27 1411.90 562.69 1411.90 558.28
  C 1411.88 543.10 1409.65 526.74 1394.96 519.70
  C 1389.08 516.89 1382.62 515.82 1375.59 516.51
  C 1363.78 517.67 1355.50 523.50 1350.77 534.00
  C 1349.68 536.41 1348.74 540.50 1347.95 546.25
  C 1347.47 549.76 1347.24 555.85 1347.26 564.52
  C 1347.32 586.96 1347.31 610.45 1347.24 635.00
  C 1347.24 635.51 1346.83 635.92 1346.32 635.92
  C 1343.71 635.93 1337.68 635.94 1328.23 635.94
  C 1318.78 635.94 1312.75 635.93 1310.14 635.92
  C 1309.63 635.92 1309.22 635.51 1309.22 635.00
  C 1309.15 610.45 1309.15 586.96 1309.21 564.52
  C 1309.23 555.84 1309.00 549.75 1308.52 546.25
  C 1307.73 540.49 1306.79 536.41 1305.70 534.00
  C 1300.97 523.50 1292.70 517.66 1280.89 516.50
  C 1273.85 515.81 1267.40 516.88 1261.52 519.69
  C 1246.83 526.73 1244.59 543.09 1244.57 558.27
  C 1244.57 562.67 1244.57 588.26 1244.58 635.02
  C 1244.58 635.53 1244.17 635.95 1243.66 635.95
  L 1207.65 635.94
  C 1207.11 635.94 1206.67 635.50 1206.67 634.95
  C 1206.67 614.68 1206.66 585.69 1206.63 547.98
  C 1206.63 541.31 1206.96 535.99 1207.63 532.04
  C 1210.75 513.43 1219.99 499.72 1235.35 490.93
  C 1240.14 488.19 1245.59 486.02 1251.70 484.44
  C 1256.18 483.28 1262.01 482.45 1269.19 481.94
  C 1272.33 481.72 1277.33 481.72 1284.20 481.94
  C 1294.62 482.28 1304.32 484.40 1313.31 488.32
  C 1316.52 489.71 1319.00 491.02 1320.76 492.23
  C 1322.74 493.59 1325.03 495.22 1327.64 497.11
  C 1327.87 497.28 1328.07 497.36 1328.24 497.36
  Z"
/>
<path d="
  M 1582.20 619.27
  C 1582.20 617.54 1581.70 617.39 1580.71 618.80
  C 1577.41 623.49 1573.57 627.24 1569.19 630.05
  C 1565.25 632.58 1560.37 634.54 1554.55 635.94
  C 1535.34 640.56 1512.83 638.59 1495.77 627.95
  C 1483.59 620.35 1474.89 607.39 1474.12 592.78
  C 1473.85 587.77 1474.05 583.58 1474.71 580.22
  C 1476.99 568.65 1482.99 560.07 1492.72 554.47
  C 1504.21 547.87 1516.73 546.79 1531.54 546.71
  C 1546.91 546.62 1558.48 546.39 1566.25 546.02
  C 1574.38 545.63 1579.32 541.50 1581.07 533.63
  C 1581.84 530.20 1581.10 526.88 1578.86 523.69
  C 1576.65 520.53 1573.25 518.48 1568.67 517.54
  C 1563.79 516.54 1558.83 516.04 1553.78 516.04
  C 1519.89 516.03 1498.04 516.03 1488.25 516.02
  C 1487.80 516.02 1487.43 515.65 1487.43 515.20
  L 1487.43 482.53
  C 1487.43 482.15 1487.74 481.84 1488.12 481.84
  C 1516.19 481.75 1540.57 481.72 1561.28 481.74
  C 1572.33 481.75 1582.58 483.20 1592.05 486.08
  C 1598.07 487.91 1603.36 491.20 1607.91 495.97
  C 1613.35 501.66 1616.88 508.74 1618.50 517.21
  C 1619.14 520.53 1619.64 523.92 1620.01 527.39
  C 1620.30 530.13 1620.44 533.55 1620.44 537.64
  C 1620.44 590.72 1620.44 623.27 1620.44 635.28
  C 1620.44 636.26 1619.95 636.75 1618.96 636.75
  L 1583.61 636.75
  C 1582.83 636.75 1582.20 636.12 1582.20 635.34
  L 1582.20 619.27
  Z
  M 1574.80 597.30
  C 1580.51 590.29 1582.47 579.89 1582.14 570.96
  C 1582.12 570.61 1581.81 570.36 1581.47 570.41
  C 1572.96 571.74 1565.54 572.66 1556.48 572.72
  C 1549.01 572.76 1541.55 572.79 1534.08 572.81
  C 1532.05 572.81 1530.25 572.91 1528.70 573.10
  C 1526.37 573.39 1524.61 573.76 1523.42 574.20
  C 1515.50 577.16 1511.92 582.50 1512.68 590.21
  C 1513.07 594.17 1514.32 597.49 1516.44 600.18
  C 1521.08 606.06 1528.50 608.95 1536.00 609.56
  C 1545.08 610.29 1553.12 609.52 1560.12 607.25
  C 1566.07 605.32 1570.96 602.01 1574.80 597.30
  Z"
/>
<path d="
  M 680.20 736.17
  C 680.65 735.72 680.87 735.17 680.87 734.54
  C 680.90 727.81 680.92 717.68 680.92 704.13
  C 680.92 703.76 681.10 703.58 681.47 703.58
  L 688.25 703.58
  C 688.68 703.58 688.90 703.80 688.90 704.23
  L 688.90 782.50
  C 688.90 782.93 688.68 783.15 688.25 783.15
  L 683.36 783.15
  C 683.01 783.15 682.80 782.97 682.75 782.62
  C 682.37 779.87 682.16 777.10 682.12 774.31
  C 682.09 772.46 681.57 772.31 680.56 773.86
  C 679.64 775.27 678.95 776.32 678.48 777.01
  C 675.81 780.94 671.88 783.16 666.71 783.65
  C 661.29 784.17 654.68 784.11 650.27 781.15
  C 645.50 777.95 642.36 773.65 640.84 768.25
  C 639.38 763.05 638.87 757.78 639.31 752.44
  C 639.94 744.89 641.47 738.17 646.44 732.96
  C 649.58 729.67 653.47 727.73 658.12 727.14
  C 667.01 726.02 673.99 728.71 679.06 735.21
  C 679.29 735.51 679.54 735.82 679.79 736.14
  C 679.92 736.31 680.05 736.32 680.20 736.17
  Z
  M 647.05 755.90
  C 647.24 767.17 650.80 778.45 664.41 778.23
  C 678.01 778.01 681.21 766.62 681.03 755.34
  C 680.84 744.07 677.28 732.79 663.67 733.01
  C 650.07 733.23 646.87 744.62 647.05 755.90
  Z"
/>
<rect x="615.44" y="705.36" width="8.38" height="8.78" rx="1.06"/>
<path d="
  M 364.02 744.29
  C 364.53 746.41 366.03 748.01 368.52 749.10
  C 371.57 750.44 376.41 751.84 383.03 753.31
  C 385.95 753.96 388.77 755.15 391.50 756.88
  C 393.78 758.33 395.49 760.45 396.64 763.25
  C 397.47 765.30 397.67 767.89 397.22 771.03
  C 395.95 780.03 388.28 783.43 379.60 783.84
  C 374.79 784.07 370.89 783.75 367.88 782.89
  C 361.15 780.97 355.79 775.82 354.86 768.71
  C 354.79 768.23 355.00 767.99 355.49 767.99
  L 361.18 767.99
  C 361.48 767.99 361.68 768.13 361.78 768.41
  C 363.64 773.78 367.21 776.95 372.48 777.93
  C 375.17 778.43 378.27 778.40 381.78 777.83
  C 387.53 776.91 390.40 773.76 390.38 768.37
  C 390.37 766.36 389.84 764.79 388.79 763.66
  C 387.21 761.96 385.74 760.94 384.39 760.59
  C 382.72 760.16 378.23 759.01 370.93 757.13
  C 367.28 756.19 364.06 754.68 361.26 752.61
  C 357.79 750.03 356.30 746.19 356.80 741.10
  C 357.27 736.31 359.39 732.74 363.15 730.37
  C 365.46 728.91 369.00 727.46 371.89 727.17
  C 376.92 726.67 381.20 726.95 384.73 728.02
  C 391.06 729.94 396.02 734.13 396.19 741.01
  C 396.20 741.25 396.03 741.45 395.79 741.50
  C 393.96 741.83 392.08 741.86 390.13 741.61
  C 389.67 741.55 389.30 741.21 389.20 740.77
  C 388.83 739.20 387.95 737.65 386.58 736.10
  C 385.51 734.89 384.03 734.01 382.15 733.46
  C 377.92 732.24 373.89 732.36 370.06 733.82
  C 365.51 735.55 362.85 739.48 364.02 744.29
  Z"
/>
<path d="
  M 509.17 749.62
  C 509.98 745.64 509.54 741.91 507.85 738.44
  C 506.88 736.45 505.33 735.01 503.20 734.11
  C 497.96 731.90 492.76 732.07 487.61 734.61
  C 484.94 735.93 483.16 738.10 482.29 741.13
  C 482.00 742.14 481.08 742.83 480.04 742.83
  L 476.02 742.83
  C 474.94 742.83 474.51 742.30 474.72 741.24
  C 475.93 735.21 479.11 730.99 485.12 728.80
  C 491.85 726.35 498.65 726.17 505.52 728.26
  C 510.85 729.88 514.29 733.09 515.86 737.90
  C 516.71 740.52 517.12 743.89 517.08 748.00
  C 517.05 750.43 517.06 761.87 517.09 782.32
  C 517.10 782.89 516.81 783.18 516.23 783.18
  L 511.49 783.18
  C 511.11 783.18 510.79 782.89 510.75 782.51
  L 510.00 774.50
  C 509.96 774.07 509.58 773.76 509.15 773.79
  C 508.72 773.83 508.36 774.09 508.06 774.56
  C 502.66 783.27 494.03 784.81 484.59 783.57
  C 479.29 782.87 474.56 779.40 472.81 774.13
  C 470.20 766.21 472.83 757.37 480.56 753.75
  C 482.25 752.96 485.11 752.12 489.14 751.24
  C 495.79 749.79 500.70 750.23 508.56 750.12
  C 508.90 750.12 509.10 749.95 509.17 749.62
  Z
  M 509.19 755.10
  C 509.17 754.95 509.04 754.84 508.89 754.84
  C 502.00 754.86 495.80 755.29 490.30 756.12
  C 486.14 756.75 481.03 759.53 480.00 764.02
  C 478.87 768.97 479.77 774.44 484.60 776.71
  C 490.73 779.58 496.94 778.98 503.21 774.91
  C 504.57 774.03 506.00 772.64 507.51 770.75
  C 508.64 769.34 509.27 767.54 509.41 765.35
  C 509.66 761.42 509.59 758.01 509.19 755.10
  Z"
/>
<path d="
  M 740.19 774.48
  C 737.81 778.24 734.46 781.55 730.22 782.74
  C 721.76 785.12 709.92 784.70 705.50 775.67
  C 704.05 772.71 703.58 769.36 704.08 765.62
  C 704.77 760.44 707.40 756.59 711.97 754.08
  C 713.84 753.05 716.71 752.17 720.56 751.42
  C 724.93 750.58 727.91 750.17 729.51 750.19
  C 732.48 750.22 736.06 750.20 740.25 750.13
  C 740.94 750.12 741.53 749.61 741.63 748.92
  C 742.69 741.71 739.75 734.56 732.03 733.06
  C 724.27 731.56 716.10 733.98 713.88 742.02
  C 713.70 742.65 713.28 742.96 712.63 742.93
  C 709.92 742.81 708.25 742.74 707.62 742.71
  C 707.06 742.68 706.66 742.17 706.76 741.62
  C 707.69 736.41 710.02 732.67 713.74 730.40
  C 717.76 727.95 722.69 726.78 728.53 726.91
  C 733.37 727.01 737.23 727.75 740.12 729.13
  C 744.61 731.28 747.36 734.59 748.39 739.08
  C 748.92 741.41 749.13 744.55 749.00 748.50
  C 748.91 751.31 748.92 762.52 749.01 782.14
  C 749.01 782.83 748.66 783.17 747.97 783.17
  L 743.55 783.17
  C 742.80 783.17 742.42 782.80 742.39 782.06
  C 742.24 778.24 742.08 775.83 741.92 774.83
  C 741.66 773.18 741.08 773.06 740.19 774.48
  Z
  M 741.15 755.27
  C 741.04 755.08 740.85 754.97 740.64 754.96
  C 734.89 754.73 728.87 755.14 722.58 756.17
  C 719.57 756.67 717.09 757.74 715.14 759.38
  C 711.56 762.40 710.48 767.32 712.28 771.78
  C 713.89 775.78 717.21 777.96 722.26 778.32
  C 729.58 778.85 735.37 776.29 739.63 770.64
  C 742.48 766.85 741.82 763.79 741.85 757.75
  C 741.86 756.92 741.62 756.09 741.15 755.27
  Z"
/>
<path d="
  M 802.77 734.48
  C 804.87 731.13 808.10 728.78 812.47 727.44
  C 813.68 727.07 816.39 726.96 820.59 727.11
  C 822.11 727.16 823.59 727.57 825.04 728.33
  C 829.02 730.44 831.57 731.69 833.52 735.22
  C 833.79 735.72 834.49 735.77 834.82 735.31
  C 839.51 728.99 845.83 726.26 853.77 727.11
  C 865.69 728.40 869.15 737.45 869.16 748.01
  C 869.17 759.14 869.16 770.66 869.13 782.56
  C 869.13 782.91 868.85 783.19 868.50 783.19
  L 862.00 783.19
  C 861.49 783.19 861.23 782.93 861.24 782.42
  C 861.37 771.17 861.41 759.62 861.34 747.77
  C 861.34 747.75 861.23 746.46 861.02 743.91
  C 860.89 742.26 860.61 741.03 860.20 740.24
  C 856.80 733.73 852.33 733.13 845.31 733.99
  C 841.15 734.50 838.10 736.64 836.16 740.41
  C 835.45 741.78 835.08 744.48 835.03 748.50
  C 834.92 757.83 834.92 769.09 835.01 782.26
  C 835.01 782.88 834.70 783.19 834.08 783.19
  L 828.46 783.19
  C 827.81 783.19 827.49 782.87 827.49 782.22
  C 827.52 775.09 827.54 763.90 827.55 748.64
  C 827.55 744.57 827.15 741.73 826.36 740.12
  C 824.89 737.13 822.52 735.14 819.26 734.15
  C 816.85 733.42 813.95 733.42 810.56 734.15
  C 806.52 735.02 803.73 737.22 802.18 740.76
  C 801.43 742.46 801.06 745.69 801.07 750.44
  C 801.08 761.21 801.08 771.94 801.08 782.64
  C 801.08 783.01 800.90 783.19 800.53 783.19
  L 793.89 783.19
  C 793.50 783.19 793.31 783.00 793.31 782.61
  L 793.31 729.16
  C 793.31 728.43 793.68 728.07 794.41 728.07
  L 799.99 728.07
  C 800.66 728.07 800.98 728.40 800.94 729.07
  C 800.85 730.67 800.91 732.35 801.13 734.12
  C 801.33 735.79 801.88 735.91 802.77 734.48
  Z"
/>
<path d="
  M 907.83 727.12
  C 911.10 727.14 913.33 727.33 914.55 727.68
  C 923.53 730.26 929.07 736.13 931.18 745.30
  C 932.00 748.85 932.40 752.32 932.37 755.69
  C 932.36 759.06 931.92 762.52 931.05 766.06
  C 928.84 775.20 923.22 781.01 914.21 783.48
  C 913.00 783.82 910.76 783.98 907.49 783.96
  C 904.23 783.94 901.99 783.75 900.78 783.40
  C 891.80 780.82 886.26 774.95 884.15 765.78
  C 883.33 762.23 882.93 758.76 882.95 755.39
  C 882.97 752.02 883.41 748.56 884.27 745.02
  C 886.49 735.88 892.10 730.07 901.11 727.60
  C 902.33 727.26 904.57 727.10 907.83 727.12
  Z
  M 890.55 755.60
  C 890.57 766.49 894.85 778.11 907.77 778.08
  C 920.69 778.06 924.93 766.42 924.90 755.54
  C 924.88 744.65 920.60 733.03 907.68 733.06
  C 894.76 733.08 890.53 744.72 890.55 755.60
  Z"
/>
<path d="
  M 1002.96 758.38
  C 1002.81 761.28 1003.30 764.21 1004.41 767.17
  C 1007.12 774.36 1012.40 778.01 1020.25 778.12
  C 1027.96 778.23 1033.08 774.90 1035.61 768.13
  C 1035.67 767.96 1035.79 767.88 1035.96 767.88
  L 1042.46 767.88
  C 1042.64 767.88 1042.77 768.04 1042.73 768.22
  C 1042.04 771.65 1040.59 774.55 1038.40 776.92
  C 1032.60 783.20 1024.79 784.48 1016.53 783.69
  C 998.69 781.99 992.91 764.61 995.40 748.99
  C 997.03 738.74 1002.84 730.30 1013.18 727.66
  C 1015.10 727.17 1017.85 726.95 1021.44 726.98
  C 1024.28 727.01 1026.94 727.56 1029.42 728.62
  C 1036.12 731.50 1040.38 736.74 1042.20 744.35
  C 1043.17 748.40 1043.70 752.48 1043.77 756.60
  C 1043.78 756.90 1043.54 757.15 1043.24 757.15
  L 1004.25 757.15
  C 1003.56 757.15 1002.99 757.69 1002.96 758.38
  Z
  M 1004.32 751.96
  L 1034.64 751.80
  C 1035.30 751.80 1035.84 751.26 1035.83 750.59
  L 1035.83 749.25
  C 1035.78 740.13 1028.66 732.77 1019.92 732.82
  L 1018.84 732.82
  C 1010.10 732.87 1003.06 740.30 1003.11 749.43
  L 1003.11 750.77
  C 1003.12 751.43 1003.66 751.96 1004.32 751.96
  Z"
/>
<path d="
  M 1118.50 774.18
  C 1118.43 773.48 1117.50 773.27 1117.15 773.88
  C 1113.46 780.25 1107.99 783.55 1100.75 783.77
  C 1096.50 783.90 1092.51 784.02 1089.06 782.34
  C 1082.91 779.33 1080.06 774.32 1080.51 767.33
  C 1081.00 759.52 1085.11 754.53 1092.82 752.34
  C 1094.36 751.91 1096.71 751.43 1099.87 750.91
  C 1105.58 749.98 1110.21 750.20 1117.02 750.16
  C 1117.55 750.16 1117.99 749.75 1118.05 749.22
  C 1118.48 744.86 1118.34 740.35 1115.38 736.73
  C 1113.94 734.98 1111.75 733.77 1108.80 733.11
  C 1103.97 732.02 1099.54 732.66 1095.52 735.05
  C 1091.97 737.16 1091.79 739.21 1090.10 742.34
  C 1089.93 742.66 1089.67 742.82 1089.30 742.82
  L 1084.06 742.82
  C 1083.57 742.82 1083.19 742.39 1083.26 741.90
  C 1083.59 739.37 1084.47 737.01 1085.90 734.82
  C 1088.92 730.19 1095.39 727.32 1100.52 727.09
  C 1106.37 726.83 1111.09 726.76 1116.30 729.01
  C 1120.23 730.72 1122.98 733.54 1124.55 737.48
  C 1125.08 738.79 1125.39 741.57 1125.48 745.80
  C 1125.59 751.27 1125.66 763.34 1125.67 782.03
  C 1125.67 782.68 1125.14 783.21 1124.48 783.21
  L 1120.40 783.21
  C 1119.70 783.21 1119.32 782.86 1119.25 782.17
  L 1118.50 774.18
  Z
  M 1114.74 772.49
  C 1116.91 770.41 1118.01 768.75 1118.05 767.50
  C 1118.17 763.73 1118.19 759.85 1118.11 755.87
  C 1118.10 755.31 1117.65 754.87 1117.09 754.86
  C 1110.67 754.82 1104.66 755.25 1099.05 756.14
  C 1092.59 757.16 1087.57 761.51 1088.20 768.53
  C 1088.48 771.72 1089.72 774.19 1091.93 775.96
  C 1093.66 777.34 1096.06 778.14 1099.13 778.36
  C 1105.02 778.78 1110.23 776.82 1114.74 772.49
  Z"
/>
<path d="
  M 1178.87 734.68
  C 1180.36 733.31 1181.83 731.45 1183.85 730.26
  C 1189.55 726.91 1195.58 726.15 1201.94 727.98
  C 1212.33 730.97 1214.95 739.80 1214.95 749.51
  C 1214.96 760.74 1214.95 771.80 1214.93 782.70
  C 1214.93 783.03 1214.77 783.19 1214.44 783.19
  L 1207.73 783.19
  C 1207.42 783.19 1207.16 782.93 1207.16 782.62
  C 1207.15 772.96 1207.20 762.17 1207.32 750.26
  C 1207.34 747.88 1207.19 743.41 1206.25 741.29
  C 1205.16 738.82 1203.49 736.84 1201.24 735.35
  C 1199.66 734.30 1197.29 733.73 1194.12 733.62
  C 1187.57 733.40 1180.55 735.63 1178.33 742.07
  C 1177.80 743.62 1177.53 746.29 1177.52 750.06
  C 1177.51 760.85 1177.50 771.56 1177.51 782.18
  C 1177.51 782.85 1177.17 783.19 1176.49 783.19
  L 1171.08 783.19
  C 1170.47 783.19 1170.16 782.88 1170.16 782.26
  L 1170.16 729.20
  C 1170.16 728.57 1170.67 728.06 1171.30 728.06
  L 1176.00 728.06
  C 1176.79 728.06 1177.21 728.46 1177.24 729.26
  L 1177.45 734.04
  C 1177.50 735.29 1177.98 735.50 1178.87 734.68
  Z"
/>
<path d="
  M 1253.53 727.12
  C 1260.34 727.16 1266.43 728.92 1270.86 733.76
  C 1276.43 739.82 1278.09 747.48 1278.05 755.67
  C 1278.01 763.85 1276.28 771.50 1270.65 777.50
  C 1266.18 782.30 1260.07 784.00 1253.27 783.98
  C 1246.46 783.94 1240.37 782.18 1235.94 777.34
  C 1230.37 771.28 1228.71 763.62 1228.75 755.43
  C 1228.79 747.25 1230.52 739.60 1236.15 733.60
  C 1240.62 728.80 1246.73 727.10 1253.53 727.12
  Z
  M 1236.35 755.58
  C 1236.38 766.52 1240.54 778.07 1253.52 778.05
  C 1266.49 778.01 1270.60 766.45 1270.58 755.51
  C 1270.56 744.56 1266.40 733.01 1253.42 733.04
  C 1240.44 733.07 1236.33 744.64 1236.35 755.58
  Z"
/>
<path d="
  M 1322.51 738.12
  C 1320.88 735.59 1318.63 733.97 1315.78 733.25
  C 1311.05 732.06 1306.62 732.55 1302.48 734.70
  C 1298.42 736.81 1296.68 742.74 1299.44 746.37
  C 1300.53 747.79 1302.32 748.95 1304.81 749.86
  C 1308.46 751.17 1312.95 752.40 1318.30 753.54
  C 1319.90 753.89 1322.15 754.79 1325.04 756.24
  C 1326.79 757.13 1328.43 758.81 1329.98 761.30
  C 1331.10 763.10 1331.68 765.25 1331.72 767.74
  C 1331.87 775.77 1328.05 780.85 1320.26 782.97
  C 1317.08 783.84 1312.95 784.10 1307.88 783.76
  C 1303.13 783.45 1299.26 782.23 1296.29 780.12
  C 1292.57 777.47 1290.22 773.81 1289.23 769.15
  C 1289.06 768.35 1289.39 767.95 1290.21 767.95
  L 1294.98 767.95
  C 1295.71 767.95 1296.36 768.42 1296.59 769.12
  C 1298.02 773.66 1301.28 776.58 1306.37 777.87
  C 1308.18 778.33 1310.84 778.40 1314.37 778.08
  C 1317.61 777.79 1320.03 776.98 1321.64 775.67
  C 1325.30 772.69 1326.11 766.38 1322.60 762.99
  C 1321.02 761.46 1318.32 760.30 1314.51 759.51
  C 1313.73 759.35 1310.69 758.57 1305.38 757.16
  C 1303.17 756.57 1300.98 755.73 1298.79 754.64
  C 1296.36 753.42 1294.54 751.96 1293.32 750.27
  C 1291.38 747.58 1290.64 744.42 1291.11 740.81
  C 1291.70 736.20 1293.91 732.66 1297.76 730.20
  C 1301.39 727.89 1306.05 726.80 1311.73 726.93
  C 1317.10 727.06 1321.71 728.44 1325.56 731.07
  C 1328.52 733.10 1330.24 736.42 1330.72 741.03
  C 1330.76 741.36 1330.62 741.55 1330.29 741.60
  C 1328.22 741.95 1326.16 741.90 1324.11 741.43
  C 1323.79 741.36 1323.53 741.14 1323.42 740.83
  C 1323.13 740.04 1323.05 738.96 1322.51 738.12
  Z"
/>
<path d="
  M 1376.36 737.42
  C 1374.31 735.17 1372.35 733.79 1370.47 733.30
  C 1363.82 731.57 1352.61 732.96 1352.51 742.00
  C 1352.47 745.75 1354.34 748.26 1358.12 749.53
  C 1362.82 751.11 1367.67 752.48 1372.68 753.64
  C 1373.76 753.89 1375.45 754.50 1377.74 755.47
  C 1379.61 756.27 1381.10 757.30 1382.20 758.55
  C 1386.23 763.14 1387.13 768.46 1384.92 774.52
  C 1384.01 777.00 1382.06 779.21 1379.07 781.16
  C 1373.54 784.77 1361.74 784.44 1356.40 782.86
  C 1349.22 780.73 1344.88 776.04 1343.37 768.78
  C 1343.28 768.36 1343.60 767.97 1344.03 767.97
  L 1349.28 767.97
  C 1349.66 767.97 1349.95 768.13 1350.15 768.46
  C 1351.12 770.02 1352.06 772.45 1353.40 773.82
  C 1357.48 778.00 1361.78 778.43 1367.54 778.19
  C 1372.91 777.97 1377.27 776.39 1378.75 770.94
  C 1380.04 766.15 1377.28 761.91 1372.67 760.64
  C 1363.87 758.22 1359.15 756.92 1358.51 756.74
  C 1354.67 755.67 1350.07 753.84 1347.65 750.43
  C 1344.61 746.14 1344.33 740.87 1346.63 736.17
  C 1349.61 730.09 1356.25 727.07 1363.17 726.99
  C 1365.53 726.96 1367.27 726.98 1368.40 727.05
  C 1372.36 727.30 1376.03 728.59 1379.40 730.90
  C 1382.46 732.99 1384.32 736.18 1384.98 740.47
  C 1385.09 741.18 1384.54 741.81 1383.83 741.81
  L 1379.53 741.81
  C 1378.53 741.81 1377.89 741.33 1377.60 740.37
  C 1377.13 738.80 1376.72 737.81 1376.36 737.42
  Z"
/>
<path d="
  M 1437.25 775.04
  C 1437.10 772.89 1436.43 772.71 1435.26 774.51
  C 1431.78 779.84 1427.79 782.76 1421.35 783.57
  C 1418.63 783.91 1415.88 783.96 1413.11 783.73
  C 1405.58 783.11 1399.99 778.40 1399.12 770.61
  C 1398.49 765.03 1400.17 758.59 1405.08 755.32
  C 1407.45 753.75 1410.00 752.63 1412.73 751.96
  C 1415.73 751.23 1420.40 750.33 1423.80 750.25
  C 1426.56 750.19 1430.48 750.17 1435.55 750.19
  C 1436.03 750.19 1436.44 749.83 1436.49 749.35
  C 1436.72 747.30 1436.72 745.20 1436.47 743.05
  C 1435.49 734.36 1427.37 731.74 1419.82 732.85
  C 1415.89 733.43 1410.89 735.97 1409.71 740.04
  C 1409.48 740.85 1409.10 741.62 1408.58 742.33
  C 1408.35 742.64 1408.05 742.79 1407.67 742.79
  L 1402.58 742.79
  C 1402.10 742.79 1401.88 742.55 1401.92 742.07
  C 1402.17 738.82 1403.33 735.91 1405.38 733.34
  C 1407.01 731.30 1409.46 729.71 1412.73 728.58
  C 1417.79 726.83 1423.38 726.43 1429.50 727.37
  C 1432.21 727.79 1434.73 728.73 1437.07 730.20
  C 1440.41 732.29 1442.46 735.15 1443.23 738.78
  C 1443.86 741.73 1444.16 745.30 1444.15 749.51
  C 1444.12 765.30 1444.12 776.24 1444.16 782.33
  C 1444.17 782.80 1443.78 783.19 1443.31 783.19
  L 1438.52 783.19
  C 1438.07 783.19 1437.82 782.97 1437.79 782.52
  L 1437.25 775.04
  Z
  M 1420.77 755.61
  C 1418.58 755.78 1416.48 756.23 1414.49 756.96
  C 1408.53 759.13 1405.97 763.38 1406.80 769.71
  C 1407.46 774.68 1411.57 777.70 1416.31 778.24
  C 1424.14 779.13 1430.42 776.41 1435.17 770.10
  C 1436.08 768.89 1436.57 767.20 1436.66 765.02
  C 1436.77 762.20 1436.74 759.27 1436.57 756.23
  C 1436.52 755.45 1435.89 754.85 1435.12 754.84
  C 1430.26 754.80 1425.56 755.24 1420.77 755.61
  Z"
/>
<path d="
  M 449.96 774.32
  C 448.38 777.27 446.48 779.58 444.25 781.25
  C 440.68 783.92 435.16 784.16 430.74 783.85
  C 421.99 783.24 416.28 779.54 413.61 772.73
  C 412.43 769.72 411.88 764.68 411.97 757.59
  C 412.02 753.78 412.05 744.17 412.05 728.75
  C 412.05 728.28 412.28 728.04 412.75 728.04
  L 419.12 728.04
  C 419.57 728.04 419.94 728.41 419.95 728.87
  C 419.98 736.50 419.99 746.63 419.97 759.25
  C 419.96 761.83 419.83 767.10 420.97 769.83
  C 422.84 774.31 426.18 776.96 430.99 777.77
  C 434.96 778.44 440.23 778.18 443.78 775.92
  C 447.87 773.31 449.93 769.14 449.94 763.41
  C 449.96 748.12 449.97 736.65 449.96 729.01
  C 449.96 728.38 450.28 728.07 450.91 728.07
  L 456.51 728.07
  C 457.20 728.07 457.76 728.63 457.76 729.32
  L 457.76 782.21
  C 457.76 782.85 457.44 783.17 456.80 783.17
  L 452.11 783.17
  C 451.48 783.17 451.16 782.85 451.17 782.22
  C 451.20 779.94 451.17 777.54 451.06 775.03
  C 451.04 774.75 450.84 774.34 450.63 774.18
  C 450.41 774.01 450.09 774.08 449.96 774.32
  Z"
/>
<path d="
  M 578.53 773.71
  C 579.14 773.71 579.72 772.79 580.29 770.95
  C 580.81 769.27 581.08 768.41 581.09 768.37
  C 585.64 755.08 590.16 741.97 594.67 729.02
  C 594.90 728.35 595.37 728.02 596.07 728.02
  L 600.95 728.02
  C 601.79 728.02 602.07 728.41 601.79 729.20
  L 582.86 782.33
  C 582.69 782.81 582.24 783.15 581.72 783.18
  C 580.78 783.23 579.72 783.25 578.53 783.25
  C 577.34 783.25 576.27 783.23 575.33 783.18
  C 574.81 783.15 574.36 782.81 574.19 782.33
  L 555.29 729.19
  C 555.01 728.40 555.29 728.01 556.13 728.01
  L 561.01 728.01
  C 561.71 728.01 562.18 728.34 562.41 729.01
  C 566.91 741.96 571.43 755.08 575.97 768.37
  C 575.98 768.41 576.25 769.27 576.77 770.95
  C 577.33 772.79 577.92 773.71 578.53 773.71
  Z"
/>
<rect x="615.81" y="728.09" width="7.58" height="55.10" rx="0.87"/>
<path d="
  M 963.61 773.46
  C 964.11 773.46 964.50 773.06 964.78 772.25
  C 969.67 758.20 974.64 743.76 979.71 728.95
  C 979.92 728.34 980.35 728.04 980.99 728.04
  L 986.24 728.04
  C 986.74 728.04 987.09 728.53 986.92 729.00
  L 967.91 782.36
  C 967.75 782.81 967.34 783.12 966.86 783.14
  C 965.91 783.19 964.83 783.21 963.61 783.21
  C 962.40 783.21 961.32 783.19 960.37 783.14
  C 959.89 783.12 959.48 782.81 959.32 782.36
  L 940.25 729.02
  C 940.09 728.56 940.44 728.06 940.93 728.06
  L 946.18 728.06
  C 946.82 728.06 947.25 728.36 947.46 728.97
  C 952.55 743.77 957.54 758.20 962.44 772.25
  C 962.72 773.06 963.11 773.46 963.61 773.46
  Z"
/>
</g>
</svg>
