<?xml version="1.0" encoding="UTF-8" standalone="no"?>
<!DOCTYPE svg PUBLIC "-//W3C//DTD SVG 1.1//EN" "http://www.w3.org/Graphics/SVG/1.1/DTD/svg11.dtd">
<svg xmlns="http://www.w3.org/2000/svg" version="1.1" viewBox="0.00 0.00 392.00 383.00" width="392.00" height="383.00">
<g fill="#1b1718">
<path d="
  M 292.15 251.27
  C 293.11 251.58 293.72 252.53 293.60 253.54
  C 291.49 271.21 287.27 288.09 280.96 304.20
  C 275.92 317.09 269.21 328.39 260.84 338.10
  C 257.05 342.49 252.77 346.36 247.99 349.71
  C 245.02 351.79 243.01 352.10 238.30 353.57
  C 233.11 355.19 228.41 355.60 223.43 356.73
  C 218.34 357.89 211.55 358.10 205.18 358.65
  C 202.43 358.88 199.99 358.99 197.84 358.97
  C 169.47 358.66 141.03 351.22 116.42 336.65
  C 113.70 335.04 112.69 332.78 113.40 329.88
  C 114.05 327.22 116.33 324.08 118.35 322.38
  C 123.98 317.65 130.18 313.58 136.96 310.19
  C 144.51 306.41 151.77 303.19 158.74 300.52
  C 175.95 293.93 193.46 288.56 211.27 284.39
  C 212.72 284.05 214.48 283.32 215.66 282.77
  C 215.97 282.63 216.14 282.39 216.15 282.05
  C 216.28 279.59 216.20 277.76 215.93 276.57
  C 211.62 258.13 209.05 246.96 208.22 243.05
  C 207.88 241.45 207.46 240.24 206.95 239.41
  C 206.43 238.56 205.43 238.13 204.45 238.35
  C 180.62 243.66 157.63 250.79 135.48 259.73
  C 119.51 266.18 103.78 273.77 90.28 284.25
  C 84.73 288.56 80.47 293.48 77.50 299.01
  C 76.81 300.30 75.87 300.75 74.69 300.37
  C 74.06 300.16 73.36 299.60 72.60 298.69
  C 68.17 293.39 64.41 288.04 61.31 282.63
  C 61.27 282.56 60.64 281.62 59.42 279.79
  C 57.26 276.56 56.89 273.24 58.32 269.85
  C 59.38 267.32 61.19 264.61 63.74 261.74
  C 67.05 258.01 70.78 254.66 74.92 251.68
  C 84.33 244.90 94.99 238.80 106.89 233.38
  C 126.94 224.25 146.72 216.96 166.21 211.51
  C 172.82 209.66 182.94 206.94 196.56 203.36
  C 197.51 203.11 198.12 202.20 198.00 201.23
  C 197.47 196.90 196.73 192.92 195.77 189.28
  C 194.53 184.61 193.55 180.37 192.83 176.58
  C 191.96 172.02 190.63 168.58 189.62 163.21
  C 189.12 160.57 187.34 159.61 184.28 160.32
  C 150.85 168.16 119.31 179.44 89.65 194.16
  C 72.26 202.79 56.60 212.33 43.28 225.53
  C 41.78 227.01 40.55 226.77 39.58 224.80
  C 39.49 224.62 39.43 224.42 39.41 224.22
  C 39.06 220.95 38.63 217.89 38.13 215.03
  C 37.68 212.46 37.40 209.26 37.29 205.45
  C 37.16 200.52 37.11 197.28 37.15 195.75
  C 37.19 193.90 37.66 192.01 38.55 190.08
  C 39.04 189.00 40.69 187.13 43.48 184.47
  C 44.77 183.24 47.11 181.34 50.49 178.78
  C 52.98 176.89 55.45 175.19 57.92 173.67
  C 78.05 161.27 100.43 151.83 122.76 144.27
  C 140.47 138.28 158.79 133.00 177.73 128.45
  C 178.53 128.26 179.24 127.94 179.85 127.47
  C 180.12 127.26 180.28 126.99 180.32 126.65
  C 180.55 124.52 180.49 122.74 180.14 121.31
  C 178.33 113.96 175.99 103.88 173.14 91.06
  C 172.59 88.57 172.08 86.56 171.61 85.03
  C 170.84 82.50 169.15 81.55 166.54 82.17
  C 142.30 87.97 120.01 95.23 99.66 103.95
  C 88.63 108.67 79.71 113.07 72.91 117.16
  C 67.97 120.13 62.55 123.70 56.65 127.88
  C 55.91 128.40 55.34 128.67 54.94 128.68
  C 53.65 128.73 53.26 128.17 53.77 126.99
  C 55.66 122.62 57.78 118.41 60.13 114.38
  C 60.78 113.26 62.60 110.47 65.59 106.02
  C 67.67 102.92 69.63 100.23 71.47 97.96
  C 79.39 88.19 87.51 79.81 95.83 72.84
  C 97.24 71.66 100.21 69.45 104.75 66.22
  C 108.37 63.63 111.44 61.58 113.97 60.07
  C 132.88 48.75 153.36 41.45 175.40 38.18
  C 186.73 36.50 198.86 36.81 209.98 37.10
  C 212.37 37.17 214.62 37.63 216.94 38.83
  C 225.80 43.39 233.11 48.50 238.87 54.15
  C 247.66 62.78 255.15 72.38 261.34 82.96
  C 261.97 84.03 262.23 85.23 262.12 86.57
  C 262.09 86.90 261.92 87.19 261.65 87.37
  C 260.84 87.88 260.05 88.17 259.26 88.24
  C 248.55 89.18 240.93 89.58 232.53 91.04
  C 224.26 92.48 217.31 93.06 209.95 94.62
  C 208.83 94.86 205.12 95.56 198.83 96.72
  C 196.84 97.09 196.07 98.29 196.51 100.34
  C 196.52 100.37 196.52 100.41 196.53 100.46
  C 196.83 102.46 198.05 103.27 200.20 102.90
  C 203.96 102.25 211.31 100.99 222.25 99.12
  C 230.78 97.67 237.66 97.17 245.28 95.95
  C 251.05 95.03 258.95 94.52 264.24 94.25
  C 264.99 94.22 265.77 94.34 266.58 94.62
  C 267.25 94.85 267.82 95.33 268.29 96.05
  C 269.06 97.23 269.55 98.05 269.77 98.52
  C 279.16 118.21 285.83 138.62 289.76 159.77
  C 289.99 160.98 289.81 162.13 289.22 163.23
  C 289.07 163.51 288.79 163.70 288.47 163.74
  C 279.68 164.73 269.75 165.70 258.68 166.67
  C 253.80 167.10 249.87 167.61 246.90 168.22
  C 244.31 168.75 241.70 169.14 239.07 169.39
  C 237.02 169.59 234.40 169.99 231.23 170.58
  C 226.36 171.49 221.31 172.43 216.09 173.40
  C 214.49 173.69 213.86 174.66 214.19 176.30
  L 214.46 177.62
  C 214.79 179.23 215.77 179.88 217.40 179.57
  C 236.03 176.12 254.83 173.46 273.81 171.59
  C 279.13 171.06 284.57 170.92 290.12 171.15
  C 290.77 171.17 291.33 171.60 291.52 172.22
  C 293.50 178.48 293.65 183.32 294.51 192.02
  C 294.82 195.18 295.01 198.68 295.07 202.53
  C 295.08 203.48 295.23 208.28 295.51 216.92
  C 295.62 220.17 295.56 223.72 295.35 227.57
  C 295.26 229.05 295.13 232.62 294.96 238.28
  C 294.92 239.75 294.67 241.05 294.21 242.19
  C 293.94 242.86 293.32 243.33 292.60 243.40
  C 283.91 244.23 273.32 245.46 260.83 247.10
  C 256.49 247.67 252.87 248.67 248.73 249.14
  C 244.01 249.69 239.27 250.54 234.50 251.70
  C 232.63 252.16 231.94 253.37 232.45 255.32
  C 232.46 255.35 232.46 255.39 232.47 255.44
  C 232.72 257.33 233.94 258.07 236.15 257.66
  C 247.19 255.61 258.16 253.85 269.05 252.36
  C 276.36 251.36 283.26 250.88 289.75 250.92
  C 290.63 250.93 291.43 251.04 292.15 251.27
  Z"
/>
<path d="
  M 229.03 40.94
  C 230.83 40.39 232.73 40.36 234.72 40.84
  C 260.31 46.94 283.12 58.55 303.16 75.66
  C 308.21 79.97 312.36 84.05 315.59 87.88
  C 316.01 88.37 315.92 89.12 315.39 89.49
  C 314.99 89.77 314.23 89.89 313.11 89.86
  C 312.64 89.85 309.20 89.35 302.79 88.36
  C 297.82 87.59 294.41 87.19 292.57 87.14
  C 288.44 87.04 282.67 86.98 275.28 86.97
  C 272.60 86.97 270.63 85.93 269.38 83.84
  C 260.03 68.30 247.90 54.08 232.78 44.18
  C 232.29 43.87 231.68 43.32 230.95 42.54
  C 230.24 41.79 229.60 41.28 229.02 41.01
  C 228.96 40.98 228.96 40.96 229.03 40.94
  Z"
/>
<path d="
  M 354.33 172.13
  C 353.63 172.26 353.06 172.23 352.62 172.06
  C 340.57 167.27 328.21 164.66 315.52 164.21
  C 313.01 164.12 308.61 164.04 302.32 163.95
  C 301.29 163.93 300.35 163.73 299.51 163.34
  C 299.18 163.19 298.94 162.96 298.78 162.64
  C 297.73 160.59 297.07 158.85 296.82 157.42
  C 296.07 153.14 295.31 149.47 294.54 146.42
  C 290.42 129.89 284.74 114.01 277.50 98.76
  C 277.25 98.21 277.02 97.11 276.81 95.46
  C 276.77 95.16 276.94 94.87 277.22 94.75
  C 278.35 94.29 279.61 94.03 281.00 93.98
  C 290.35 93.63 298.76 93.76 306.23 94.37
  C 312.53 94.89 318.06 96.09 322.82 97.97
  C 325.24 98.93 326.39 100.83 327.92 102.92
  C 340.21 119.72 348.90 138.24 353.98 158.49
  C 355.03 162.66 355.71 166.47 356.02 169.91
  C 356.12 170.97 355.38 171.94 354.33 172.13
  Z"
/>
<path d="
  M 300.70 171.41
  C 300.72 171.32 300.78 171.26 300.88 171.24
  C 301.47 171.11 302.68 171.01 304.52 170.94
  C 308.67 170.76 314.23 170.84 321.19 171.19
  C 328.22 171.54 335.21 172.68 342.14 174.61
  C 344.74 175.34 346.93 176.08 348.72 176.84
  C 351.74 178.12 353.78 179.15 354.85 179.92
  C 356.66 181.24 357.72 183.68 358.03 187.24
  C 358.48 192.33 359.09 198.15 358.60 203.07
  C 358.36 205.52 358.19 208.02 358.10 210.58
  C 357.98 213.65 357.60 217.09 356.97 220.91
  C 356.14 225.94 355.54 229.36 355.19 231.19
  C 354.38 235.34 352.87 240.89 350.64 247.82
  C 350.54 248.13 350.33 248.39 350.05 248.55
  C 348.96 249.16 347.77 249.16 346.47 248.54
  C 339.65 245.27 332.37 243.48 324.62 243.17
  C 322.28 243.08 316.36 242.94 306.87 242.76
  C 305.30 242.73 304.11 242.64 303.30 242.49
  C 302.91 242.42 302.68 242.18 302.63 241.79
  C 302.40 240.23 302.16 238.99 302.26 237.73
  C 303.47 223.58 303.42 209.44 302.13 195.31
  C 301.93 193.03 302.17 189.96 301.81 187.57
  C 301.28 184.12 300.80 180.67 300.37 177.21
  C 300.13 175.33 300.33 172.92 300.70 171.41
  Z"
/>
<path d="
  M 261.19 341.95
  C 266.58 337.10 271.12 331.98 274.81 326.59
  C 281.80 316.39 287.39 305.06 291.59 292.61
  C 295.69 280.46 298.63 267.99 300.42 255.22
  C 300.54 254.37 300.96 252.95 301.69 250.97
  C 301.82 250.63 302.05 250.40 302.38 250.29
  C 303.47 249.92 304.60 249.72 305.78 249.69
  C 314.55 249.44 323.48 250.12 332.58 251.75
  C 336.53 252.46 339.85 253.67 342.55 255.39
  C 345.50 257.27 346.21 259.96 344.66 263.46
  C 334.59 286.29 319.82 305.76 300.35 321.85
  C 289.92 330.47 278.52 337.65 266.14 343.40
  C 263.96 344.41 262.12 345.05 260.62 345.31
  C 259.83 345.44 259.53 345.12 259.73 344.35
  C 259.97 343.41 260.46 342.61 261.19 341.95
  Z"
/>
</g>
</svg>
